<?xml version="1.0" encoding="UTF-8"?>
<svg width="512" height="512" version="1.1" viewBox="0 0 135.47 135.47" xmlns="http://www.w3.org/2000/svg" xmlns:xlink="http://www.w3.org/1999/xlink">
<defs>
<linearGradient id="a">
<stop stop-color="#1790e7" offset="0"/>
<stop stop-color="#0ff" offset="1"/>
</linearGradient>
<linearGradient id="c" x1="145.35" x2="160.99" y1="38.876" y2="54.644" gradientTransform="matrix(2.1091 0 0 2.1091 -294.53 -70.042)" gradientUnits="userSpaceOnUse" xlink:href="#a"/>
<linearGradient id="d" x1="143.66" x2="160.99" y1="37.258" y2="54.644" gradientTransform="matrix(2.1091 0 0 -2.1091 -295.13 205.71)" gradientUnits="userSpaceOnUse" xlink:href="#a"/>
<linearGradient id="e" x1="145.35" x2="160.99" y1="38.876" y2="54.644" gradientTransform="matrix(-2.1091 0 0 2.1091 430.39 -69.642)" gradientUnits="userSpaceOnUse" xlink:href="#a"/>
<linearGradient id="h" x1="143.78" x2="160.99" y1="37.389" y2="54.644" gradientTransform="matrix(-2.1091 0 0 -2.1091 430.19 205.31)" gradientUnits="userSpaceOnUse" xlink:href="#a"/>
<radialGradient id="i" cx="82.21" cy="66.057" r="28.348" gradientTransform="matrix(1.9544 -.028121 .031153 2.1651 -94.997 -72.972)" gradientUnits="userSpaceOnUse">
<stop stop-color="#ffa400" offset="0"/>
<stop stop-color="#00c757" offset=".47749"/>
<stop stop-color="#004bfb" offset="1"/>
</radialGradient>
<radialGradient id="b" cx="379.46" cy="570.56" r="189.7" gradientTransform="matrix(.3236 0 0 .3236 -55.056 -116.9)" gradientUnits="userSpaceOnUse">
<stop stop-color="#ff7f00" offset="0"/>
<stop stop-color="#ff0" offset="1"/>
</radialGradient>
</defs>
<g transform="matrix(1 0 0 1 .00017104 .00017294)">
<rect x="6.35" y="6.35" width="122.77" height="122.77" fill="url(#i)" style="paint-order:markers fill stroke"/>
<path d="m17.251 45.072 27.762 0.14093v-28.044l-11.485 11.556-19.095-19.307-4.9323 4.8619 19.117 19.085z" fill="url(#c)" fill-rule="evenodd"/>
<path d="m16.653 90.594 27.762-0.14093v28.044l-11.485-11.556-19.095 19.307-4.9323-4.8619 19.117-19.085z" fill="url(#d)" fill-rule="evenodd"/>
<path d="m118.61 45.471-27.762 0.14093v-28.044l11.485 11.556 19.095-19.307 4.9323 4.8619-19.117 19.085z" fill="url(#e)" fill-rule="evenodd"/>
<path d="m118.41 90.196-27.762-0.14089v28.044l11.485-11.556 19.095 19.307 4.9323-4.8619-19.117-19.085z" fill="url(#h)" fill-rule="evenodd"/>
<rect x="9.14" y="9.14" width="117.19" height="117.19" fill="none" stroke="#074dff" stroke-linecap="square" stroke-width="2.6458" style="paint-order:markers fill stroke"/>
<path d="m67.483 6.3502c-0.1009 1.7067-0.18485 3.5205-0.30526 5.1131-0.23427 3.0984-0.5064 5.9859-0.82163 8.6815-0.31523 2.6955-0.67358 5.1993-1.0795 7.5305-0.4059 2.3312-0.85948 4.4899-1.3658 6.4953-0.50631 2.0054-1.0648 3.857-1.6812 5.5751-0.61643 1.718-1.2906 3.302-2.0269 4.7711-0.36814 0.73458-0.75164 1.4408-1.1515 2.1204-0.39991 0.67958-0.81597 1.3324-1.2489 1.9618-0.43291 0.6294-0.88288 1.2349-1.35 1.819-0.46712 0.58403-0.95173 1.1466-1.4543 1.69-0.77072 0.83346-1.5659 1.6172-2.3947 2.3543s-1.691 1.4276-2.5957 2.0762c-0.90477 0.64858-1.8525 1.2547-2.8511 1.8228-0.99856 0.56809-2.048 1.0984-3.1582 1.594-1.1102 0.49557-2.2813 0.95689-3.521 1.3879-1.2398 0.43103-2.5485 0.83145-3.9356 1.2059-1.3871 0.37445-2.8522 0.72269-4.4046 1.0485-1.5523 0.32583-3.1918 0.62934-4.9273 0.91453-1.1666 0.19172-2.8747 0.4076-4.8691 0.62507s-4.2748 0.43659-6.5863 0.63582c-2.3115 0.19922-4.654 0.37813-6.7721 0.5151-1.0272 0.06642-1.7392 0.08357-2.6317 0.12767v0.57008c0.91677 0.05767 1.6719 0.08768 2.6671 0.16054 2.3681 0.17335 4.9065 0.38479 7.3681 0.6118 2.4616 0.22701 4.8464 0.4696 6.9074 0.70471 2.061 0.2351 3.7978 0.46284 4.9639 0.66046 1.4734 0.2497 2.8934 0.52242 4.2611 0.81973 1.3677 0.29731 2.6837 0.61952 3.9495 0.96826 1.2658 0.34874 2.4816 0.72417 3.6493 1.1282 1.1677 0.40399 2.2871 0.83637 3.3605 1.2994s2.1007 0.95676 3.0836 1.4827c0.98288 0.52596 1.9214 1.0841 2.8176 1.6768 0.89618 0.59268 1.7496 1.2196 2.5628 1.8828 0.8133 0.66322 1.5866 1.3626 2.3208 2.1002 0.73421 0.73758 1.4293 1.5132 2.0882 2.329 0.65892 0.81576 1.2815 1.672 1.8689 2.5698 0.58744 0.89777 1.1399 1.8371 1.6597 2.8207 0.51977 0.9836 1.0066 2.011 1.4625 3.0843 0.45589 1.0732 0.88086 2.1925 1.2767 3.3592 0.39583 1.1667 0.76268 2.3809 1.1022 3.6449 0.33957 1.264 0.65207 2.5781 0.93918 3.9432s0.54904 2.7816 0.78749 4.2516c0.23166 1.4282 0.47985 3.3136 0.7243 5.4316s0.4849 4.4686 0.70092 6.8265c0.21601 2.3579 0.4073 4.7237 0.55364 6.8714 0.09221 1.3532 0.12702 2.3823 0.17823 3.5065h0.44115c0.12181-2.7638 0.25995-5.5475 0.48919-8.2934 0.2866-3.4331 0.64942-6.797 1.0706-9.9524 0.42123-3.1554 0.9007-6.1027 1.4195-8.703 0.25941-1.3001 0.52896-2.5134 0.80583-3.6228 0.27686-1.1093 0.56102-2.1145 0.8507-2.9983 0.32109-0.97965 0.66083-1.9276 1.0207-2.8447 0.35988-0.91718 0.73969-1.8036 1.1408-2.6602 0.40111-0.85655 0.82372-1.6836 1.2685-2.4813 0.44475-0.79777 0.91164-1.5667 1.4025-2.3075 0.49082-0.74083 1.0054-1.4537 1.5447-2.1394 0.53931-0.68572 1.1036-1.3439 1.6938-1.9763 0.59022-0.63247 1.2064-1.2392 1.8499-1.8202 0.64356-0.58105 1.3143-1.1364 2.0136-1.6679 0.69932-0.53147 1.4274-1.0388 2.1849-1.5225 0.75751-0.48374 1.5444-0.94438 2.3625-1.3822 0.81812-0.43785 1.6672-0.85318 2.5483-1.247 0.88114-0.3938 1.7945-0.76582 2.7411-1.1174s1.9263-0.6823 2.9408-0.99354c1.0145-0.31124 2.0639-0.60327 3.1487-0.87598 2.1696-0.54543 4.4819-1.0152 6.9472-1.4176 1.1938-0.19486 2.9551-0.42012 5.0328-0.65288 2.0777-0.23276 4.4716-0.47288 6.932-0.69775 3.5098-0.32078 6.6144-0.5086 9.6661-0.70028v-0.62507c-1.0341-0.04803-1.9332-0.0702-3.0994-0.14663-2.2107-0.14487-4.603-0.33602-6.963-0.55302-2.36-0.217-4.688-0.46042-6.7715-0.71039-2.0834-0.24998-3.9223-0.50643-5.3033-0.75021-1.4568-0.25718-2.8593-0.53538-4.2099-0.83616-1.3506-0.30079-2.6486-0.62417-3.8971-0.97268-1.2484-0.34851-2.4471-0.72212-3.5975-1.1225-1.1503-0.40035-2.2522-0.82735-3.3086-1.2836-1.0564-0.45629-2.0671-0.94173-3.0337-1.4581-0.96656-0.51634-1.8893-1.0634-2.7701-1.6439-0.88085-0.58051-1.72-1.1942-2.5192-1.843-0.79924-0.64879-1.5586-1.3329-2.2803-2.0541-0.72175-0.72117-1.4057-1.4795-2.0541-2.2772-0.64836-0.79767-1.2607-1.6347-1.8398-2.5129-0.57911-0.87827-1.1249-1.7977-1.6388-2.7607-0.51396-0.96298-0.99632-1.9699-1.4492-3.0217-0.45292-1.0518-0.87627-2.1487-1.2723-3.2935-0.39599-1.1447-0.76476-2.3367-1.1079-3.5785-0.34318-1.2418-0.66113-2.5332-0.95561-3.8762-0.29448-1.3429-0.56542-2.7377-0.81532-4.1859-0.2415-1.3996-0.4948-3.232-0.74073-5.2926s-0.48434-4.3489-0.69711-6.6621c-0.21279-2.3132-0.39954-4.6511-0.54165-6.8088-0.06017-0.91351-0.07301-1.5922-0.1157-2.4257z" fill="url(#b)"/>
</g>
</svg>
