<?xml version="1.0" encoding="UTF-8"?>
<svg width="512" height="512" version="1.1" viewBox="0 0 512 512" xml:space="preserve" xmlns="http://www.w3.org/2000/svg" xmlns:xlink="http://www.w3.org/1999/xlink"><defs><linearGradient id="b" x1="265.79" x2="259.6" y1="468.34" y2="232.35" gradientTransform="matrix(.97992 0 0 -.97992 4.9118 507.09)" gradientUnits="userSpaceOnUse"><stop stop-color="#a0a0a0" offset="0"/><stop offset=".67247"/></linearGradient><linearGradient id="a" x1="57.7" x2="469.93" y1="345.83" y2="345.83" gradientTransform="matrix(1.0115 0 0 .93768 -10.38 28.245)" gradientUnits="userSpaceOnUse"><stop stop-color="#824ec9" offset=".10196"/><stop stop-color="#2b63b7" offset=".17315"/><stop stop-color="#0bc6b8" offset=".3224"/><stop stop-color="#09f318" offset=".46088"/><stop stop-color="#c0db0a" offset=".60644"/><stop stop-color="#f6b605" offset=".72832"/><stop stop-color="#f7480a" offset=".86726"/><stop stop-color="#881414" offset="1"/></linearGradient></defs><path d="m36 476h440v-440h-440z" fill="url(#b)" stop-color="#000000" stroke="#000" stroke-linecap="square" stroke-width="24" style="paint-order:markers fill stroke"/><g fill="#fff"><path d="m254.41 99.79a30.93 29.84 0 0 1-30.93 29.84 30.93 29.84 0 0 1-30.93-29.84 30.93 29.84 0 0 1 30.93-29.84 30.93 29.84 0 0 1 30.93 29.84z" stop-color="#000000" stroke-width="11.779" style="paint-order:markers fill stroke"/><path d="m85.33 199.64a8.0341 7.7512 0 0 1-8.0341 7.7512 8.0341 7.7512 0 0 1-8.0341-7.7512 8.0341 7.7512 0 0 1 8.0341-7.7512 8.0341 7.7512 0 0 1 8.0341 7.7512z" stop-color="#000000" stroke-width="3.0597" style="paint-order:markers fill stroke"/><path d="m302.23 155.79a8.0341 7.7512 0 0 1-8.0341 7.7512 8.0341 7.7512 0 0 1-8.0341-7.7512 8.0341 7.7512 0 0 1 8.0341-7.7512 8.0341 7.7512 0 0 1 8.0341 7.7512z" stop-color="#000000" stroke-width="3.0597" style="paint-order:markers fill stroke"/><path d="m446.35 191.53a9.6747 9.3339 0 0 1-9.6747 9.3339 9.6747 9.3339 0 0 1-9.6747-9.3339 9.6747 9.3339 0 0 1 9.6747-9.3339 9.6747 9.3339 0 0 1 9.6747 9.3339z" stop-color="#000000" stroke-width="3.6845" style="paint-order:markers fill stroke"/><path d="m242.84 177.21a11.496 11.091 0 0 1-11.496 11.091 11.496 11.091 0 0 1-11.496-11.091 11.496 11.091 0 0 1 11.496-11.091 11.496 11.091 0 0 1 11.496 11.091z" stop-color="#000000" stroke-width="4.378" style="paint-order:markers fill stroke"/><path d="m449.37 83.088a23.751 22.913 0 0 1-23.751 22.913 23.751 22.913 0 0 1-23.751-22.913 23.751 22.913 0 0 1 23.751-22.913 23.751 22.913 0 0 1 23.751 22.913z" stop-color="#000000" stroke-width="9.0446" style="paint-order:markers fill stroke"/><path d="m189.38 204.54a17.901 17.27 0 0 1-17.901 17.27 17.901 17.27 0 0 1-17.901-17.27 17.901 17.27 0 0 1 17.901-17.27 17.901 17.27 0 0 1 17.901 17.27z" stop-color="#000000" stroke-width="6.8172" style="paint-order:markers fill stroke"/><path d="m296.75 228.03a17.901 17.27 0 0 1-17.901 17.27 17.901 17.27 0 0 1-17.901-17.27 17.901 17.27 0 0 1 17.901-17.27 17.901 17.27 0 0 1 17.901 17.27z" stop-color="#000000" stroke-width="6.8172" style="paint-order:markers fill stroke"/><g transform="matrix(3.1869 -.58741 .57287 3.108 81.059 68.87)" stroke-width="1.6062"><path d="m8.871 0.92069c2.573-0.0062 3.1214 8.6976 4.4079 9.8157s10.157-0.9442 10.586 1.2299c0.4288 2.1741-6.9029 5.7268-7.6381 7.4661s3.4427 9.1014 1.9111 10.406c-1.5316 1.3045-7.3676-5.0569-9.2667-5.0569s-7.6128 5.9887-9.1443 4.8706c-1.5316-1.1181 2.2787-8.7128 1.7886-10.328s-8.1047-5.2458-7.638-7.3578 8.9928-0.0496 10.402-1.1056c1.409-1.0561 2.4476-9.8779 4.5918-9.94" fill="#fff" fill-rule="evenodd" stroke-width="1.2998"/></g><g transform="matrix(2.862 .51309 -.50038 2.7911 359.57 110.39)" stroke-width="1.6062"><path d="m8.871 0.92069c2.573-0.0062 3.1214 8.6976 4.4079 9.8157s10.157-0.9442 10.586 1.2299c0.4288 2.1741-6.9029 5.7268-7.6381 7.4661s3.4427 9.1014 1.9111 10.406c-1.5316 1.3045-7.3676-5.0569-9.2667-5.0569s-7.6128 5.9887-9.1443 4.8706c-1.5316-1.1181 2.2787-8.7128 1.7886-10.328s-8.1047-5.2458-7.638-7.3578 8.9928-0.0496 10.402-1.1056c1.409-1.0561 2.4476-9.8779 4.5918-9.94" fill="#fff" fill-rule="evenodd" stroke-width="1.2998"/></g><path d="m341.08 85.212a23.896 23.052 0 0 1-23.896 23.052 23.896 23.052 0 0 1-23.895-23.052 23.896 23.052 0 0 1 23.895-23.052 23.896 23.052 0 0 1 23.896 23.052z" stop-color="#000000" stroke-width="9.1004" style="paint-order:markers fill stroke"/><path d="m418.28 240.08a11.496 11.091 0 0 1-11.496 11.091 11.496 11.091 0 0 1-11.496-11.091 11.496 11.091 0 0 1 11.496-11.091 11.496 11.091 0 0 1 11.496 11.091z" stop-color="#000000" stroke-width="4.378" style="paint-order:markers fill stroke"/></g><path d="m48 463.98c32.061 0.0911 35.11-245.62 56.916-217.95 13.94 17.694 14.302 139.12 33.558 172.27 19.271 33.166 25.441-92.592 40.588-109.07s21.703 150.93 40.173 133.85c13.132-12.142 19.49-131.58 33.016-82.336 13.526 49.245 20.361 92.197 31.925 65.255 13.953-32.509 18.183-162.29 36.472-93.495 18.66 70.19 15.09 98.552 32.111 91.402 17.215-7.2307 16.681-137.39 26.5-133.07 9.9223 4.3627 16.275 124.84 34.483 110.2 8.5586-6.8782 12.359-108.2 22.278-59.454 8.3052 40.813 17.054 119.27 27.979 122.4z" fill="url(#a)" stroke="#000" stroke-width=".9739px"/></svg>
