<?xml version="1.0" encoding="UTF-8"?>
<svg width="512" height="512" version="1.1" viewBox="0 0 135.47 135.47" xmlns="http://www.w3.org/2000/svg"><defs><linearGradient id="b" x1="8.4877" x2="128.23" y1="7.8619" y2="127.6" gradientTransform="translate(-.2478)" gradientUnits="userSpaceOnUse"><stop stop-color="#000002" offset="0"/><stop stop-color="#00f" offset="1"/></linearGradient><linearGradient id="a" x1="24.679" x2="24.739" y1="-13.853" y2="9.4776" gradientTransform="matrix(3.0933 0 0 1.0648 -8.9637 118.41)" gradientUnits="userSpaceOnUse"><stop stop-color="#0d0d0d" offset="0"/><stop stop-color="#fff" stop-opacity="0" offset="1"/></linearGradient><linearGradient id="c" x1="69.234" x2="43.728" y1="48.525" y2="74.512" gradientTransform="matrix(1.0382 0 0 1.2005 -128.74 -9.7889)" gradientUnits="userSpaceOnUse"><stop stop-color="#1b2036" offset="0"/><stop stop-color="#008bff" offset="1"/></linearGradient></defs><rect x="6.35" y="6.35" width="122.77" height="122.77" fill="url(#b)"/><g fill="#fff"><circle cx="118.08" cy="20.889" r="3.175"/><circle cx="16.014" cy="39.062" r="3.175"/><circle cx="85.757" cy="16.396" r="3.9688"/><path d="m105.7 29.691c0.78918 0.41293-0.59633 3.0673-0.40189 3.6044 0.19443 0.53708 3.2789 1.3599 3.0222 2.0699-0.2567 0.71004-3.1359 0.5748-3.6714 0.96894-0.53554 0.39414-0.56999 3.2382-1.2718 3.3757-0.70183 0.13754-1.3537-2.679-1.9353-2.9853-0.58156-0.30629-3.4 0.53751-3.6695-0.03917-0.26947-0.57662 2.2527-2.2008 2.3908-2.756 0.1381-0.55511-1.5457-2.8535-1.0259-3.4009 0.51982-0.5473 2.7627 1.4358 3.3827 1.3518 0.61995-0.08406 2.5124-2.5171 3.1801-2.1895" fill-rule="evenodd" stroke-width="2.937"/><circle cx="26.196" cy="24.074" r="2.6458"/><ellipse cx="119.76" cy="47.568" rx="3.6607" ry="3.5004"/><circle cx="16.237" cy="16.073" r="3.4396"/><circle cx="44.719" cy="76.232" r="3.175"/><path d="m23.398 64.885c0.6708 0.36946-0.50689 2.7444-0.34162 3.225 0.16527 0.48054 2.7871 1.2167 2.5689 1.852s-2.6655 0.5143-3.1207 0.86694c-0.45521 0.35266-0.48449 2.8973-1.081 3.0203-0.59655 0.12306-1.1507-2.397-1.645-2.671-0.49434-0.27405-2.89 0.48093-3.1191-0.035-0.22906-0.51593 1.9148-1.9692 2.0322-2.4659 0.11741-0.49668-1.3139-2.5532-0.87201-3.0429 0.44185-0.48969 2.3483 1.2847 2.8753 1.2095 0.52696-0.0752 2.1355-2.2521 2.7031-1.959" fill-rule="evenodd" stroke-width="2.5613"/></g><rect x="6.35" y="102.66" width="122.77" height="26.458" fill="url(#a)" opacity=".92575"/><circle cx="114.25" cy="79.172" r="2.6458" fill="#fff"/><g transform="matrix(1.0292 0 0 1.0292 147.84 14.907)" stroke="#fff" stroke-linecap="round"><g fill="#fff"><path d="m-75.841 57.217c-24.813 24.167-24.823 24.178-24.823 24.178" stroke-width="6.1696"/><path d="m-38.107 81.298c-22.945-24.431-22.954-24.441-22.954-24.441" stroke-width="6.1696"/><path d="m-68.548 78.143c-4e-6 -16.991-4e-6 -16.998-4e-6 -16.998" stroke-width="5.6554"/></g><ellipse cx="-68.548" cy="54.701" rx="6.4989" ry="6.4989" fill="none" stroke-width="5.7876"/></g><g transform="matrix(.72743 .34532 -.38751 .9565 126.74 48.617)"><ellipse transform="matrix(.88679 .46217 -.48852 .87255 0 0)" cx="-70.795" cy="62.515" rx="21.621" ry="25.001" fill="url(#c)" stroke="#fff" stroke-linecap="round" stroke-width="7.9393"/></g><g fill="#fff"><path d="m52.817 22.41c0.69042 0.38026-0.52171 2.8247-0.35161 3.3193 0.1701 0.49459 2.8686 1.2523 2.644 1.9062-0.22458 0.65388-2.7435 0.52934-3.212 0.89229-0.46852 0.36297-0.49866 2.9821-1.1126 3.1087-0.614 0.12666-1.1843-2.4671-1.6931-2.7492-0.5088-0.28206-2.9746 0.49499-3.2103-0.03602-0.23576-0.53102 1.9708-2.0268 2.0916-2.538 0.12084-0.5112-1.3523-2.6278-0.89751-3.1319 0.45477-0.50401 2.417 1.3222 2.9594 1.2449 0.54237-0.0774 2.198-2.318 2.7821-2.0163" fill-rule="evenodd" stroke-width="2.6362"/><circle cx="42.124" cy="37.991" r="3.404"/><ellipse cx="59.233" cy="34.981" rx="2.8371" ry="2.7129"/><ellipse cx="51.091" cy="50.125" rx="2.2037" ry="2.1072"/><path d="m95.106 74.511 4.9395 1.3513c5.492 0.84277 9.9612-14.237 8.6221-15.43l-4.6625-4.5924c-1.58 7.0169-4.6761 13.393-8.8992 18.671z" stroke-width="0"/><path d="m93.549 45.552 5.4511 5.3753c-0.38108 6.6432-4.0066 15.559-10.217 21.874l-7.7981-2.1077c6.5334-7.3068 10.347-13.572 12.564-25.142z"/><path d="m79.521 31.738 8.2687 8.1415c0.40334 8.8202-3.706 20.768-14.145 28.852l-12.145-3.3129c7.4321-6.206 16.314-15.269 18.022-33.681z"/></g><g transform="matrix(.62635 .29734 -.33366 .82358 116.13 47.04)" fill="none" stroke="#000" stroke-width="3.1055"><ellipse transform="matrix(.88679 .46217 -.48852 .87255 0 0)" cx="-70.795" cy="62.515" rx="21.621" ry="25.001" fill="none" stroke="#000" stroke-linecap="round" stroke-width="3.1062"/></g><g transform="translate(.21076 -.107)"><g transform="translate(-1.0305 .24863)" fill="#fff" stroke-width="6.6146"><path d="m25.028 106.59v18.521" stroke="#ffe065"/><path d="m15.767 115.85h18.521" stroke="#ffe167"/></g><g transform="translate(-7.0976 -.21399)" fill="#fff" stroke="#cf0" stroke-width="6.6146"><path d="m58.839 110.15h26.458"/><path d="m58.839 122.05h26.458"/></g><circle cx="101.98" cy="111.92" r="5.2917" fill="#3dffdc"/><circle cx="115.02" cy="119.86" r="5.2917" fill="#ffb0f0"/></g></svg>
