<?xml version="1.0" encoding="UTF-8"?>
<svg width="512" height="512" version="1.1" viewBox="0 0 135.47 135.47" xmlns="http://www.w3.org/2000/svg" xmlns:xlink="http://www.w3.org/1999/xlink"><defs><linearGradient id="b" x1="27.276" x2="27.293" y1="93.014" y2="105.19" gradientTransform="translate(.24781)" gradientUnits="userSpaceOnUse"><stop stop-color="#fff" offset="0"/><stop stop-color="#fff" stop-opacity="0" offset="1"/></linearGradient><linearGradient id="a" x1="26.488" x2="26.549" y1="94.232" y2="106.18" gradientTransform="translate(.24781)" gradientUnits="userSpaceOnUse"><stop offset="0"/><stop stop-color="#666" stop-opacity="0" offset="1"/></linearGradient><linearGradient id="h" x1="69.234" x2="43.728" y1="48.525" y2="74.512" gradientTransform="matrix(1.0382 0 0 1.2005 -128.74 -9.7889)" gradientUnits="userSpaceOnUse"><stop stop-color="#1b2036" offset="0"/><stop stop-color="#008bff" offset="1"/></linearGradient><linearGradient id="f" x1="-10.64" x2="2.4846" y1="375.27" y2="387.39" gradientTransform="matrix(.65905 0 0 .65905 -26.185 -191.94)" gradientUnits="userSpaceOnUse"><stop stop-color="#f00" offset="0"/><stop stop-color="#f60" stop-opacity=".4926" offset="1"/></linearGradient><linearGradient id="e" x1="-10.048" x2="2.5868" y1="375.19" y2="387.42" gradientTransform="matrix(.65905 0 0 .65905 -15.827 -191.94)" gradientUnits="userSpaceOnUse"><stop stop-color="#ff0" offset="0"/><stop stop-color="#ffb200" stop-opacity=".49724" offset="1"/></linearGradient><linearGradient id="d" x1="-10.243" x2="2.5754" y1="375.23" y2="387.6" gradientTransform="matrix(.65905 0 0 .65905 -26.185 -181.75)" gradientUnits="userSpaceOnUse"><stop stop-color="#0f0" offset="0"/><stop stop-color="#23ff00" stop-opacity=".50033" offset="1"/></linearGradient><linearGradient id="c" x1="-9.873" x2="2.4366" y1="374.73" y2="387.45" gradientTransform="matrix(.65905 0 0 .65905 -15.827 -181.54)" gradientUnits="userSpaceOnUse"><stop stop-color="#00f" offset="0"/><stop stop-color="#007fff" stop-opacity=".49346" offset="1"/></linearGradient><linearGradient id="g" x1="24.679" x2="24.739" y1="-13.853" y2="9.4776" gradientTransform="matrix(3.0933 0 0 1.0648 -163.97 117.79)" gradientUnits="userSpaceOnUse"><stop stop-color="#0d0d0d" offset="0"/><stop stop-color="#fff" stop-opacity="0" offset="1"/></linearGradient></defs><path d="m6.35 6.35h122.77v122.77h-122.77z" fill="#00f"/><path d="m46.038 109.27a19.844 19.844 0 0 1-19.844 19.844 19.844 19.844 0 0 1-19.844-19.844 19.844 19.844 0 0 1 19.844-19.844 19.844 19.844 0 0 1 19.844 19.844z" fill="url(#b)"/><path d="m43.182 109.27a16.988 16.988 0 0 1-16.988 16.988 16.988 16.988 0 0 1-16.988-16.988 16.988 16.988 0 0 1 16.988-16.988 16.988 16.988 0 0 1 16.988 16.988z" fill="url(#a)"/><g transform="translate(41.722 40.81)"><g transform="translate(31.837 -50.251)"><g transform="matrix(.39904 0 0 .39904 2.8333 -6.5308)"><g transform="matrix(2.0883 0 0 2.0883 -208.77 36.742)"><path d="m163.24 82.852a23.812 23.812 0 0 1-23.812 23.812 23.812 23.812 0 0 1-23.812-23.812 23.812 23.812 0 0 1 23.812-23.812 23.812 23.812 0 0 1 23.812 23.812z" fill="#fff"/><path d="m159.81 82.852a20.386 20.386 0 0 1-20.386 20.386 20.386 20.386 0 0 1-20.386-20.386 20.386 20.386 0 0 1 20.386-20.386 20.386 20.386 0 0 1 20.386 20.386z"/></g></g><path d="m24.12 78.255c-6.6168-6.2645 4.2194-16.41 8.8531-7.3243-0.52558-5.887 8.8635-7.9182 10.64 0.10924 3.1974-1.769 7.6868 0.44345 5.8353 6.1734-0.82202 2.1118-4.5874 6.7284-12.896 1.6267-3.7684-2.1029-8.3108 3.7034-12.433-0.58496z" fill="#fff" stroke="#fff" stroke-width="1.5837"/></g><path d="m64.715 31.686c-1.371 1.4698-2.0904 3.7905-2.051 5.393-0.03288 3.5888 3.4833 5.1573 3.7532-0.0507 0.01117-2.583-0.71533-3.2262-1.554-4.9902z" fill="#0082ff" stroke="#fff" stroke-width="1.3229"/><path d="m72.149 33.986c-0.86765 0.93021-1.323 2.399-1.2981 3.4131-0.02082 2.2713 2.2045 3.264 2.3753-0.03209 0.0071-1.6347-0.45271-2.0418-0.98346-3.1582z" fill="#0082ff" stroke="#fff" stroke-width=".83725"/></g><path d="m46.038 67.733a19.844 19.844 0 0 1-19.844 19.844 19.844 19.844 0 0 1-19.844-19.844 19.844 19.844 0 0 1 19.844-19.844 19.844 19.844 0 0 1 19.844 19.844z" fill="#fff"/><path d="m43.182 67.733a16.988 16.988 0 0 1-16.988 16.988 16.988 16.988 0 0 1-16.988-16.988 16.988 16.988 0 0 1 16.988-16.988 16.988 16.988 0 0 1 16.988 16.988z"/><g transform="translate(-.38023 .093225)"><path d="m26.624 61.028v10.358" fill="#f95" stroke="#fff" stroke-width="3.9688"/><path d="m33.749 61.855h-14.966" fill-opacity="0" stroke="#fff" stroke-width="3.9688"/><path d="m33.248 56.747v10.216l5.9879-4.9864z" fill="#fff"/><path d="m15.602 55.951c2.4454 4.0155 2.9337 7.9671 0 11.807l8.4466-5.763z" fill="#fff"/></g><path d="m17.656 71.618h17.075v12.581h-17.075z" fill="#fff" stroke="#fff" stroke-linecap="round" stroke-width="1.5815"/><g transform="scale(1.0864 .92051)" fill="#ff1717" stroke="#ff1717" stroke-width=".27281" style="font-variant-caps:normal;font-variant-east_asian:normal;font-variant-ligatures:normal;font-variant-numeric:normal" aria-label="Cº"><path d="m21.815 88.034q1.8397 0 2.5563-1.8466l1.7708 0.66835q-0.57188 1.4056-1.6812 2.0946-1.1024 0.68213-2.6458 0.68213-2.3427 0-3.6242-1.3229-1.2747-1.3298-1.2747-3.7138 0-2.3909 1.2333-3.6725t3.576-1.2816q1.7088 0 2.7836 0.68902 1.0749 0.68213 1.509 2.0119l-1.7914 0.4892q-0.22738-0.73036-0.89572-1.1576-0.66146-0.43408-1.5641-0.43408-1.378 0-2.0946 0.85438-0.70969 0.85438-0.70969 2.5011 0 1.6743 0.73036 2.5563 0.73725 0.88194 2.1222 0.88194z" style="font-variant-caps:normal;font-variant-east_asian:normal;font-variant-ligatures:normal;font-variant-numeric:normal"/><path d="m31.448 82.102q0 1.1162-0.62012 1.757-0.61323 0.64079-1.7088 0.64079-1.0473 0-1.6605-0.6339-0.61323-0.6339-0.61323-1.7639 0-1.1162 0.60634-1.7501t1.695-0.6339q1.1024 0 1.7019 0.61323 0.59945 0.61323 0.59945 1.7708zm-1.378 0q0-0.73036-0.20671-1.0611-0.19982-0.33762-0.7028-0.33762t-0.73036 0.34451q-0.22049 0.33762-0.22049 1.0542 0 0.73036 0.22049 1.0818 0.22049 0.3514 0.68213 0.3514 0.51676 0 0.73725-0.34451 0.22049-0.3514 0.22049-1.0886z" style="font-variant-caps:normal;font-variant-east_asian:normal;font-variant-ligatures:normal;font-variant-numeric:normal"/></g><g transform="translate(-162.12 -141.89)"><path d="m249.7 168.08a19.844 19.844 0 0 1-19.844 19.844 19.844 19.844 0 0 1-19.844-19.844 19.844 19.844 0 0 1 19.844-19.844 19.844 19.844 0 0 1 19.844 19.844z" fill="#fff"/><path d="m246.84 168.08a16.988 16.988 0 0 1-16.988 16.988 16.988 16.988 0 0 1-16.988-16.988 16.988 16.988 0 0 1 16.988-16.988 16.988 16.988 0 0 1 16.988 16.988z"/><g stroke-linecap="round"><path d="m241.79 168.31a11.935 10.972 0 0 1-11.935 10.972 11.935 10.972 0 0 1-11.935-10.972 11.935 10.972 0 0 1 11.935-10.972 11.935 10.972 0 0 1 11.935 10.972z" fill="#fff" stroke="#fff" stroke-width="1.5893"/><path d="m229.38 156.83h5.251c1.1083 0 2.0006 0.89228 2.0006 2.0006v15.593c0 1.1083-0.89228 2.0006-2.0006 2.0006h-5.251c-1.1083 0-2.0006-0.89228-2.0006-2.0006v-15.593c0-1.1083 0.89228-2.0006 2.0006-2.0006z" stroke="#000" stroke-width="1.0524"/><path d="m221.43 175.9h16.859v8.6704h-16.859z" fill="#fff" stroke="#fff" stroke-width="1.3045"/></g><path d="m235.64 162.08a3.6342 3.6342 0 0 1-3.6342 3.6342 3.6342 3.6342 0 0 1-3.6342-3.6342 3.6342 3.6342 0 0 1 3.6342-3.6342 3.6342 3.6342 0 0 1 3.6342 3.6342z" fill="#9a9a9a"/><path d="m228.56 157.03c-9.3796 5.9267-9.2504 10.839-5.4734 18.287" fill="none" stroke="#000" stroke-width="1.3026"/><path d="m234.26 160.32a1.3229 1.3229 0 0 1-1.3229 1.3229 1.3229 1.3229 0 0 1-1.3229-1.3229 1.3229 1.3229 0 0 1 1.3229-1.3229 1.3229 1.3229 0 0 1 1.3229 1.3229z" fill="#fff"/><path d="m220.34 176.2 19.032-6e-3" fill="#d38d5f" stroke="#8d61d4" stroke-linecap="round" stroke-width="2.6458"/><path d="m226.23 153.1c0.23675 0.1304-0.1789 0.96863-0.12056 1.1382 0.0583 0.1696 0.98367 0.42943 0.90667 0.65365s-0.94078 0.18152-1.1014 0.30598c-0.16067 0.12447-0.171 1.0226-0.38154 1.066-0.21056 0.0434-0.40612-0.84599-0.58059-0.94272-0.17448-0.0967-1.02 0.16974-1.1008-0.0124-0.0808-0.18209 0.67582-0.695 0.71726-0.87031 0.0414-0.17529-0.46372-0.90112-0.30777-1.074 0.15594-0.17283 0.82882 0.45341 1.0148 0.42688 0.18599-0.0266 0.75371-0.79485 0.95402-0.69142" fill="#fff" fill-rule="evenodd" stroke-width=".90397"/><path d="m217.4 161.8a0.96604 0.93205 0 0 1-0.96603 0.93206 0.96604 0.93205 0 0 1-0.96604-0.93206 0.96604 0.93205 0 0 1 0.96604-0.93205 0.96604 0.93205 0 0 1 0.96603 0.93205z" fill="#fff"/><path d="m224.18 178.85h5.6349v7.2895h-5.6349z"/><path d="m248.31 168.08a18.45 18.45 0 0 1-18.45 18.45 18.45 18.45 0 0 1-18.45-18.45 18.45 18.45 0 0 1 18.45-18.45 18.45 18.45 0 0 1 18.45 18.45z" fill="none" stroke="#fff" stroke-linecap="round" stroke-width="2.788"/></g><path d="m46.038 26.194a19.844 19.844 0 0 1-19.844 19.844 19.844 19.844 0 0 1-19.844-19.844 19.844 19.844 0 0 1 19.844-19.844 19.844 19.844 0 0 1 19.844 19.844z" fill="#fff"/><path d="m43.182 26.216a16.756 16.405 0 0 1-16.756 16.405 16.756 16.405 0 0 1-16.756-16.405 16.756 16.405 0 0 1 16.756-16.405 16.756 16.405 0 0 1 16.756 16.405z" stroke-width="0"/><g fill="#fff"><path d="m30.921 12.09a0.76068 0.72344 0 0 1-0.76068 0.72344 0.76068 0.72344 0 0 1-0.76068-0.72344 0.76068 0.72344 0 0 1 0.76068-0.72344 0.76068 0.72344 0 0 1 0.76068 0.72344z"/><path d="m13.251 29.527a0.97929 0.93134 0 0 1-0.97929 0.93134 0.97929 0.93134 0 0 1-0.97929-0.93134 0.97929 0.93134 0 0 1 0.97929-0.93134 0.97929 0.93134 0 0 1 0.97929 0.93134z"/><path d="m35.16 16.753a1.2309 1.1706 0 0 1-1.2309 1.1706 1.2309 1.1706 0 0 1-1.2309-1.1706 1.2309 1.1706 0 0 1 1.2309-1.1706 1.2309 1.1706 0 0 1 1.2309 1.1706z"/><path d="m18.611 31.938c0.17765 0.09212-0.13424 0.68425-0.09047 0.80407 0.04377 0.11981 0.73809 0.30335 0.68031 0.46175-0.05778 0.15839-0.7059 0.12822-0.82646 0.21615-0.12055 0.08792-0.12831 0.72237-0.28629 0.75303-0.15798 0.03068-0.30473-0.59762-0.43564-0.66595s-0.76536 0.11991-0.82602-0.0087c-0.06066-0.12863 0.50709-0.49096 0.53819-0.61479 0.03109-0.12383-0.34795-0.63656-0.23093-0.75865 0.11701-0.12209 0.6219 0.32029 0.76146 0.30156 0.13955-0.01875 0.56554-0.5615 0.71584-0.48843" fill-rule="evenodd" stroke-width=".65814"/></g><g transform="matrix(.3527 0 0 .35201 .30456 5.4198)"><g transform="matrix(1.0292 0 0 1.0292 147.84 14.907)" stroke="#fff" stroke-linecap="round"><g fill="#fff"><path d="m-75.841 57.217c-24.813 24.167-24.823 24.178-24.823 24.178" stroke-width="6.1696"/><path d="m-38.107 81.298c-22.945-24.431-22.954-24.441-22.954-24.441" stroke-width="6.1696"/><path d="m-68.548 78.143c-4e-6 -16.991-4e-6 -16.998-4e-6 -16.998" stroke-width="5.6554"/></g><path d="m-62.049 54.701a6.4989 6.4989 0 0 1-6.4989 6.4989 6.4989 6.4989 0 0 1-6.4989-6.4989 6.4989 6.4989 0 0 1 6.4989-6.4989 6.4989 6.4989 0 0 1 6.4989 6.4989z" fill="none" stroke-width="5.7876"/></g><g transform="matrix(.72743 .34532 -.38751 .9565 126.74 48.617)"><path transform="matrix(.88679 .46217 -.48852 .87255 0 0)" d="m-49.173 62.515a21.621 25.001 0 0 1-21.621 25.001 21.621 25.001 0 0 1-21.621-25.001 21.621 25.001 0 0 1 21.621-25.001 21.621 25.001 0 0 1 21.621 25.001z" fill="url(#h)" stroke="#fff" stroke-linecap="round" stroke-width="7.9393"/></g><g fill="#fff"><path d="m52.817 22.41c0.69042 0.38026-0.52171 2.8247-0.35161 3.3193 0.1701 0.49459 2.8686 1.2523 2.644 1.9062-0.22458 0.65388-2.7435 0.52934-3.212 0.89229-0.46852 0.36297-0.49866 2.9821-1.1126 3.1087-0.614 0.12666-1.1843-2.4671-1.6931-2.7492-0.5088-0.28206-2.9746 0.49499-3.2103-0.03602-0.23576-0.53102 1.9708-2.0268 2.0916-2.538 0.12084-0.5112-1.3523-2.6278-0.89751-3.1319 0.45477-0.50401 2.417 1.3222 2.9594 1.2449 0.54237-0.0774 2.198-2.318 2.7821-2.0163" fill-rule="evenodd" stroke-width="2.6362"/><path d="m45.528 37.991a3.404 3.404 0 0 1-3.404 3.404 3.404 3.404 0 0 1-3.404-3.404 3.404 3.404 0 0 1 3.404-3.404 3.404 3.404 0 0 1 3.404 3.404z"/><path d="m62.07 34.981a2.8371 2.7129 0 0 1-2.8371 2.7129 2.8371 2.7129 0 0 1-2.8371-2.7129 2.8371 2.7129 0 0 1 2.8371-2.7129 2.8371 2.7129 0 0 1 2.8371 2.7129z"/><path d="m53.295 50.125a2.2037 2.1072 0 0 1-2.2037 2.1072 2.2037 2.1072 0 0 1-2.2037-2.1072 2.2037 2.1072 0 0 1 2.2037-2.1072 2.2037 2.1072 0 0 1 2.2037 2.1072z"/><path d="m95.106 74.511 4.9395 1.3513c5.492 0.84277 9.9612-14.237 8.6221-15.43l-4.6625-4.5924c-1.58 7.0169-4.6761 13.393-8.8992 18.671z" stroke-width="0"/><path d="m93.549 45.552 5.4511 5.3753c-0.38108 6.6432-4.0066 15.559-10.217 21.874l-7.7981-2.1077c6.5334-7.3068 10.347-13.572 12.564-25.142z"/><path d="m79.521 31.738 8.2687 8.1415c0.40334 8.8202-3.706 20.768-14.145 28.852l-12.145-3.3129c7.4321-6.206 16.314-15.269 18.022-33.681z"/></g><g transform="matrix(.62635 .29734 -.33366 .82358 116.13 47.04)" fill="none" stroke="#000" stroke-width="3.1055"><path transform="matrix(.88679 .46217 -.48852 .87255 0 0)" d="m-49.173 62.515a21.621 25.001 0 0 1-21.621 25.001 21.621 25.001 0 0 1-21.621-25.001 21.621 25.001 0 0 1 21.621-25.001 21.621 25.001 0 0 1 21.621 25.001z" fill="none" stroke="#000" stroke-linecap="round" stroke-width="3.1062"/></g></g><g transform="translate(91.253 3.3214)"><path d="m-3.676 64.412a19.844 19.844 0 0 1-19.844 19.844 19.844 19.844 0 0 1-19.844-19.844 19.844 19.844 0 0 1 19.844-19.844 19.844 19.844 0 0 1 19.844 19.844z" fill="#fff"/><path d="m-6.5313 64.412a16.988 16.988 0 0 1-16.988 16.988 16.988 16.988 0 0 1-16.988-16.988 16.988 16.988 0 0 1 16.988-16.988 16.988 16.988 0 0 1 16.988 16.988z"/><path d="m-22.508 59.211a6.1909 6.1866 0 0 1-6.1909 6.1866 6.1909 6.1866 0 0 1-6.1909-6.1866 6.1909 6.1866 0 0 1 6.1909-6.1866 6.1909 6.1866 0 0 1 6.1909 6.1866z" fill="url(#f)" opacity=".89207" stroke="#000" stroke-linecap="round" stroke-width="2.1167"/><g transform="matrix(.67581 0 0 .67721 -47.44 39.097)" stroke-width="2.7377"><path d="m37.126 29.701a9.3937 9.3872 0 0 1-9.3937 9.3872 9.3937 9.3872 0 0 1-9.3937-9.3872 9.3937 9.3872 0 0 1 9.3937-9.3872 9.3937 9.3872 0 0 1 9.3937 9.3872z" fill="none" stroke="#fff" stroke-linecap="round" stroke-opacity=".99743" stroke-width="2.7377"/></g><path d="m-12.15 59.211a6.1909 6.1866 0 0 1-6.1909 6.1866 6.1909 6.1866 0 0 1-6.1909-6.1866 6.1909 6.1866 0 0 1 6.1909-6.1866 6.1909 6.1866 0 0 1 6.1909 6.1866z" fill="url(#e)" stroke="#000" stroke-linecap="round" stroke-width="2.1167"/><g transform="matrix(.67581 0 0 .67721 -37.082 39.097)" stroke-width="2.7377"><path d="m37.126 29.701a9.3937 9.3872 0 0 1-9.3937 9.3872 9.3937 9.3872 0 0 1-9.3937-9.3872 9.3937 9.3872 0 0 1 9.3937-9.3872 9.3937 9.3872 0 0 1 9.3937 9.3872z" fill="none" stroke="#fff" stroke-linecap="round" stroke-opacity=".99743" stroke-width="2.7377"/></g><path d="m-22.508 69.403a6.1909 6.1866 0 0 1-6.1909 6.1866 6.1909 6.1866 0 0 1-6.1909-6.1866 6.1909 6.1866 0 0 1 6.1909-6.1866 6.1909 6.1866 0 0 1 6.1909 6.1866z" fill="url(#d)" stroke="#000" stroke-linecap="round" stroke-width="2.1167"/><g transform="matrix(.67581 0 0 .67721 -47.44 49.289)" stroke-width="2.7377"><path d="m37.126 29.701a9.3937 9.3872 0 0 1-9.3937 9.3872 9.3937 9.3872 0 0 1-9.3937-9.3872 9.3937 9.3872 0 0 1 9.3937-9.3872 9.3937 9.3872 0 0 1 9.3937 9.3872z" fill="none" stroke="#fff" stroke-linecap="round" stroke-opacity=".99743" stroke-width="2.7377"/></g><path d="m-12.15 69.613a6.1909 6.1866 0 0 1-6.1909 6.1866 6.1909 6.1866 0 0 1-6.1909-6.1866 6.1909 6.1866 0 0 1 6.1909-6.1866 6.1909 6.1866 0 0 1 6.1909 6.1866z" fill="url(#c)" stroke="#000" stroke-linecap="round" stroke-width="2.1167"/><path d="m-11.992 69.613a6.3484 6.3571 0 0 1-6.3484 6.3571 6.3484 6.3571 0 0 1-6.3484-6.3571 6.3484 6.3571 0 0 1 6.3484-6.3571 6.3484 6.3571 0 0 1 6.3484 6.3571z" fill="none" stroke="#fff" stroke-linecap="round" stroke-opacity=".99743" stroke-width="1.8521"/></g><g transform="translate(41.54)"><path d="m46.038 109.27a19.844 19.844 0 0 1-19.844 19.844 19.844 19.844 0 0 1-19.844-19.844 19.844 19.844 0 0 1 19.844-19.844 19.844 19.844 0 0 1 19.844 19.844z" fill="url(#b)"/><path d="m43.182 109.27a16.988 16.988 0 0 1-16.988 16.988 16.988 16.988 0 0 1-16.988-16.988 16.988 16.988 0 0 1 16.988-16.988 16.988 16.988 0 0 1 16.988 16.988z" fill="url(#a)"/></g><g transform="translate(83.079)"><path d="m46.038 109.27a19.844 19.844 0 0 1-19.844 19.844 19.844 19.844 0 0 1-19.844-19.844 19.844 19.844 0 0 1 19.844-19.844 19.844 19.844 0 0 1 19.844 19.844z" fill="url(#b)"/><path d="m43.182 109.27a16.988 16.988 0 0 1-16.988 16.988 16.988 16.988 0 0 1-16.988-16.988 16.988 16.988 0 0 1 16.988-16.988 16.988 16.988 0 0 1 16.988 16.988z" fill="url(#a)"/></g><g transform="translate(155.01 .61964)"><path d="m-148.66 102.04h122.77v26.458h-122.77z" fill="url(#g)" opacity=".92575"/><g transform="translate(-154.8 -.72664)"><g transform="translate(-1.0305 .24863)" fill="#fff" stroke-width="6.6146"><path d="m25.028 106.59v18.521" stroke="#ffe065"/><path d="m15.767 115.85h18.521" stroke="#ffe167"/></g><g transform="translate(-7.0976 -.21399)" fill="#fff" stroke="#cf0" stroke-width="6.6146"><path d="m58.839 110.15h26.458"/><path d="m58.839 122.05h26.458"/></g><path d="m107.27 111.92a5.2917 5.2917 0 0 1-5.2917 5.2917 5.2917 5.2917 0 0 1-5.2917-5.2917 5.2917 5.2917 0 0 1 5.2917-5.2917 5.2917 5.2917 0 0 1 5.2917 5.2917z" fill="#3dffdc"/><path d="m120.31 119.86a5.2917 5.2917 0 0 1-5.2917 5.2917 5.2917 5.2917 0 0 1-5.2917-5.2917 5.2917 5.2917 0 0 1 5.2917-5.2917 5.2917 5.2917 0 0 1 5.2917 5.2917z" fill="#ffb0f0"/></g></g><path d="m129.12 26.194a19.844 19.844 0 0 1-19.844 19.844 19.844 19.844 0 0 1-19.844-19.844 19.844 19.844 0 0 1 19.844-19.844 19.844 19.844 0 0 1 19.844 19.844z" fill="#fff"/><path d="m126.26 26.194a16.988 16.988 0 0 1-16.988 16.988 16.988 16.988 0 0 1-16.988-16.988 16.988 16.988 0 0 1 16.988-16.988 16.988 16.988 0 0 1 16.988 16.988z" fill="#0ff"/><g stroke-width="0"><path d="m124.11 17.927c-2.4784-4.4448-6.3661-6.848-9.5762-7.8833l5.4e-4 16.894 10.807-6.2522c-0.34539-0.99613-0.75301-1.9007-1.2314-2.7587z"/><path d="m109.53 9.2085c-5.0885-0.07605-9.1136 2.0893-11.615 4.3516l14.631 8.4467-0.0111-12.485c-1.0354-0.19895-2.0226-0.29822-3.0048-0.31291z"/><path d="m123.87 34.893c2.6049-4.3719 2.7367-8.9405 2.0244-12.237l-14.62 8.4651 10.825 6.22c0.68901-0.79803 1.2676-1.604 1.7705-2.4479z"/><path d="m94.687 17.487c-2.6063 4.371-2.7396 8.9396-2.0284 12.237l14.623-8.4603-10.823-6.2235c-0.68927 0.79778-1.2681 1.6036-1.7713 2.4473z"/><path d="m109.02 43.181c5.0885 0.07437 9.1129-2.0922 11.614-4.3554l-14.634-8.4419 0.0151 12.485c1.0354 0.19859 2.0226 0.29759 3.0049 0.31194z"/><path d="m94.439 34.487c2.4873 4.4398 6.3798 6.8352 9.592 7.8641l-0.0342-16.894-10.794 6.2738c0.34741 0.99544 0.7568 1.8992 1.2369 2.7562z"/></g><path d="m75.004 14.627c5.5726 2.3429 7.9214 7.9093 7.354 12.501" fill="none" stroke="#fff" stroke-linecap="round" stroke-width="1.6269"/></svg>
