<?xml version="1.0" encoding="UTF-8"?>
<svg width="512" height="512" version="1.1" viewBox="0 0 135.47 135.47" xmlns="http://www.w3.org/2000/svg"><defs><linearGradient id="b" x1="6.5978" x2="129.36" y1="6.35" y2="129.12" gradientTransform="translate(-.24781)" gradientUnits="userSpaceOnUse"><stop stop-color="#000002" offset="0"/><stop stop-color="#00f" offset="1"/></linearGradient><linearGradient id="a" x1="24.679" x2="24.739" y1="-13.853" y2="9.4776" gradientTransform="matrix(3.0933 0 0 1.0648 -41.167 197.56)" gradientUnits="userSpaceOnUse"><stop stop-color="#0d0d0d" offset="0"/><stop stop-color="#fff" stop-opacity="0" offset="1"/></linearGradient></defs><rect x="6.35" y="6.35" width="122.77" height="122.77" fill="url(#b)"/><g transform="matrix(1.1823 0 0 1.1823 -4.4006 -2.9609)" stroke-linecap="round" stroke-linejoin="round" stroke-width="3.0679"><rect transform="rotate(26.157)" x="31.372" y="-1.4198" width="26.506" height="31.955" fill="#f00" stroke="#808080"/><rect transform="rotate(26.157)" x="47.752" y="-9.4645" width="26.506" height="31.955" fill="#ff0" stroke="#a1a1a1"/><rect transform="rotate(26.157)" x="64.132" y="-17.509" width="26.506" height="31.955" fill="#0f0" stroke="#c8c8c8" stroke-opacity=".96344"/><rect transform="rotate(26.157)" x="80.512" y="-25.554" width="26.506" height="31.955" fill="#0ff" stroke="#dedede"/></g><g transform="translate(32.204 -79.148)"><rect x="-25.854" y="181.81" width="122.77" height="26.458" fill="url(#a)" opacity=".92575"/><g transform="translate(-31.993 79.041)"><g transform="translate(-1.0305 .24863)" fill="#fff" stroke-width="6.6146"><path d="m25.028 106.59v18.521" stroke="#ffe065"/><path d="m15.767 115.85h18.521" stroke="#ffe167"/></g><g transform="translate(-7.0976 -.21399)" fill="#fff" stroke="#cf0" stroke-width="6.6146"><path d="m58.839 110.15h26.458"/><path d="m58.839 122.05h26.458"/></g><circle cx="101.98" cy="111.92" r="5.2917" fill="#3dffdc"/><circle cx="115.02" cy="119.86" r="5.2917" fill="#ffb0f0"/></g></g><rect x="42.473" y="36.969" width="4.198" height=".84032" fill="none" stroke="#000" stroke-linecap="round" stroke-width="5.5097"/><path d="m67.462 33.729-5.0315 9.8484 28.649-0.018734-4.9768-9.8297z" stroke="#000" stroke-linecap="round" stroke-linejoin="round" stroke-width="6.35"/><g stroke="#fff" stroke-linecap="round"><g transform="translate(-1.3157 2.8372)" fill="#fff"><path d="m62.964 70.651c-25.753 25.681-25.764 25.691-25.764 25.691" stroke-width="6.35"/><path d="m99.798 96.342c-24.654-26.287-24.664-26.298-24.664-26.298" stroke-width="6.35"/><path d="m69.049 92.775v-19.188" stroke-width="5.8208"/></g><path d="m28.399 43.559v43.119h78.67v-43.119z" stroke-linejoin="round" stroke-width="7.9375"/><ellipse cx="67.733" cy="65.118" rx="13.681" ry="13.681" fill="#0ff" stroke-width="3.8593"/></g><circle cx="41.533" cy="56.773" r="4.1301" fill="#fff"/><g transform="matrix(.89088 0 0 .89089 -73.779 3.7369)"><circle cx="158.85" cy="68.898" r="13.364" fill="#0ff"/><g stroke-width="0"><path d="m170.52 62.396c-1.9497-3.4966-5.008-5.3871-7.5333-6.2015l4.2e-4 13.29 8.5015-4.9184c-0.27171-0.78362-0.59237-1.4952-0.96872-2.1702z"/><path d="m159.05 55.537c-4.003-0.05983-7.1694 1.6436-9.1373 3.4232l11.51 6.6447-9e-3 -9.8217c-0.8145-0.1565-1.5911-0.2346-2.3638-0.24615z"/><path d="m170.33 75.742c2.0492-3.4392 2.1529-7.0332 1.5925-9.6267l-11.501 6.6592 8.516 4.8931c0.54203-0.62778 0.99721-1.2618 1.3928-1.9257z"/><path d="m147.37 62.049c-2.0503 3.4386-2.1552 7.0325-1.5956 9.6262l11.504-6.6554-8.5145-4.8959c-0.54223 0.62759-0.99761 1.2615-1.3934 1.9252z"/><path d="m158.65 82.262c4.003 0.0585 7.1688-1.6459 9.1362-3.4262l-11.512-6.641 0.0119 9.8217c0.81456 0.15623 1.5912 0.23411 2.3639 0.2454z"/><path d="m147.18 75.423c1.9567 3.4927 5.0188 5.377 7.5457 6.1864l-0.0269-13.29-8.4916 4.9354c0.2733 0.78308 0.59535 1.494 0.97307 2.1682z"/></g></g></svg>
