<?xml version="1.0" encoding="UTF-8"?>
<svg width="512" height="512" version="1.1" viewBox="0 0 135.47 135.47" xmlns="http://www.w3.org/2000/svg">
<defs>
<linearGradient id="a" x1="92.982" x2="32.369" y1="98.94" y2="39.152" gradientTransform="matrix(1.9333 0 0 1.9333 -21.167 -98.694)" gradientUnits="userSpaceOnUse">
<stop stop-color="#056a05" offset="0"/>
<stop stop-color="#5ac25b" offset="1"/>
</linearGradient>
</defs>
<g transform="translate(-29.482 36.526)">
<g fill="#ffba00">
<g transform="translate(-1.4897e-6)">
<rect x="35.832" y="-30.176" width="122.77" height="122.77" fill="url(#a)" style="paint-order:markers fill stroke"/>
<g transform="translate(-76.805 33.999)" fill="#ffba00" stroke-width=".26458px">
<path d="m119.55-20.172h9.998l12.625 23.809v-23.809h8.4867v34.714h-9.9981l-12.625-23.809v23.809h-8.4867z" />
<path d="m175.31-14.313q-4.0922 0-6.3476 3.0227-2.2554 3.0227-2.2554 8.51 0 5.464 2.2554 8.4867 2.2554 3.0227 6.3476 3.0227 4.1155 0 6.3708-3.0227 2.2554-3.0227 2.2554-8.4867 0-5.4873-2.2554-8.51-2.2554-3.0227-6.3708-3.0227zm0-6.4871q8.3705 0 13.114 4.7898 4.7433 4.7898 4.7433 13.23 0 8.417-4.7433 13.207-4.7433 4.7898-13.114 4.7898-8.3472 0-13.114-4.7898-4.7433-4.7898-4.7433-13.207 0-8.4402 4.7433-13.23 4.7665-4.7898 13.114-4.7898z" />
<path d="m199.91-20.172h14.858q6.6266 0 10.161 2.9529 3.5574 2.9297 3.5574 8.3705 0 5.464-3.5574 8.417-3.5342 2.9297-10.161 2.9297h-5.9058v12.044h-8.9517zm8.9517 6.4871v9.6958h4.9525q2.6041 0 4.0225-1.2556 1.4184-1.2788 1.4184-3.6039 0-2.3251-1.4184-3.5807-1.4183-1.2556-4.0225-1.2556z" />
</g>
</g>
</g>
</g>
</svg>
