<?xml version="1.0" encoding="UTF-8"?>
<svg version="1.1" viewBox="0 0 512 512" xmlns="http://www.w3.org/2000/svg">
<g transform="matrix(1.0361 0 0 1.0361 -9.2317 -17.598)">
<path d="m68.991 279.5h364.76c8.2914 0 15.021 6.7297 15.021 15.021v182.77c0 8.0982-8.6617 13.266-15.794 9.4184l-366.72-196.42c-5.2485-2.8336-3.2361-10.787 2.737-10.787z" fill="#8c53a1" stroke-width="16.1"/>
<path d="m443.01 248.65h-364.76c-8.2914 0-15.021-6.7297-15.021-15.021v-182.77c0-8.0982 8.6617-13.266 15.794-9.4184l366.72 196.42c5.2485 2.8336 3.2361 10.787-2.737 10.787z" fill="#727272" stroke-width="16.1"/>
<path d="m445.82 124.15c1.9321 0 3.3608-1.835 2.8463-3.6979-3.7686-13.656-10.864-26.543-21.307-37.28-16.571-17.039-38.876-26.423-62.808-26.423-20.001 0-41.244 8.8348-57.814 21.931l-3.0988 2.4488v-38.027c0-2.6233-3.1716-3.9364-5.0257-2.0815l-18.979 18.979c-0.55204 0.55204-0.86265 1.3013-0.86265 2.0815v59.124c0 1.6259 1.3183 2.9442 2.9442 2.9442h59.395c0.77284 0 1.514-0.30399 2.0646-0.84572l19.279-18.967c1.8806-1.8504 0.56602-5.05-2.0727-5.0427l-33.031 0.0876 7.8661-5.4254c0.0662-0.0471 0.13837-0.092 0.20977-0.13396 8.9628-5.2789 19.233-8.0685 29.709-8.0685 16.01 0 31.001 6.4698 42.209 18.217 5.237 5.4894 9.1925 11.736 11.891 18.369 0.44752 1.0997 1.5258 1.8092 2.7131 1.8092h23.871z" fill="#336495" stroke-width="7.3605"/>
</g>
</svg>
