<?xml version="1.0" encoding="UTF-8"?>
<svg version="1.1" viewBox="0 0 512 512" xmlns="http://www.w3.org/2000/svg">
<g transform="matrix(14.522 0 0 14.522 23.288 16.387)">
<path d="m0.342 27.996h17.896c0.423 0 0.766-0.401 0.766-0.896v-10.904c0-0.484-0.441-0.792-0.805-0.562l-17.996 11.719c-0.267 0.168-0.165 0.643 0.139 0.643z" fill="#727272"/>
<path d="m21.07 5.343v21.761c0 0.495 0.343 0.896 0.766 0.896h9.618c0.413 0 0.676-0.517 0.48-0.942l-10.314-21.878c-0.145-0.313-0.55-0.193-0.55 0.163z" fill="#8c53a1"/>
<path d="m14.06 6.02c0.16 0 0.314 0.063 0.428 0.176l3.402 3.371c0.217 0.217 0.211 0.562-0.011 0.785l-3.391 3.401c-0.114 0.114-0.269 0.179-0.43 0.179h-1.883c-0.205 0-0.308-0.247-0.163-0.392l2.551-2.556h-3.242c-1.291 0-2.302 1.018-2.302 2.317v2.157c0 0.373-0.118 0.49-0.494 0.49h-1.004c-0.352 0-0.515-0.09-0.515-0.49v-2.157c0-2.347 1.83-4.252 4.169-4.34l6e-3 -1e-3h0.022c0.031 0 0.06 4e-3 0.089 0.011h3.266l-2.535-2.545c-0.149-0.149-0.043-0.404 0.168-0.404h1.869z" fill="#336394"/>
</g>
</svg>
