<?xml version="1.0" encoding="UTF-8"?>
<svg width="512" height="512" version="1.1" viewBox="0 0 135.47 135.47" xmlns="http://www.w3.org/2000/svg">
<defs>
<linearGradient id="a" x1="76.875" x2="199.64" y1="34.355" y2="34.355" gradientUnits="userSpaceOnUse">
<stop stop-color="#271212" offset="0"/>
<stop stop-color="#af0707" offset="1"/>
</linearGradient>
</defs>
<g transform="translate(-69.926 33.313)">
<g transform="translate(-.59902 .064463)">
<rect x="76.875" y="-27.028" width="122.77" height="122.77" fill="url(#a)"/>
<g transform="translate(.52683 -1.161)">
<g fill="#f6a600">
<g>
<path d="m85.07 32.111h8.1594c1.4835 0 2.2995-0.89012 2.6704-1.7802l2.6704-5.9341h20.176l2.6704 5.86c0.66759 1.4094 1.261 1.8544 2.5962 1.8544h8.2336c1.1127 0 1.7061-0.9643 1.261-1.9286l-23.217-49.921c-0.22253-0.44506-0.74177-0.81594-1.261-0.81594h-0.74177c-0.51924 0-1.0385 0.37088-1.261 0.81594l-23.217 49.921c-0.44506 0.9643 0.14835 1.9286 1.261 1.9286zm17.951-17.802 5.5633-12.239h0.0742l5.6374 12.239z" fill="#f6a600" stroke-width=".26458"/>
</g>
<g transform="translate(3.3351)">
<path d="m85.082 62.281c0 14.835 11.942 26.629 26.778 26.629 6.6017 0 12.981-2.2995 18.025-7.1951 0.51924-0.51924 0.59341-1.4835 0.0742-2.0028l-5.7858-6.1567c-0.44506-0.51924-1.4094-0.51924-1.9286-0.07418-2.6704 2.2995-6.4534 3.5605-9.9397 3.5605-8.382 0-14.613-6.8243-14.613-15.058 0-8.3078 6.1567-15.28 14.539-15.28 3.6347 0 7.2693 1.3352 10.014 3.783 0.51923 0.51924 1.3352 0.51924 1.8544 0l5.7858-6.0083c0.59341-0.59341 0.59341-1.4835-0.0742-2.0769-5.044-4.599-10.533-6.8984-17.951-6.8984-14.835 0-26.778 11.942-26.778 26.778z" fill="#f6a600" stroke-width=".26458"/>
</g>
<g transform="translate(0 .9115)">
<path d="m138.68 29.791c0 0.74177 0.59341 1.4094 1.4094 1.4094h18.396c8.827 0 16.171-6.0083 16.171-14.316 0-6.8243-6.0083-10.459-9.9397-12.091 3.4863-1.8544 8.6045-6.0083 8.6045-11.72 0-7.7886-7.1951-13.797-15.948-13.797h-17.283c-0.81595 0-1.4094 0.66759-1.4094 1.4094zm11.572-29.448v-10.385h5.7858c2.8187 0 5.1924 2.0769 5.1924 5.044s-2.3737 5.3407-5.1924 5.3407zm0 20.25v-10.607h6.0083c2.8929 0 6.0825 2.2253 6.0825 5.1924 0 3.0412-2.4478 5.4149-5.3407 5.4149z" fill="#f6a600" stroke-width=".26458"/>
</g>
</g>
<g transform="translate(-2.0254 2.0419)" fill="none" stroke="#fff" stroke-linecap="round" stroke-linejoin="round">
<path d="m142.59 38.31 31.391 31.391" stroke-width="6.35"/>
<g transform="translate(5.9867 -.37404)" stroke-width="6.35">
<path d="m168 53.452v33.247"/>
<path d="m151.37 70.075h33.247"/>
</g>
</g>
</g>
</g>
</g>
</svg>
