<?xml version="1.0" encoding="UTF-8"?>
<svg width="512" height="512" version="1.1" viewBox="0 0 135.47 135.47" xmlns="http://www.w3.org/2000/svg">
<g transform="translate(0 -161.53)">
<g transform="matrix(.97414 0 0 .97414 -210.83 14.651)" stroke="#b7bcff" stroke-width="12.319">
<path transform="matrix(.26458 0 0 .26458 0 161.53)" d="m1051.4 21.922 108.9 72.961 70.164-104.72h-157.79z"/>
<path transform="matrix(.26458 0 0 .26458 0 161.53)" d="m1051.4 21.922 21.279-31.762h-68.686z"/>
<path transform="matrix(.26458 0 0 .26458 0 161.53)" d="m978.45 130.82 108.9 72.961 72.961-108.9-108.9-72.961z"/>
<path transform="matrix(.26458 0 0 .26458 0 161.53)" d="m905.48 239.72 108.9 72.961 72.961-108.9-108.9-72.961z"/>
<path transform="matrix(.26458 0 0 .26458 0 161.53)" d="m848.79 324.35 56.695-84.623-56.695-37.984z"/>
<path transform="matrix(.26458 0 0 .26458 0 161.53)" d="m848.79 359.52 92.635 62.062 72.961-108.9-108.9-72.961-56.695 84.623z"/>
<path transform="matrix(.26458 0 0 .26458 0 161.53)" d="m919.6 454.16 21.826-32.576-92.635-62.062v94.639z"/>
<path transform="matrix(.26458 0 0 .26458 0 161.53)" d="m990.05 454.16-48.623-32.576-21.826 32.576z"/>
<path transform="matrix(.26458 0 0 .26458 0 161.53)" d="m1123.3 385.64-108.9-72.961-72.961 108.9 48.623 32.576h87.334z"/>
<path transform="matrix(.26458 0 0 .26458 0 161.53)" d="m1123.3 385.64-45.904 68.516h148.17z"/>
<path transform="matrix(.26458 0 0 .26458 0 161.53)" d="m1196.2 276.74-108.9-72.961-72.961 108.9 108.9 72.961z"/>
<path transform="matrix(.26458 0 0 .26458 0 161.53)" d="m1269.2 167.84-108.9-72.961-72.961 108.9 108.9 72.961z"/>
<path transform="matrix(.26458 0 0 .26458 0 161.53)" d="m1312.8 197.04v-94.248l-43.582 65.049z"/>
<path transform="matrix(.26458 0 0 .26458 0 161.53)" d="m1305.1 349.71 7.6426 5.1211v-16.527z"/>
<path transform="matrix(.26458 0 0 .26458 0 161.53)" d="m1305.1 349.71 7.6426-11.406v-141.26l-43.582-29.199-72.961 108.9z"/>
<path transform="matrix(.26458 0 0 .26458 0 161.53)" d="m1235.2 454.16h77.625v-99.334l-7.6426-5.1211z"/>
<path transform="matrix(.26458 0 0 .26458 0 161.53)" d="m1235.2 454.16 69.982-104.46-108.9-72.961-72.961 108.9 102.27 68.516z"/>
<path transform="matrix(.26458 0 0 .26458 0 161.53)" d="m869.55 57.861-20.758-13.908v44.891z"/>
<path transform="matrix(.26458 0 0 .26458 0 161.53)" d="m869.55 57.861-20.758 30.982v112.89l56.695 37.984 72.961-108.9z"/>
<path transform="matrix(.26458 0 0 .26458 0 161.53)" d="m914.9-9.8398h-66.115v53.793l20.758 13.908z"/>
<path transform="matrix(.26458 0 0 .26458 0 161.53)" d="m914.9-9.8398-45.357 67.701 108.9 72.961 72.961-108.9-47.406-31.762z"/>
<path transform="matrix(.26458 0 0 .26458 0 161.53)" d="m1312.8 39.262v-49.102h-73.289z"/>
<path transform="matrix(.26458 0 0 .26458 0 161.53)" d="m1312.8 39.262-73.289-49.102h-9.0293l-70.164 104.72 108.9 72.961 43.582-65.049z"/>
</g>
<rect x="26.933" y="190.81" width="45.194" height="45.194" fill="#72ff8d" stroke="#000" stroke-width="3.175"/>
<rect x="7.9375" y="169.47" width="119.59" height="119.59" fill="none" stroke="#000" stroke-linecap="square" stroke-width="3.175"/>
</g>
</svg>
