<?xml version="1.0" encoding="UTF-8"?>
<svg width="512" height="512" version="1.1" viewBox="0 0 135.47 135.47" xmlns="http://www.w3.org/2000/svg">
<defs>
<linearGradient id="a" x1="556.2" x2="199.64" y1="331.56" y2="687.95" gradientTransform="matrix(.32386 0 0 .32386 -54.348 -97.464)" gradientUnits="userSpaceOnUse">
<stop stop-color="#ffe4b8" offset="0"/>
<stop stop-color="#9ea7ff" offset="1"/>
</linearGradient>
</defs>
<rect x="9.5249" y="9.5249" width="116.42" height="116.42" fill="url(#a)" stroke="#000" stroke-width="6.3499"/>
<path d="m30.689 79.377 30.854-20.16 42.942 11.044-30.893 20.166z" fill="#c8c827" stroke-width="0"/>
<path d="m45.32 57.177 18.468-12.068 25.697 6.6488-18.49 12.064z" fill="#c8c827"/>
<path d="m73.592 90.427 2.0439 20.937 40.641-26.556-11.792-14.546z" fill="#46482a"/>
<path d="m30.689 79.377-11.5 17.449 56.446 14.538-2.0439-20.937z" fill="#979758"/>
<path d="m70.995 63.822 1.5971 16.361-36.253-9.38 8.9807-13.627z" fill="#979758"/>
<path d="m70.995 63.822 1.5973 16.361 26.141-17.018-1.7907-2.2424-7.4573-9.1656z" fill="#46482a"/>
<path d="m49.759 50.442 17.344-26.326 3.1089 31.625z" fill="#979758"/>
<path d="m84.946 46.125-17.829-22.022 3.0932 31.62z" fill="#46482a"/>
</svg>
