<svg xmlns="http://www.w3.org/2000/svg" xmlns:xlink="http://www.w3.org/1999/xlink" height="512" width="512"><defs><linearGradient y2="36.375" x2="34.5" y1="34.75" x1="23.375" gradientTransform="translate(-2 -10.871)" gradientUnits="userSpaceOnUse" id="b" xlink:href="#a"/><linearGradient id="a"><stop offset="0" stop-color="#219dff"/><stop offset="1" stop-color="#197edf"/></linearGradient></defs><path d="M0 0h512v512H0z" fill="none"/><path d="M-.012 136.534l204.8 136.533v238.934L-.012 375.467z" fill="#73c0ff"/><path d="M29.9 17.504l12 8-14 8-12-8z" fill="url(#b)" transform="translate(-271.372 -298.734) scale(17.06666)"/><path d="M443.721 136.534v238.933L204.788 512.001V273.067z" fill="#0c71c2"/><path d="M307.2 0H512v512H307.2z" opacity=".6"/><path d="M426.858 482.5v-29.232h10.219q11.783 0 16.893-2.923 5.11-3.007 5.11-9.772 0-7.015-5.944-9.688-5.944-2.756-23.358-2.756h-96.77v-30.818h95.518q33.369 0 47.655 10.19 14.286 10.105 14.286 33.24 0 21.296-14.078 31.653-14.181 10.272-43.17 10.272-1.043 0-3.129-.083-2.19-.083-3.232-.083zm-26.069-140.394v-20.88q0-8.518-4.484-12.527-4.589-4.092-14.078-4.092-9.176 0-13.66 4.26-4.588 4.175-4.588 12.694v20.545zm85.82 31.653h-153.6v-56.29q0-21.38 12.408-32.572 12.305-11.192 35.663-11.192 24.505 0 37.644 11.025 13.035 11.024 13.035 31.736v25.64h54.85zm0-117.926h-153.6v-93.456H364.5v61.97h27.112v-56.625h30.762v56.625h32.847v-63.975h31.388zm0-206.79l-19.813 2.506q12.096 6.932 18.04 16.536 5.84 9.521 5.84 22.3 0 11.942-5.423 22.132-5.422 10.105-15.954 17.872-10.845 8.102-25.548 12.277-14.703 4.176-32.118 4.176-37.644 0-60.376-17.204-22.732-17.288-22.732-45.935 0-21.631 13.556-35.662 13.556-14.114 37.956-17.873v30.15q-9.906 3.007-14.911 9.187-5.11 6.18-5.11 15.117 0 13.53 13.765 21.881 13.764 8.352 36.392 8.352 22.316 0 35.559-8.185 13.139-8.268 13.139-22.048 0-11.025-6.987-18.207-6.986-7.266-19.5-9.02v27.394h-29.51V29.333h83.735z" fill="#fff"/></svg>