<svg xmlns="http://www.w3.org/2000/svg" xmlns:xlink="http://www.w3.org/1999/xlink" width="512" height="512"><defs><linearGradient xlink:href="#a" id="b" gradientUnits="userSpaceOnUse" gradientTransform="translate(-2 -10.871)" x1="23.375" y1="34.75" x2="34.5" y2="36.375"/><linearGradient id="a"><stop offset="0" stop-color="#219dff"/><stop offset="1" stop-color="#197edf"/></linearGradient></defs><path d="M0 0h512v512H0z" fill="none"/><path d="M-.012 136.534l204.8 136.534V512L-.012 375.468z" fill="#73c0ff"/><path d="M29.9 17.504l12 8-14 8-12-8z" fill="url(#b)" transform="translate(-271.372 -298.734) scale(17.06667)"/><path d="M443.721 136.534v238.934L204.788 512V273.068z" fill="#0c71c2"/><path d="M307.2 0H512v512H307.2z" opacity=".6"/><path d="M486.4 438.97H363.979v43.697H332.8V356.235h31.179v43.697H486.4zm0-100.856H332.8V299.18h153.6zm0-70.102H332.8v-109.45h31.909v70.62h31.804V167.88h31.805v61.3H486.4zm0-129.228H332.8V29.334h31.909v70.619h31.804v-61.3h31.805v61.3H486.4z" fill="#fff"/></svg>