<svg xmlns="http://www.w3.org/2000/svg" xmlns:xlink="http://www.w3.org/1999/xlink" height="512" width="512"><defs><linearGradient y2="36.375" x2="34.5" y1="34.75" x1="23.375" gradientTransform="translate(-2 -10.871)" gradientUnits="userSpaceOnUse" id="b" xlink:href="#a"/><linearGradient id="a"><stop offset="0" stop-color="#219dff"/><stop offset="1" stop-color="#197edf"/></linearGradient></defs><path d="M0 0h512v512H0z" fill="none"/><path d="M-.012 136.534l204.8 136.533v238.934L-.012 375.467z" fill="#73c0ff"/><path d="M29.9 17.504l12 8-14 8-12-8z" fill="url(#b)" transform="matrix(17.06667 0 0 17.06666 -271.372 -298.734)"/><path d="M443.721 136.534v238.933L204.788 512.001V273.067z" fill="#0c71c2"/><path d="M307.2 0H512v512H307.2z" opacity=".6"/><path d="M486.348 482.667h-153.6V372.865h31.909v70.846h31.804v-61.497h31.805v61.497h58.082zm0-130.37h-153.6v-39.059h153.6zm0-100.764H363.927v43.838h-31.18V168.533h31.18v43.837h122.42zm-50.992-92.869V121.06q13.14-.416 19.813-7.688 6.57-7.271 6.57-21.295 0-11.946-3.963-18.49-3.963-6.545-11.158-6.545-3.65 0-6.465 1.558-2.92 1.558-4.38 4.363-2.294 4.26-7.195 20.88-4.9 16.62-9.489 28.048-6.57 16.517-17.31 25.139-10.845 8.518-25.235 8.518-22.002 0-34.933-16.413-13.034-16.517-13.034-44.669 0-27.632 13.66-43.837 13.66-16.206 36.914-16.206v36.878q-10.74 1.247-15.85 7.583-5.11 6.233-5.11 18.075 0 9.453 3.963 15.375 3.858 5.92 9.906 5.92 10.22 0 19.292-28.15 1.668-5.09 2.502-7.792.209-.52.522-1.558 9.489-29.086 15.328-36.358 6.048-7.375 14.286-11.219 8.134-3.844 18.144-3.844 22.941 0 35.767 17.556 12.722 17.452 12.722 49.032 0 29.813-13.66 45.395-13.765 15.582-41.607 17.348z" fill="#fff"/></svg>