<?xml version="1.0" encoding="UTF-8"?>
<svg width="512" height="512" version="1.1" viewBox="0 0 135.47 135.47" xmlns="http://www.w3.org/2000/svg">
<defs>
<linearGradient id="a" x1="12.027" x2="70.235" y1="86.124" y2="27.916" gradientTransform="matrix(2.1091 0 0 2.1091 7.3958 -58.76)" gradientUnits="userSpaceOnUse">
<stop stop-color="#0405ff" offset="0"/>
<stop stop-color="#9fc9ff" offset="1"/>
</linearGradient>
</defs>
<g transform="translate(-23.435 34.258)">
<g transform="translate(-2.9776 -28.026)">
<rect x="32.762" y=".11735" width="122.77" height="122.77" fill="url(#a)" stroke-width="0"/>
<g transform="translate(.9163 -.91179)">
<path d="m62.766 7.3575v109.95" fill="none" stroke="#acacac" stroke-width="5.8208"/>
<path d="m84.453 7.3575v109.95" fill="none" stroke="#acacac" stroke-width="5.8208"/>
<path d="m106.14 7.3575v109.95" fill="none" stroke="#acacac" stroke-width="5.8208"/>
<path d="m127.83 7.3575v109.95" fill="none" stroke="#acacac" stroke-width="5.8208"/>
<path d="m147.91 27.44-109.57 0.069414" fill="none" stroke="#acacac" stroke-width="5.8208"/>
<path d="m147.91 49.271h-109.57" fill="none" stroke="#acacac" stroke-width="5.8208"/>
<path d="m147.91 71.033h-109.57" fill="none" stroke="#acacac" stroke-width="5.8208"/>
<path d="m147.91 92.795h-109.57" fill="none" stroke="#acacac" stroke-width="5.8208"/>
<path d="m147.91 114.56h-109.57" fill="none" stroke="#acacac" stroke-width="5.8208"/>
<path d="m41.08 7.3575v109.95" fill="none" stroke="#acacac" stroke-width="5.8208"/>
<path d="m49.204 44.244q2.9034-0.92209 5.5122-1.6838 2.6088-0.76172 4.7548-1.2829 2.146-0.56127 3.7029-0.8419 1.599-0.28064 2.4826-0.28064 1.3044 0 2.4405 0.36082 1.1782 0.36082 2.2301 1.4032 1.094 1.0424 2.1039 2.8865 1.0519 1.8442 2.1039 4.7708 1.2624 3.528 2.5247 6.6952 1.2624 3.1271 2.4405 6.2541 2.693-5.0915 5.3439-9.261 2.693-4.2095 5.386-7.1361 2.7351-2.9667 5.5122-4.5703 2.8192-1.6437 5.7647-1.6437 1.8935 0 3.3242 0.56127 1.4306 0.52118 2.3984 1.4032 1.0099 0.88199 1.4728 2.0847 0.50493 1.1626 0.50493 2.4054 0 1.6838-0.88364 3.3676-0.88364 1.6437-2.693 2.8063h-0.33662q-0.75739-0.88199-1.599-1.4032-0.79949-0.56127-1.641-0.84191-0.84157-0.32072-1.6831-0.40091-0.79948-0.12028-1.5569-0.12028-2.4826 0-4.7969 1.3631-2.2722 1.323-4.4182 3.7284-2.146 2.3654-4.2078 5.6127-2.0198 3.2473-4.0395 7.0961 1.9777 5.1717 3.6187 9.1006 1.6831 3.9289 3.1559 6.8154 1.4727 2.8464 2.8613 4.7708 1.3886 1.9244 2.8192 3.087 1.4307 1.1626 2.9875 1.6437 1.5569 0.48109 3.4083 0.48109 1.2623 0 2.3143-0.08018 1.094-0.08018 2.1039-0.24054 1.052-0.20046 2.188-0.52118 1.1361-0.32072 2.5247-0.80182l0.84155 2.2852q-2.0198 1.323-4.334 2.4455-2.3143 1.0824-4.6706 1.8442-2.3564 0.80182-4.6286 1.2027-2.2301 0.441-4.1657 0.441-2.7351 0-4.9231-1.2829-2.146-1.2428-4.1236-3.969-1.9356-2.7663-3.9133-7.0159-1.9776-4.2897-4.3761-10.303-2.9875 5.0514-5.933 9.261-2.9034 4.2095-5.8488 7.2564-2.9455 3.0068-5.933 4.6906-2.9455 1.6838-5.9751 1.6838-1.8514 0-3.24-0.48109-1.3886-0.48109-2.3143-1.2829-0.92572-0.80181-1.3886-1.8442-0.50494-1.0824-0.50494-2.2451 0-1.3631 0.63118-2.7663 0.63115-1.4032 1.8935-2.6861 2.2722 0.80181 4.0395 1.1225 1.8093 0.32073 3.2821 0.32073 2.693 0 5.1756-1.2829 2.4826-1.2829 4.839-3.6082 2.3564-2.3654 4.6706-5.6929 2.3143-3.3275 4.6707-7.4168-0.75741-1.9244-1.5569-3.969-0.7574-2.0446-1.641-4.2897-0.88365-2.2852-1.8514-4.8109-0.96781-2.5658-2.0618-5.4523-0.96781-2.4455-1.9356-3.969-0.92571-1.5635-2.0197-2.4455-1.0519-0.882-2.3143-1.2027-1.2203-0.32073-2.7351-0.32073-1.3465 0-3.1979 0.32073-1.8094 0.28064-3.9553 0.72163z" fill="#c0f6fe" stroke="#c0f6fe" stroke-width="1.6464" style="font-feature-settings:normal;font-variant-caps:normal;font-variant-ligatures:normal;font-variant-numeric:normal"/>
<path d="m128.46 51.508q-0.57103-1.9879-1.2299-4.164-0.63689-2.1762-1.3177-4.3733-0.65886-2.1971-1.3397-4.3314-0.65885-2.1343-1.2958-4.0594-0.61494-1.9251-1.186-3.5572-0.54904-1.6531-0.98829-2.8458-0.4612-1.2346-0.90043-2.0088-0.41729-0.79514-0.87849-1.2346-0.46121-0.43942-0.96632-0.60682-0.50514-0.16738-1.1201-0.16738-0.70278 0-1.4934 0.14648-0.81261 0.14648-1.9327 0.39757l-0.32942-1.5066q1.3177-0.46034 2.5696-0.83699 1.2738-0.37664 2.3499-0.64866 1.0761-0.27202 1.9107-0.4185 0.83456-0.14648 1.3177-0.14648 0.57102 0 1.0761 0.18833 0.52709 0.18833 1.0102 0.66959 0.50513 0.46034 0.96632 1.2973 0.4612 0.81606 0.92243 2.0716 0.30746 0.79514 0.72475 2.0506 0.43923 1.2346 0.94434 2.8248 0.50515 1.5694 1.0762 3.4317 0.57102 1.8623 1.142 3.892 0.59297 2.0088 1.164 4.1222 0.57103 2.1134 1.0981 4.185 1.0981-2.7411 2.2841-5.7125 1.2079-2.9922 2.4378-6.0054 1.2518-3.0132 2.4817-5.9636 1.2299-2.9713 2.3719-5.6706 0.19774-0.46035 0.52709-0.7533 0.3514-0.29295 0.76866-0.46034 0.41729-0.18833 0.85652-0.2511 0.4612-0.0837 0.90045-0.0837 0.72474 0 1.4056 0.20925 0.68081 0.18833 1.2958 0.48127-0.98829 1.5275-2.0644 3.4107-1.0542 1.8623-2.1742 3.9966-1.1201 2.1134-2.2621 4.4151-1.1201 2.3017-2.2401 4.7081-1.1201 2.3854-2.2182 4.8127-1.0761 2.4063-2.0864 4.7499-1.0322 2.3645-1.9546 4.6662-0.9224 2.3226-1.8009 4.4779-0.87848 2.1762-1.735 4.164-0.83455 2.0088-1.713 3.7455-0.83455 1.6112-1.7789 2.9922-0.94438 1.402-2.0864 2.4063-1.142 1.0253-2.5256 1.6112-1.3616 0.58589-3.0308 0.58589-1.0322 0-1.8668-0.27202-0.83457-0.2511-1.4056-0.69052-0.59297-0.4185-0.90043-0.98346-0.30748-0.56497-0.30748-1.1927 0-0.69051 0.43925-1.4438 0.41727-0.73237 1.1201-1.109 0.9224 0.54404 1.8668 0.77422 0.94436 0.23017 1.6911 0.23017 1.8009 0 3.1845-0.94162 1.4056-0.92069 2.6355-2.783 1.2299-1.8623 2.4598-4.6662 1.2518-2.8039 2.7672-6.5704l0.43923-1.109z" fill="#c0f6fe" stroke="#c0f6fe" stroke-width="1.6464" style="font-feature-settings:normal;font-variant-caps:normal;font-variant-ligatures:normal;font-variant-numeric:normal"/>
</g>
</g>
</g>
</svg>
