<?xml version="1.0" encoding="UTF-8"?>
<svg width="160" height="160" version="1.1" viewBox="0 0 42.333 42.333" xmlns="http://www.w3.org/2000/svg">
<g transform="translate(0 -254.67)">
<path d="m3.9688 257.31v35.719h35.719" fill="none" stroke="#000" stroke-width="2.6458"/>
<path d="m5.2917 291.71s1.2729-1.1354 3.2265-5.7596c1.3933-3.2981 2.4901-11.44 3.3881-11.438 0.98944 2e-3 2.4503 5.848 6.6146 9.2604 3.7866 3.1029 5.1484 2.8182 7.2892 2.8281 2.5948 0.0119 3.2941-0.18225 5.94-1.5052 2.6458-1.3229 2.5748-4.8284 5.2917-5.2917 1.7206-0.29338 2.6458 11.906 2.6458 11.906z" fill="#808080"/>
<path transform="matrix(.26458 0 0 .26458 0 254.67)" d="m108 54.85c-2.9179 0.66386-5.8982 0.86072-10.451 0.83984-8.0912-0.037342-13.237 1.0382-27.549-10.689-3.0673-2.5135-5.6464-5.4139-8-8.3945v38.395h46v-20.15z" fill="#00c000"/>
<path transform="matrix(.26458 0 0 .26458 0 254.67)" d="m108 54.85v20.15h42s-3.4968-46.109-10-45c-10.268 1.7508-10 15-20 20-5.3576 2.6788-8.6325 4.0835-12 4.8496z" fill="#00f"/>
<path transform="matrix(.26458 0 0 .26458 0 254.67)" d="m20 75h42v-38.395c-9.7233-12.314-13.989-26.599-17-26.605-3.3937-0.0063118-7.5385 30.765-12.805 43.23-7.3836 17.478-12.195 21.77-12.195 21.77z" fill="#f00"/>
</g>
</svg>
