<?xml version="1.0" encoding="UTF-8"?>
<svg width="160" height="160" version="1.1" viewBox="0 0 42.333 42.333" xmlns="http://www.w3.org/2000/svg">
<g transform="translate(0 -254.67)">
<path d="m3.9688 257.31v35.719h35.719" fill="none" stroke="#000" stroke-width="2.6458"/>
<path d="m28.575 281.05c-0.77204 0.3513-1.5606 0.45548-2.7652 0.44442-2.1408-0.02-3.5023 0.54936-7.289-5.6565-0.81156-1.3301-1.4939-2.8649-2.1167-4.4421v20.317h12.171z" fill="#00c000"/>
<path d="m28.575 281.05v10.663h11.112s-0.92519-24.399-2.6458-23.812c-2.7169 0.92648-2.6458 7.9375-5.2917 10.583-1.4175 1.4175-2.284 2.1608-3.175 2.5662z" fill="#00f"/>
<path d="m5.2917 291.71h11.112v-20.317c-2.5726-6.5159-3.7013-14.076-4.4979-14.079-0.89792-4e-3 -1.9946 16.28-3.3879 22.876-1.9536 9.2485-3.2267 11.52-3.2267 11.52z" fill="#f00"/>
</g>
</svg>
