<?xml version="1.0" encoding="UTF-8"?>
<svg width="160" height="160" version="1.1" viewBox="0 0 42.333 42.333" xmlns="http://www.w3.org/2000/svg">
<g transform="translate(0 -254.67)">
<g transform="translate(0 3.3333e-6)">
<path d="m5.2917 291.71s1.2729-2.0961 3.2265-10.633c1.3933-6.089 2.4915-21.096 3.3894-21.094 0.98945 3e-3 3.279 12.804 5.3499 19.106 2.3217 7.0647 4.7029 12.092 4.7029 12.092h8.4668c-0.01563 0.13715 1.6955-2.9015 4.1601-10.886 1.1316-3.6659 1.8863-7.384 2.1186-7.3784 1.7453 0.0423 2.9817 18.794 2.9817 18.794z" fill="#808080"/>
<path d="m5.2917 291.71s3.7017-12.429 7.3227-17.68c2.9695-4.3067 6.8815-8.161 11.417-10.768 4.7178-2.7118 14.333-4.6245 15.656-4.6245" fill="none" stroke="#00f" stroke-width="2.6458"/>
<path d="m3.9688 257.31v35.719h35.719" fill="none" stroke="#000" stroke-width="2.6458"/>
</g>
</g>
</svg>
