<svg width="512" height="512" viewBox="0 0 135.47 135.47" xmlns="http://www.w3.org/2000/svg">
  <defs>
    <linearGradient id="a" x1="257" x2="256.85" y1="-96.577" y2="-70.053" gradientTransform="matrix(2.0389 0 0 3.2039 -322.44 343.69)" gradientUnits="userSpaceOnUse">
      <stop stop-color="#08044d" offset="0"/>
      <stop stop-color="#4d4cd2" offset="1"/>
    </linearGradient>
  </defs>
  <path fill="url(#a)" stroke="#000" stroke-linejoin="round" stroke-width="4.092" paint-order="fill markers stroke" d="M142.05 4.6739h118.67v118.67H142.05z" transform="translate(-133.65 3.7223)"/>
  <path d="M106.215871 10.44203c3.2249982-.00776426 3.91236276 10.89200448 5.52486186 12.29220111s12.7307838-1.18242166 13.2684924 1.54020377-8.65209486 7.17167164-9.57359454 9.34979703 4.31508018 11.39768322 2.39537274 13.0314338c-1.91970744 1.63362535-9.23454984-6.33275587-11.61488178-6.33275587s-9.54188352 7.49964901-11.46146562 6.09945238c-1.91970744-1.40019663 2.85612258-10.91103944 2.24183124-12.9337544s-10.15843098-6.56931534-9.5734692-9.21417294 11.27157552-.06211408 13.0378668-1.38454288c1.7660406-1.32255403 3.06782184-12.37009417 5.75536212-12.447862" fill-rule="evenodd" fill="#ff0" stroke-width=".80928"/>
  <g transform="matrix(1.1762 .62468 -.74148 1.3001 94.02 42.2823)">
    <path d="M16.155 1.1011C10.064 1.0163 5.1 5.9284 5.1 12.0001c0 1.8022.4374 3.5023 1.2118 4.9998 1.5389 2.976 7.45 11.281 9.1984 13.719.2407.3357.739.3356.9797 0 1.7484-2.438 7.6593-10.743 9.1983-13.719.7803-1.5088 1.2184-3.2233 1.2118-5.0406-.0216-5.9154-4.8299-10.776-10.745-10.858zm-.1552 14.899c-2.2091 0-4-1.7909-4-4s1.7909-4 4-4 4 1.7909 4 4-1.7909 4-4 4z" fill="red"/>
    <ellipse transform="matrix(.99991 -.0134 -.01793 .99984 0 0)" cx="16.284" cy="12.069" rx="4.7179" ry="4.6265" fill="#fff"/>
  </g>
  <g fill-rule="evenodd">
    <path d="M46.947 16.6855c16.707 0 30.251 13.533 30.251 30.226 0 16.693-13.544 30.226-30.251 30.226s-30.251-13.533-30.251-30.226c0-16.693 13.544-30.226 30.251-30.226z" fill="none"/>
    <path d="M47.058 12.598c-19.867 0-35.972 16.105-35.972 35.972s16.105 35.972 35.972 35.972S83.03 68.437 83.03 48.57 66.925 12.598 47.058 12.598zm0 67.456c-17.388 0-31.483-14.095-31.483-31.483 0-17.388 14.095-31.483 31.483-31.483 17.388 0 31.483 14.095 31.483 31.483 0 17.388-14.095 31.483-31.483 31.483z" fill="#afafe9" stroke="#afafe9" stroke-width="4.0289" transform="matrix(.96087 0 0 .96006 1.7307 .2817)"/>
    <g fill="#fff" stroke="#fff" stroke-width="1.0001">
      <path d="M34.646 62.157c-.0079 2.1244.19685 3.0961 2.0284 3.1055 1.8315.0079 1.8599-1.1827 1.8677-3.3087.0079-2.1244-.6126-18.419-1.8-18.424-1.1874-.0063-2.0882 16.502-2.0961 18.627z" transform="matrix(1.46312 0 0 1.46188 -5.59064897 -44.81423832)"/>
      <path d="M24.697 76.305c-.07402 0-.13228-.0189-.17008-.05669-.45512-.45197 1.7118-3.367 3.611-5.7323 2.2378-2.7874 4.7166-5.5796 5.5733-6.4441 1.1449-1.1528 1.9024-1.778 2.6299-1.778.43307 0 .8567.22205 1.337.69607.6693.66457.87087 1.1165.71654 1.6158-.16063.52284-.70867 1.0992-1.5906 1.9874-1.5087 1.5228-10.524 9.7119-12.107 9.7119z" transform="matrix(1.46312 0 0 1.46188 -5.59064897 -44.81423832)"/>
    </g>
  </g>
  <path fill="#fff" fill-rule="evenodd" stroke="#fff" stroke-linejoin="round" stroke-width="8.3809" d="M19.955 107.93h95.927v18.595H19.955z" transform="matrix(.70184 0 0 .65358 20.07 39.5923)"/>
  <g fill-rule="evenodd" stroke-width="1.4765">
    <path d="M37.42786196 120.63622h4.47345798v-10.5030306h-4.47345798zM65.52602636 120.63622h4.456684v-10.5030306h-4.456684zM93.58909876 120.63622h4.456684v-10.5030306h-4.456684zM46.79953148 116.1853402h4.47345798v-6.0496672h-4.47345798zM56.171201 116.1853402h4.456684v-6.0496672h-4.456684zM84.23637892 116.1853402h4.456684v-6.0496672h-4.456684zM74.88085172 116.1853402h4.456684v-6.0496672h-4.456684z"/>
  </g>
  <g fill="#0f0" stroke="#0f0" stroke-width="1.7458">
    <path d="M13 6l2.6-4.9L18.3 6zm13.417 23.734l5.58-.406-3.366-4.409zM3.383 24.419L.017 28.828l5.58.406z" transform="matrix(3.1292 0 0 3.4961 17.65 15.3333)"/>
    <path d="M28.174 26.966L16.2 20.833V5H15v15.832L3.728 26.565c-.295.15-.413.511-.263.807.106.208.317.328.535.328.092 0 .184-.021.272-.065l11.327-5.761 12.027 6.16c.088.045.181.066.273.066.218 0 .428-.119.534-.327.152-.294.035-.656-.259-.807z" transform="matrix(3.1292 0 0 3.4961 17.65 15.3333)"/>
  </g>
</svg>
