<?xml version="1.0" encoding="UTF-8"?>
<svg version="1.1" viewBox="0 0 512 512" xml:space="preserve" xmlns="http://www.w3.org/2000/svg"><defs><linearGradient id="b" x1="265.79" x2="260.64" y1="468.34" y2="238.86" gradientTransform="matrix(.97995 0 0 .97995 4.9118 4.9118)" gradientUnits="userSpaceOnUse"><stop stop-color="#a0a0a0" offset="0"/><stop offset=".55788"/></linearGradient><linearGradient id="c" x1="-505.43" x2="-90.024" y1="510.84" y2="510.84" gradientTransform="matrix(.89206 0 0 .89206 521.58 -199.7)" gradientUnits="userSpaceOnUse"><stop stop-color="#f00" offset="0"/><stop stop-color="#0f0" offset=".5"/><stop stop-color="#00f" offset="1"/></linearGradient><linearGradient id="d" x1="56.393" x2="455.6" y1="255.99" y2="255.99" gradientTransform="translate(.0013184 .018847)" gradientUnits="userSpaceOnUse"><stop offset="0"/><stop stop-color="#1f84ff" offset="1"/></linearGradient></defs><path d="m36 36h440v440h-440z" fill="url(#b)" stop-color="#000000" stroke="#000" stroke-linecap="square" stroke-width="24" style="paint-order:markers fill stroke"/><path d="m452.42 262.22a39.421 38.031 0 0 1-39.421 38.031 39.421 38.031 0 0 1-39.421-38.031 39.421 38.031 0 0 1 39.421-38.031 39.421 38.031 0 0 1 39.421 38.031z" fill="#fff" stop-color="#000000" stroke-width="15.013" style="paint-order:markers fill stroke"/><path d="m144.77 241.3a36.416 35.134 0 0 1-36.416 35.134 36.416 35.134 0 0 1-36.416-35.134 36.416 35.134 0 0 1 36.416-35.134 36.416 35.134 0 0 1 36.416 35.134z" fill="#fff" stop-color="#000000" stroke-width="13.869" style="paint-order:markers fill stroke"/><path d="m341 313.91a15.88 15.32 0 0 1-15.88 15.32 15.88 15.32 0 0 1-15.88-15.32 15.88 15.32 0 0 1 15.88-15.32 15.88 15.32 0 0 1 15.88 15.32z" fill="#fff" stop-color="#000000" stroke-width="6.0474" style="paint-order:markers fill stroke"/><path d="m282.75 108.2a30.358 29.288 0 0 1-30.358 29.288 30.358 29.288 0 0 1-30.358-29.288 30.358 29.288 0 0 1 30.358-29.288 30.358 29.288 0 0 1 30.358 29.288z" fill="#fff" stop-color="#000000" stroke-width="11.561" style="paint-order:markers fill stroke"/><g transform="matrix(3.5343 -.65144 .63531 3.4468 77.408 61.93)" fill="#fff" stroke-width="1.6062"><path d="m8.871 0.92069c2.573-0.0062 3.1214 8.6976 4.4079 9.8157s10.157-0.9442 10.586 1.2299c0.4288 2.1741-6.9029 5.7268-7.6381 7.4661s3.4427 9.1014 1.9111 10.406c-1.5316 1.3045-7.3676-5.0569-9.2667-5.0569s-7.6128 5.9887-9.1443 4.8706c-1.5316-1.1181 2.2787-8.7128 1.7886-10.328s-8.1047-5.2458-7.638-7.3578 8.9928-0.0496 10.402-1.1056c1.409-1.0561 2.4476-9.8779 4.5918-9.94" fill="#fff" fill-rule="evenodd" stroke-width="1.2998"/></g><g transform="matrix(3.6337 .65145 -.63531 3.5437 366.9 318.72)" fill="#fff" stroke-width="1.6062"><path d="m8.871 0.92069c2.573-0.0062 3.1214 8.6976 4.4079 9.8157s10.157-0.9442 10.586 1.2299c0.4288 2.1741-6.9029 5.7268-7.6381 7.4661s3.4427 9.1014 1.9111 10.406c-1.5316 1.3045-7.3676-5.0569-9.2667-5.0569s-7.6128 5.9887-9.1443 4.8706c-1.5316-1.1181 2.2787-8.7128 1.7886-10.328s-8.1047-5.2458-7.638-7.3578 8.9928-0.0496 10.402-1.1056c1.409-1.0561 2.4476-9.8779 4.5918-9.94" fill="#fff" fill-rule="evenodd" stroke-width="1.2998"/></g><path d="m281.61 406.69a27.518 26.547 0 0 1-27.518 26.547 27.518 26.547 0 0 1-27.517-26.547 27.518 26.547 0 0 1 27.517-26.547 27.518 26.547 0 0 1 27.518 26.547z" fill="#fff" stop-color="#000000" stroke-width="10.48" style="paint-order:markers fill stroke"/><path d="m106.4 405.6 299.21-299.21" fill="url(#d)" stroke="url(#c)" stroke-linecap="round" stroke-width="99.996"/>
</svg>
