<?xml version="1.0" encoding="UTF-8"?>
<svg version="1.1" viewBox="0 0 512 512" xml:space="preserve" xmlns="http://www.w3.org/2000/svg">
   <defs><linearGradient id="a" x1="265.79" x2="260.64" y1="468.34" y2="238.86" gradientTransform="matrix(.98097 0 0 .98097 4.6505 4.6505)" gradientUnits="userSpaceOnUse"><stop stop-color="#a0a0a0" offset="0"/><stop offset=".55788"/></linearGradient></defs><path d="m35.771 35.771h440.46v440.46h-440.46z" fill="url(#a)" stop-color="#000000" stroke="#000" stroke-linecap="square" stroke-width="23.542" style="paint-order:markers fill stroke"/><path d="m272.03 170.55a39.421 38.031 0 0 1-39.421 38.031 39.421 38.031 0 0 1-39.421-38.031 39.421 38.031 0 0 1 39.421-38.031 39.421 38.031 0 0 1 39.421 38.031z" fill="#fff" stop-color="#000000" stroke-width="15.013" style="paint-order:markers fill stroke"/><path d="m96.204 197.53a16.212 15.641 0 0 1-16.212 15.641 16.212 15.641 0 0 1-16.212-15.641 16.212 15.641 0 0 1 16.212-15.641 16.212 15.641 0 0 1 16.212 15.641z" fill="#fff" stop-color="#000000" stroke-width="6.1742" style="paint-order:markers fill stroke"/><path d="m451.16 75.835a15.88 15.32 0 0 1-15.88 15.32 15.88 15.32 0 0 1-15.88-15.32 15.88 15.32 0 0 1 15.88-15.32 15.88 15.32 0 0 1 15.88 15.32z" fill="#fff" stop-color="#000000" stroke-width="6.0474" style="paint-order:markers fill stroke"/><path d="m226.49 85.924a17.901 17.27 0 0 1-17.901 17.27 17.901 17.27 0 0 1-17.901-17.27 17.901 17.27 0 0 1 17.901-17.27 17.901 17.27 0 0 1 17.901 17.27z" fill="#fff" stop-color="#000000" stroke-width="6.8172" style="paint-order:markers fill stroke"/><g transform="matrix(3.5343 -.65144 .63531 3.4468 81.218 66.367)" fill="#fff" stroke-width="1.6062"><path d="m8.871 0.92069c2.573-0.0062 3.1214 8.6976 4.4079 9.8157s10.157-0.9442 10.586 1.2299c0.4288 2.1741-6.9029 5.7268-7.6381 7.4661s3.4427 9.1014 1.9111 10.406c-1.5316 1.3045-7.3676-5.0569-9.2667-5.0569s-7.6128 5.9887-9.1443 4.8706c-1.5316-1.1181 2.2787-8.7128 1.7886-10.328s-8.1047-5.2458-7.638-7.3578 8.9928-0.0496 10.402-1.1056c1.409-1.0561 2.4476-9.8779 4.5918-9.94" fill="#fff" fill-rule="evenodd" stroke-width="1.2998"/></g><g transform="matrix(3.6337 .65145 -.63531 3.5437 365.21 97.464)" fill="#fff" stroke-width="1.6062"><path d="m8.871 0.92069c2.573-0.0062 3.1214 8.6976 4.4079 9.8157s10.157-0.9442 10.586 1.2299c0.4288 2.1741-6.9029 5.7268-7.6381 7.4661s3.4427 9.1014 1.9111 10.406c-1.5316 1.3045-7.3676-5.0569-9.2667-5.0569s-7.6128 5.9887-9.1443 4.8706c-1.5316-1.1181 2.2787-8.7128 1.7886-10.328s-8.1047-5.2458-7.638-7.3578 8.9928-0.0496 10.402-1.1056c1.409-1.0561 2.4476-9.8779 4.5918-9.94" fill="#fff" fill-rule="evenodd" stroke-width="1.2998"/></g><path d="m333.81 94.992a27.518 26.547 0 0 1-27.518 26.547 27.518 26.547 0 0 1-27.517-26.547 27.518 26.547 0 0 1 27.517-26.547 27.518 26.547 0 0 1 27.518 26.547z" fill="#fff" stop-color="#000000" stroke-width="10.48" style="paint-order:markers fill stroke"/><path d="m333.05 266.13c-3.1174 0.22945-6.2715 0.7225-9.4502 1.4824-19.702 4.5034-33.766 19.286-45.182 36.229-11.443 16.982-20.885 37.376-30.06 58.73-18.35 42.709-36.194 89.657-55.579 114.48l44.061 3.7722c18.415-31.038 32.089-68.84 46.254-101.81 8.8318-20.555 17.715-39.133 26.436-52.076 8.7212-12.943 16.627-19.001 22.22-20.264l0.1321-0.0293 0.13025-0.0312c12.049-2.908 19.522 0.6472 30.232 12.389 10.71 11.741 21.501 31.889 30.898 54.604 9.3968 22.715 17.657 47.869 25.496 70.234 4.6906 13.383 8.8626 25.561 13.757 36.295l41.308-4.9398c-3.8618-5.2218-11.68-23.414-19.304-45.166-7.6238-21.752-16.081-47.638-26.306-72.355s-21.96-48.394-38.325-66.336c-14.32-15.699-34.604-26.839-56.718-25.211z" color="#000000" fill="#f00" fill-rule="evenodd" stroke="#f00"/><path d="m155.56 241.51c-10.05-0.72434-19.897 2.8735-27.025 8.1127-7.1271 5.2393-12.27 11.813-16.696 19.009-8.8506 14.392-14.961 31.888-20.266 50.616-10.61 37.454-15.362 73.218-20.857 95.022-4.5943 18.23-22.156 53.931-30.694 57.386-28.162 11.473 3.8306 17.798 21.981 11.234 23.659-3.1927 27.219-5.5172 44.349-52.553 9.0158-24.755 12.924-66.893 22.621-101.13 4.8489-17.118 10.648-32.326 16.177-41.317 2.7643-4.4952 5.4286-7.2817 6.8139-8.3s0.75644-0.57577 0.71964-0.57843c2.6108 0.18817 4.4319 0.84013 8.8516 7.2993 4.4198 6.4591 9.2604 17.889 13.711 31.988 8.9015 28.198 16.783 66.694 30.539 103l0.72723 1.671c12.525 25.235 22.57 45.998 36.231 60.708l53.159-8.7607c-28.186-14.726-43.54-46.756-53.998-67.432-12.119-32.272-19.806-69.269-29.57-100.2-4.9233-15.596-10.246-29.738-18.482-41.774-8.2359-12.036-21.562-22.804-38.295-24.01z" color="#000000" fill="#1f84ff" fill-rule="evenodd" stroke="#1f84ff" stroke-linecap="square" stroke-linejoin="bevel"/><path d="m242.64 310.01-0.16797 2e-3c-25.43 0.19708-46.214 13.212-59.273 29.951-13.06 16.739-20.642 36.567-27.771 55.973-7.1292 19.406-13.662 38.536-21.652 53.355-7.9899 14.82-16.644 24.575-28.141 29.535l53.916 4.7136c3.5092-4.9262 6.6307-10.068 9.4336-15.266 10.341-19.18 17.138-39.897 23.988-58.545 6.8507-18.648 13.897-35.078 21.764-45.16 7.8346-10.042 14.273-14.405 27.898-14.545 15.394 0.20828 25.643 8.196 37.307 24.506 11.714 16.38 22.036 39.891 33.068 62.199 8.0561 16.289 22.005 33.152 36.533 48.191l52.969-6.6133c3.8338 0.81845-1.5003-0.86129-6.5391-4.8496-5.0388-3.9883-11.377-9.8216-17.662-16.328-12.571-13.013-25.246-29.643-29.445-38.135-10.332-20.891-20.914-46.093-36.389-67.732s-38.669-40.966-69.666-41.25z" color="#000000" fill="#0f0" fill-rule="evenodd" stroke="#0f0"/><path d="m36 36h440v440h-440z" fill="none" stop-color="#000000" stroke="#000" stroke-linecap="square" stroke-width="24" style="paint-order:markers fill stroke"/></svg>
