<?xml version="1.0" encoding="UTF-8"?>
<svg width="512" height="512" version="1.1" viewBox="0 0 135.47 135.47" xmlns="http://www.w3.org/2000/svg">
<defs>
<linearGradient id="e" x1="2.6458" x2="60.854" y1="232.94" y2="291.15" gradientTransform="matrix(2.1091 0 0 2.1091 22.189 -324.65)" gradientUnits="userSpaceOnUse">
<stop stop-color="#003500" offset="0"/>
<stop stop-color="#2d642d" offset="1"/>
</linearGradient>
<linearGradient id="d" x1="21.755" x2="39.068" y1="277.04" y2="260.47" gradientTransform="matrix(2.1091 0 0 2.1091 22.189 -324.65)" gradientUnits="userSpaceOnUse">
<stop stop-color="#04f65f" offset="0"/>
<stop stop-color="#0082e9" offset="1"/>
</linearGradient>
<radialGradient id="a" cx="44.6" cy="255.2" r="8.6329" gradientTransform="matrix(1.1378 .059079 -.060211 1.4606 9.1397 -120.28)" gradientUnits="userSpaceOnUse">
<stop stop-color="#04f65f" offset="0"/>
<stop stop-color="#04f65f" stop-opacity="0" offset="1"/>
</radialGradient>
<linearGradient id="c" x1="33.127" x2="7.9375" y1="263.76" y2="238.23" gradientTransform="matrix(2.1091 0 0 2.1091 22.189 -324.65)" gradientUnits="userSpaceOnUse">
<stop stop-color="#2d4efd" offset="0"/>
<stop stop-color="#97c1fc" offset="1"/>
</linearGradient>
<linearGradient id="b" x1="52.917" x2="33.262" y1="283.05" y2="261.5" gradientTransform="matrix(2.1091 0 0 2.1091 22.189 -324.65)" gradientUnits="userSpaceOnUse">
<stop stop-color="#1a41b4" stop-opacity=".945" offset="0"/>
<stop stop-color="#97c1fc" stop-opacity=".376" offset="1"/>
</linearGradient>
</defs>
<g transform="translate(6.5865e-7 -158.33)">
<g transform="translate(-21.419 -1.9669)">
<rect x="27.769" y="166.64" width="122.77" height="122.77" fill="url(#e)" fill-rule="evenodd" stroke-width="0" style="paint-order:markers fill stroke"/>
<rect x="38.93" y="177.47" width="94.865" height="94.865" fill="none" opacity=".48" style="paint-order:normal"/>
<rect x="38.93" y="177.8" width="78.124" height="78.124" fill="url(#c)" fill-rule="evenodd" style="paint-order:normal"/>
<rect x="55.671" y="194.21" width="78.124" height="78.124" fill="url(#b)" fill-rule="evenodd" style="paint-order:markers fill stroke"/>
<path transform="matrix(2.1091 -.43677 .46707 2.0847 -97.782 -300)" d="m52.11 260.97-6.4973-2.7719-4.1735 5.6991 0.62843-7.0358-6.7099-2.2081 6.8857-1.5765 0.02658-7.0638 3.6272 6.0615 6.7263-2.1576-4.644 5.3227z" fill="url(#a)" fill-rule="evenodd" style="paint-order:normal"/>
<path d="m66.233 257.43 4.0856 3.6372-10.712 11.26-3.9361-0.0396v-3.9962z" fill="#3ba9ac" fill-rule="evenodd"/>
<path d="m110.91 217.09-54.96 31.849 26.776 23.112z" fill="url(#d)" fill-rule="evenodd"/>
</g>
</g>
</svg>
