<svg xmlns="http://www.w3.org/2000/svg" xmlns:xlink="http://www.w3.org/1999/xlink" height="512" width="512"><defs><linearGradient y2="36.375" x2="34.5" y1="34.75" x1="23.375" gradientTransform="translate(-2 -10.871)" gradientUnits="userSpaceOnUse" id="b" xlink:href="#a"/><linearGradient id="a"><stop offset="0" stop-color="#219dff"/><stop offset="1" stop-color="#197edf"/></linearGradient></defs><path d="M0 0h512v512H0z" fill="none"/><path d="M-.012 136.534l204.8 136.533v238.934L-.012 375.467z" fill="#73c0ff"/><path d="M29.9 17.504l12 8-14 8-12-8z" fill="url(#b)" transform="translate(-271.372 -298.734) scale(17.06666)"/><path d="M443.721 136.534v238.933L204.788 512.001V273.067z" fill="#0c71c2"/><path d="M307.2 0H512v512H307.2z" opacity=".6"/><path d="M424.72 482.421v-42.917h10.22q11.783 0 16.892-4.292 5.11-4.414 5.11-14.347 0-10.3-5.944-14.224-5.944-4.047-23.358-4.047h-96.77v-45.247h95.519q33.368 0 47.654 14.96 14.286 14.837 14.286 48.803 0 31.269-14.077 46.474-14.182 15.083-43.171 15.083-1.043 0-3.128-.123-2.19-.123-3.233-.123zm-26.07-206.127v-30.656q0-12.507-4.483-18.393-4.588-6.008-14.077-6.008-9.177 0-13.66 6.253-4.589 6.131-4.589 18.639v30.165zm85.82 46.474h-153.6V240.12q0-31.39 12.41-47.822 12.304-16.431 35.662-16.431 24.506 0 37.645 16.186 13.034 16.186 13.034 46.596v37.645h54.85zm0-162.597q-17.83-1.349-31.178-9.81-13.452-8.583-25.652-26.609-3.754-5.64-10.324-17.044-6.569-11.527-10.114-16.677-6.153-8.706-12.41-12.998-6.36-4.291-13.034-4.291-9.698 0-15.016 5.64t-5.318 15.94q0 11.527 6.986 17.413 6.883 5.886 20.647 5.886l-.104 40.71q-25.652-.245-40.876-17.657-15.225-17.535-15.225-46.596 0-28.939 13.243-46.842 13.14-17.903 34.412-17.903 11.887 0 21.69 5.641 9.697 5.518 20.333 18.884 5.527 6.867 15.433 23.666 9.907 16.799 16.789 23.788V30.805h29.719z" fill="#fff"/></svg>