<svg xmlns="http://www.w3.org/2000/svg" xmlns:xlink="http://www.w3.org/1999/xlink" height="512" width="512"><defs><linearGradient y2="36.375" x2="34.5" y1="34.75" x1="23.375" gradientTransform="translate(-2 -10.871)" gradientUnits="userSpaceOnUse" id="b" xlink:href="#a"/><linearGradient id="a"><stop offset="0" stop-color="#219dff"/><stop offset="1" stop-color="#197edf"/></linearGradient></defs><path d="M0 0h512v512H0z" fill="none"/><path d="M-.012 136.534l204.8 136.533v238.934L-.012 375.467z" fill="#73c0ff"/><path d="M29.9 17.504l12 8-14 8-12-8z" fill="url(#b)" transform="translate(-271.372 -298.734) scale(17.06666)"/><path d="M443.721 136.534v238.933L204.788 512.001V273.067z" fill="#0c71c2"/><path d="M307.2 0H512v512H307.2z" opacity=".6"/><path d="M426.389 482.441v-39.4h10.219q11.783 0 16.893-3.94 5.11-4.053 5.11-13.172 0-9.456-5.945-13.058-5.943-3.715-23.358-3.715H332.54v-41.54h95.518q33.369 0 47.655 13.734 14.286 13.622 14.286 44.805 0 28.706-14.078 42.665-14.182 13.846-43.17 13.846-1.043 0-3.129-.112-2.19-.113-3.232-.113zM400.32 293.205v-28.143q0-11.483-4.485-16.886-4.588-5.516-14.077-5.516-9.176 0-13.66 5.741-4.588 5.629-4.588 17.111v27.693zm85.82 42.666h-153.6v-75.875q0-28.819 12.408-43.903 12.305-15.085 35.663-15.085 24.505 0 37.644 14.86 13.035 14.86 13.035 42.777v34.56h54.85zM432.332 29.784q27.634 4.277 42.858 23.527 15.225 19.138 15.225 49.533 0 36.36-22.003 58.65-22.002 22.29-57.873 22.29-37.332 0-59.543-22.627-22.21-22.74-22.21-60.79 0-30.17 14.702-49.194 14.703-19.138 40.147-21.84v39.851q-11.053 2.927-16.58 11.145-5.631 8.105-5.631 21.389 0 17.787 13.035 28.143 13.034 10.357 35.662 10.357 22.524 0 35.037-9.794 12.41-9.794 12.41-27.58 0-14.297-6.466-22.853-6.465-8.668-18.77-10.807z" fill="#fff"/></svg>