<?xml version="1.0" encoding="UTF-8"?>
<svg width="512" height="512" version="1.1" viewBox="0 0 135.47 135.47" xmlns="http://www.w3.org/2000/svg">
<g transform="translate(-41.694 -41.419)">
<g transform="translate(-74.631 -8.0509)">
<rect x="168.71" y="71.166" width="15.346" height="15.346" fill="#efa6b1" style="paint-order:normal"/>
<rect x="184.06" y="71.166" width="15.346" height="15.346" fill="#12bf64" style="paint-order:normal"/>
<rect x="184.06" y="86.512" width="15.346" height="15.346" fill="#458479" style="paint-order:normal"/>
<rect x="168.71" y="147.9" width="15.346" height="15.346" fill="#9e8abe" style="paint-order:normal"/>
<rect x="168.71" y="132.55" width="15.346" height="15.346" fill="#0b5afb" style="paint-order:normal"/>
<rect x="168.71" y="117.2" width="15.346" height="15.346" fill="#7324d6" style="paint-order:normal"/>
<rect x="168.71" y="101.86" width="15.346" height="15.346" fill="#e48309" style="paint-order:normal"/>
<rect x="168.71" y="86.512" width="15.346" height="15.346" fill="#961654" style="paint-order:normal"/>
<rect x="184.06" y="147.9" width="15.346" height="15.346" fill="#0513d4" style="paint-order:normal"/>
<rect x="184.06" y="132.55" width="15.346" height="15.346" fill="#691f0b" style="paint-order:normal"/>
<rect x="184.06" y="117.2" width="15.346" height="15.346" fill="#e81d42" style="paint-order:normal"/>
<rect x="184.06" y="101.86" width="15.346" height="15.346" fill="#d4687f" style="paint-order:normal"/>
<rect x="199.4" y="71.166" width="15.346" height="15.346" fill="#e10abe" style="paint-order:normal"/>
<rect x="214.75" y="71.166" width="15.346" height="15.346" fill="#3eb45b" style="paint-order:normal"/>
<rect x="214.75" y="86.512" width="15.346" height="15.346" fill="#60cf25" style="paint-order:normal"/>
<rect x="199.4" y="147.9" width="15.346" height="15.346" fill="#d7cb59" style="paint-order:normal"/>
<rect x="199.4" y="132.55" width="15.346" height="15.346" fill="#bbb884" style="paint-order:normal"/>
<rect x="199.4" y="117.2" width="15.346" height="15.346" fill="#d3fcf6" style="paint-order:normal"/>
<rect x="199.4" y="101.86" width="15.346" height="15.346" fill="#5c4be8" style="paint-order:normal"/>
<rect x="199.4" y="86.512" width="15.346" height="15.346" fill="#6d4f79" style="paint-order:normal"/>
<rect x="214.75" y="147.9" width="15.346" height="15.346" fill="#e7c463" style="paint-order:normal"/>
<rect x="214.75" y="132.55" width="15.346" height="15.346" fill="#58333d" style="paint-order:normal"/>
<rect x="214.75" y="117.2" width="15.346" height="15.346" fill="#ae0ca1" style="paint-order:normal"/>
<rect x="214.75" y="101.86" width="15.346" height="15.346" fill="#f8bd93" style="paint-order:normal"/>
<rect x="138.02" y="71.166" width="15.346" height="15.346" fill="#11db43" style="paint-order:normal"/>
<rect x="153.37" y="71.166" width="15.346" height="15.346" fill="#9dd27e" style="paint-order:normal"/>
<rect x="153.37" y="86.512" width="15.346" height="15.346" fill="#8c5209" style="paint-order:normal"/>
<rect x="138.02" y="147.9" width="15.346" height="15.346" fill="#8321bf" style="paint-order:normal"/>
<rect x="138.02" y="132.55" width="15.346" height="15.346" fill="#63749e" style="paint-order:normal"/>
<rect x="138.02" y="117.2" width="15.346" height="15.346" fill="#a3c5d1" style="paint-order:normal"/>
<rect x="138.02" y="101.86" width="15.346" height="15.346" fill="#163e85" style="paint-order:normal"/>
<rect x="138.02" y="86.512" width="15.346" height="15.346" fill="#d7779e" style="paint-order:normal"/>
<rect x="153.37" y="147.9" width="15.346" height="15.346" fill="#1506a9" style="paint-order:normal"/>
<rect x="153.37" y="132.55" width="15.346" height="15.346" fill="#798804" style="paint-order:normal"/>
<rect x="153.37" y="117.2" width="15.346" height="15.346" fill="#19f3e6" style="paint-order:normal"/>
<rect x="153.37" y="101.86" width="15.346" height="15.346" fill="#7279a8" style="paint-order:normal"/>
<rect x="168.71" y="163.24" width="15.346" height="15.346" fill="#9631c2" style="paint-order:normal"/>
<rect x="184.06" y="163.24" width="15.346" height="15.346" fill="#1e98f3" style="paint-order:normal"/>
<rect x="199.4" y="163.24" width="15.346" height="15.346" fill="#22c5ac" style="paint-order:normal"/>
<rect x="214.75" y="163.24" width="15.346" height="15.346" fill="#8964dd" style="paint-order:normal"/>
<rect x="138.02" y="163.24" width="15.346" height="15.346" fill="#315094" style="paint-order:normal"/>
<rect x="153.37" y="163.24" width="15.346" height="15.346" fill="#056ad4" style="paint-order:normal"/>
<rect x="168.71" y="55.82" width="15.346" height="15.346" fill="#3526cc" style="paint-order:normal"/>
<rect x="184.06" y="55.82" width="15.346" height="15.346" fill="#6fbd8e" style="paint-order:normal"/>
<rect x="199.4" y="55.82" width="15.346" height="15.346" fill="#8e2c10" style="paint-order:normal"/>
<rect x="214.75" y="55.82" width="15.346" height="15.346" fill="#c56bcc" style="paint-order:normal"/>
<rect x="138.02" y="55.82" width="15.346" height="15.346" fill="#8321bf" style="paint-order:normal"/>
<rect x="153.37" y="55.82" width="15.346" height="15.346" fill="#4a9ef2" style="paint-order:normal"/>
<rect x="230.1" y="71.166" width="15.346" height="15.346" fill="#eae6d5" style="paint-order:normal"/>
<rect x="230.1" y="86.512" width="15.346" height="15.346" fill="#4a4738" style="paint-order:normal"/>
<rect x="230.1" y="147.9" width="15.346" height="15.346" fill="#8cb2a9" style="paint-order:normal"/>
<rect x="230.1" y="132.55" width="15.346" height="15.346" fill="#3c09d5" style="paint-order:normal"/>
<rect x="230.1" y="117.2" width="15.346" height="15.346" fill="#653ae0" style="paint-order:normal"/>
<rect x="230.1" y="101.86" width="15.346" height="15.346" fill="#5fe92a" style="paint-order:normal"/>
<rect x="230.1" y="163.24" width="15.346" height="15.346" fill="#a09b59" style="paint-order:normal"/>
<rect x="230.1" y="55.82" width="15.346" height="15.346" fill="#a7ee46" style="paint-order:normal"/>
<rect x="122.68" y="71.166" width="15.346" height="15.346" fill="#72a55e" style="paint-order:normal"/>
<rect x="122.68" y="86.512" width="15.346" height="15.346" fill="#91b863" style="paint-order:normal"/>
<rect x="122.68" y="147.9" width="15.346" height="15.346" fill="#c9abd4" style="paint-order:normal"/>
<rect x="122.68" y="132.55" width="15.346" height="15.346" fill="#37e352" style="paint-order:normal"/>
<rect x="122.68" y="117.2" width="15.346" height="15.346" fill="#621113" style="paint-order:normal"/>
<rect x="122.68" y="101.86" width="15.346" height="15.346" fill="#800ea7" style="paint-order:normal"/>
<rect x="122.68" y="163.24" width="15.346" height="15.346" fill="#acc460" style="paint-order:normal"/>
<rect x="122.68" y="55.82" width="15.346" height="15.346" fill="#bea174" style="paint-order:normal"/>
</g>
</g>
</svg>
