<?xml version="1.0" encoding="UTF-8"?>
<svg width="512" height="512" version="1.1" viewBox="0 0 135.47 135.47" xmlns="http://www.w3.org/2000/svg" xmlns:xlink="http://www.w3.org/1999/xlink">
<defs>
<linearGradient id="v">
<stop stop-color="#584154" offset="0"/>
<stop stop-color="#0e82d7" offset="1"/>
</linearGradient>
<radialGradient id="t" cx="22.29" cy="173.8" r="9.85" gradientTransform="matrix(1 0 0 1.2537 -51.305 -133.03)" gradientUnits="userSpaceOnUse">
<stop stop-color="#1a79c6" offset="0"/>
<stop stop-color="#00b6ff" offset="1"/>
</radialGradient>
<linearGradient id="w" x1="24.824" x2="30.138" y1="212.44" y2="212.34" gradientTransform="matrix(1.8651 0 0 1.331 -71.572 -159.82)" gradientUnits="userSpaceOnUse">
<stop stop-color="#832f33" offset="0"/>
<stop stop-color="#d60000" offset="1"/>
</linearGradient>
<radialGradient id="s" cx="28.336" cy="196.56" r="14.237" gradientTransform="matrix(1 0 0 1.0592 -51.305 -100.66)" gradientUnits="userSpaceOnUse">
<stop stop-color="#134661" offset="0"/>
<stop stop-color="#365695" offset="1"/>
</radialGradient>
<radialGradient id="r" cx="39.812" cy="174.13" r="5.7135" gradientTransform="matrix(1 0 0 .98378 -51.305 -86.364)" gradientUnits="userSpaceOnUse">
<stop stop-color="#3c3b42" offset="0"/>
<stop stop-color="#25537b" offset="1"/>
</radialGradient>
<radialGradient id="q" cx="43.708" cy="191.06" r="3.6048" gradientTransform="matrix(1 0 0 1.2827 -51.116 -143.7)" gradientUnits="userSpaceOnUse">
<stop stop-color="#d30b00" offset="0"/>
<stop stop-color="#5a3d41" offset="1"/>
</radialGradient>
<radialGradient id="p" cx="80.652" cy="57.957" r="11.703" gradientTransform="matrix(3.7795 0 0 5.354 -430.79 -73.341)" gradientUnits="userSpaceOnUse">
<stop stop-color="#26382e" offset="0"/>
<stop stop-color="#314261" offset="1"/>
</radialGradient>
<radialGradient id="o" cx="88.59" cy="52.081" r="5.7586" gradientTransform="matrix(1 0 0 2.3056 -72.285 -21.837)" gradientUnits="userSpaceOnUse">
<stop stop-color="#285ca7" offset="0"/>
<stop stop-color="#128eef" offset="1"/>
</radialGradient>
<radialGradient id="n" cx="83.551" cy="38.301" r="5.2027" gradientTransform="matrix(1 0 0 .85966 -72.285 51.533)" gradientUnits="userSpaceOnUse">
<stop stop-color="#0c74ce" offset="0"/>
<stop stop-color="#00bcff" offset="1"/>
</radialGradient>
<radialGradient id="m" cx="68.559" cy="81.644" r="5.2919" gradientTransform="matrix(1 0 0 1.9754 -72.285 -33.384)" gradientUnits="userSpaceOnUse">
<stop stop-color="#6576b3" offset="0"/>
<stop stop-color="#00b6ff" offset="1"/>
</radialGradient>
<radialGradient id="l" cx="33.981" cy="65.223" r="4.6559" gradientTransform="matrix(1 0 0 .88744 -72.285 53.5)" gradientUnits="userSpaceOnUse">
<stop stop-color="#086cc1" offset="0"/>
<stop stop-color="#3b61b2" offset="1"/>
</radialGradient>
<radialGradient id="k" cx="61.96" cy="81.935" r="4.0229" gradientTransform="matrix(1 0 0 1.1254 -72.285 35.884)" gradientUnits="userSpaceOnUse">
<stop stop-color="#0f9ae7" offset="0"/>
<stop stop-color="#365695" offset="1"/>
</radialGradient>
<radialGradient id="j" cx="61.414" cy="90.61" r="3.8704" gradientTransform="matrix(.92507 -.32741 .13811 .29 -79.725 129.77)" gradientUnits="userSpaceOnUse">
<stop stop-color="#572f18" offset="0"/>
<stop stop-color="#393a4f" offset="1"/>
</radialGradient>
<radialGradient id="a" cx="49.298" cy="88.224" r="8.3463" gradientTransform="matrix(1 0 0 .55342 -72.947 84.46)" gradientUnits="userSpaceOnUse" xlink:href="#v"/>
<radialGradient id="i" cx="81.666" cy="82.134" r="8.9542" gradientTransform="matrix(1 0 0 .70255 -72.285 69.966)" gradientUnits="userSpaceOnUse">
<stop stop-color="#365695" offset="0"/>
<stop stop-color="#2a7edd" offset="1"/>
</radialGradient>
<radialGradient id="h" cx="72.69" cy="33.905" r="6.3111" gradientTransform="matrix(1 0 0 1.1592 -72.285 40.759)" gradientUnits="userSpaceOnUse">
<stop stop-color="#029fff" offset="0"/>
<stop stop-color="#235699" offset="1"/>
</radialGradient>
<radialGradient id="g" cx="79.34" cy="50.079" r="2.0934" gradientTransform="matrix(1 0 0 1.7687 -73.221 6.9925)" gradientUnits="userSpaceOnUse">
<stop stop-color="#5d2d16" offset="0"/>
<stop stop-color="#832200" offset="1"/>
</radialGradient>
<radialGradient id="f" cx="66.228" cy="37.183" r="1.8816" gradientTransform="matrix(1 0 0 1.2885 -72.285 35.431)" gradientUnits="userSpaceOnUse">
<stop stop-color="#7e2403" offset="0"/>
<stop stop-color="#8a394a" offset="1"/>
</radialGradient>
<radialGradient id="e" cx="42.031" cy="73.019" r="2.3778" gradientTransform="matrix(1 0 0 1.7812 -72.285 -10.888)" gradientUnits="userSpaceOnUse">
<stop stop-color="#d60000" offset="0"/>
<stop stop-color="#a0241b" offset="1"/>
</radialGradient>
<radialGradient id="d" cx="23.752" cy="209.55" r="15.329" gradientTransform="matrix(1 0 0 .98379 -51.305 -85.86)" gradientUnits="userSpaceOnUse">
<stop stop-color="#36568e" offset="0"/>
<stop stop-color="#0a87e2" offset="1"/>
</radialGradient>
<radialGradient id="c" cx="24.249" cy="177.46" r="21.763" gradientTransform="matrix(1 -.0027441 .002171 .79113 -49.352 -50.717)" gradientUnits="userSpaceOnUse">
<stop stop-color="#0080d8" offset="0"/>
<stop stop-color="#174045" offset="1"/>
</radialGradient>
<radialGradient id="b" cx="43.226" cy="56.386" r="3.0935" gradientTransform="matrix(1 0 0 .64537 -72.285 66.136)" gradientUnits="userSpaceOnUse">
<stop stop-color="#901c00" offset="0"/>
<stop stop-color="#901c00" offset="1"/>
</radialGradient>
<radialGradient id="u" cx="61.424" cy="58.346" r="32.015" gradientTransform="translate(-71.023 46.531)" gradientUnits="userSpaceOnUse">
<stop stop-color="#00c2ff" offset="0"/>
<stop stop-color="#484353" offset="1"/>
</radialGradient>
</defs>
<g transform="translate(-41.694 -41.419)">
<g transform="matrix(1.9333 0 0 1.9333 127.99 -93.609)" stroke-width=".51724">
<ellipse cx="-9.599" cy="104.88" rx="31.75" ry="31.75" fill="url(#u)" style="paint-order:markers fill stroke"/>
<path d="m-18.29 74.349a31.75 31.75 0 0 0-2.8143 0.93534 31.75 31.75 0 0 0-1.9415 0.86868c-0.11819 0.2528-0.26071 0.48705-0.47801 0.66404-0.29617 0.24123-0.78008 0.20641-1.2294 0.19482a31.75 31.75 0 0 0-1.0723 0.61495c-0.02606 0.4111-0.23078 3.2914-1.4779 3.7259-0.82049 0.28581-1.4934-0.49309-2.2112-1.1896a31.75 31.75 0 0 0-2.1823 1.9172c1.5156 1.9328 2.2907 4.6224 1.1808 5.2255-1.449 0.78742-1.3222-1.9187-2.2681-2.5513-0.27286-0.18248-0.58654-0.38026-0.90279-0.5426a31.75 31.75 0 0 0-0.19637 0.21033 31.75 31.75 0 0 0-1.9203 2.5265 31.75 31.75 0 0 0-0.6506 1.0614c0.26098 0.7217 0.65679 1.4359 0.64647 2.1306-0.0163 1.1007-1.1974 1.8404-1.0397 2.8345 0.17566 1.1078 1.1734 3.3077 2.0789 2.6458 1.627-1.1892 1.3259-5.7777 3.6856-6.1417 1.0806-0.16671 1.6001 2.8525 2.4567 2.173 1.6968-1.346-0.68212-5.0153 0.56689-6.9923 0.7387-1.1692 2.8108-0.93694 3.591-2.0789 0.46739-0.68418 0.0061-1.7162 0.37775-2.4567 1.2227-2.4359 4.1724-3.6058 5.8007-5.7754z" fill="url(#t)" fill-rule="evenodd"/>
<path d="m-7.5538 73.229a31.75 31.75 0 0 0-2.0454-0.10232 31.75 31.75 0 0 0-0.32711 0.01138c-0.57335 0.78015-1.0361 1.83-1.9032 1.8304-0.32658-0.75718-0.60433-1.2778-0.86196-1.6593a31.75 31.75 0 0 0-1.926 0.23358c-0.99248 1.4386-2.3795 4.4143-5.1496 7.8512-0.69893 0.55244-3.6489 1.7322-4.1667 2.4572-2.3471 2.95-4.5613 1.1963-2.7316 7.276-0.89313 0.68864-2.0016 0.96602-3.9543 2.0552-2.0574 1.1476-0.75645 3.2495-2.0934 3.8034-1.1704 0.48483-2.6936-0.22752-3.6499-1.0583-1.2086-1.05-1.7121-3.4301-2.0081-4.392a31.75 31.75 0 0 0-0.4718 0.9772 31.75 31.75 0 0 0-0.62477 1.712c1.3665 1.2577 2.6306 2.5171 1.7513 3.5646-0.5632 0.671-1.5968-0.4806-2.513-1.1265a31.75 31.75 0 0 0-0.43718 1.7115c0.3323 0.42206 0.61282 0.84924 0.48834 1.2573-0.10508 0.34446-0.43191 0.52227-0.79995 0.66972a31.75 31.75 0 0 0-0.21239 1.4056 31.75 31.75 0 0 0-0.15865 3.1698 31.75 31.75 0 0 0 0.0026 0.0775c0.49219 0.49085 1.7538 1.1672 4.0979-1.0707 1.0219-0.92392-1.1334-3.7382 0.18914-4.2519 1.1626-0.4516 1.4113 2.8236 2.6458 2.6458 0 0 1.7005-5.2916 8.801-0.72037 0.72238-2.9839-1.3256-5.1093 0.4594-6.0834 0.75468-0.41182 1.4257 1.4027 2.2676 1.2284 1.0983-0.22745 1.993-1.5275 2.0789-2.6458 0.18154-2.3624-3.6727-3.323-1.7952-6.7092 0.54964-0.76173 4.75 5.365 5.6694 0.85059-0.42845-0.98351-1.8797-1.4026-2.0789-2.4567-0.272-1.4388 1.1213-2.0483 1.4175-4.1579 0.28443-1.502 3.8728-0.60968 4.0633-2.1265-0.30062-0.49314-1.6122 0.24051-1.7007-0.33021-0.24186-1.56 4.1574-2.2681 4.1574-2.2681 1.5431-1.51 1.3488 3.9486 1.3488 3.9486 2.4359 1.3759 2.6013-2.7283 4.3212-4.5155 1.0783-0.39112 2.9617 1.9898 2.3606-2.4686a31.75 31.75 0 0 0-0.24753-0.06305 31.75 31.75 0 0 0-2.6107-0.39481c-0.32305 0.2042-0.65139 0.35407-1.0144 0.2806-0.24588-0.04976-0.44658-0.22156-0.63769-0.41651z" fill="url(#c)" fill-rule="evenodd"/>
<path d="m-25.621 91.995c0.96255-2.0544 3.5797-0.79379 3.4259 1.3717-0.0716 0.66609-0.79653 0.73066-1.2356 0.96822-1.9185 1.0382-3.0796-2.0636-2.1903-2.3399z" fill="#d60000" fill-rule="evenodd"/>
<path d="m-5.6228 92.499c1.1704 2.1927 3.8817 1.9823 2.7211 3.8342-4.7406 1.2432-4.9873-5.1969-2.7211-3.8342z" fill="#732300" fill-rule="evenodd"/>
<path d="m-0.39498 102.34c2.5602 1.0618 0.14999 2.8348 0.14999 2.8348-5.2579 0.96253-2.6635-3.8898-0.14999-2.8348z" fill="#7a2f40" fill-rule="evenodd"/>
<path d="m-38.897 117.04a31.75 31.75 0 0 0 1.002 2.2391 31.75 31.75 0 0 0 1.5787 2.7528 31.75 31.75 0 0 0 0.59893 0.83716c1.1849-1.2846 2.2825-3.0069 3.4055-2.2061 1.2798 0.91274-0.34453 2.9782-1.4102 4.8018a31.75 31.75 0 0 0 1.3467 1.5332 31.75 31.75 0 0 0 0.24908 0.23202c0.63141-0.92617 1.2921-1.9993 2.1771-2.0309 1.7898-0.0638 2.7378 3.5771 4.4411 3.0236 1.2413-0.40337 0.05756-3.3652 1.3229-3.685 1.1894-0.30069 1.5198 2.3338 2.7404 2.4567 1.0535 0.10607 1.8006-2.0944 2.7404-1.6066 1.3466 0.69886-0.3782 3.2202 0.37776 4.5356 0.76631 1.3334 2.2643 2.9059 3.7801 2.6458 1.3353-0.22909 2.5375-1.9639 2.3621-3.3073-0.2751-2.1075-4.5916-1.962-4.9139-4.0628-0.21063-1.3731 3.044-2.3442 2.2681-3.4964-0.46583-0.69172-1.7528 0.0251-2.4567 0.47233-0.72322 0.45948-0.65598 2.1151-1.5121 2.0789-1.3978-0.0591-1.3745-2.4425-2.1735-3.591-1.6772-2.4107-4.3599-2.1279-5.4803-6.8978-0.27111-1.1543-2.3775-1.1393-2.7404-2.2681-0.37883-1.1783 0.59609-2.4029 0.94464-3.5905 0.34502-1.1756 1.9358-2.5698 1.1343-3.4964-0.85708-0.99085-2.6225 1.0466-3.8747 0.66146-1.0859-0.33395-1.3292-2.2224-2.4567-2.3621-0.75605-0.0937-1.3724 0.68004-1.9844 1.1338-0.62645 0.46447-1.916 0.85656-1.7007 1.6061 0.5321 1.8524 4.8441-0.60735 5.6694 1.1343 0.48876 1.0314-1.775 1.8948-1.6061 3.0236 0.1648 1.1014 2.6492 1.2866 2.3621 2.3626-0.31119 1.1664-2.9095-0.11032-3.4964 0.94465-0.47962 0.86211 1.1265 1.8878 0.85059 2.835-0.25611 0.87907-1.2143 1.4939-2.0789 1.7952-0.98636 0.34377-2.2625-0.11134-3.467-0.50488z" fill="url(#d)" fill-rule="evenodd"/>
<path d="m-32.311 115.37c0.92051-0.99403 3.9462-0.12445 3.8743 1.2284-0.15072 2.8355 1.68 6.4432-0.56697 6.8036-1.1148 0.17882-0.89101-2.0751-1.3229-3.1183-0.67569-1.6321-3.1846-3.6176-1.9844-4.9137z" fill="url(#e)" fill-rule="evenodd"/>
<path d="m-24.163 119.53c2.2736-0.16868 4.8244 3.4229 2.9961 4.402-1.3307 0.71261-3.2171-1.2538-3.7011-2.3897-0.28187-0.66153-0.25873-1.9409 0.70497-2.0124z" fill="url(#w)" fill-rule="evenodd"/>
<path d="m-25.98 113.76c-1.3187-2.9169 1.838-3.0945 1.8899-4.8192 0.03682-1.2246-1.8066-2.4723-1.1339-3.4963 0 0 4.9955-4.643 5.4806-6.6146 0.24047-0.97731-1.53-1.956-1.0394-2.8348 2.2679-4.0632 0.32357-3.547 2.2679-4.0632 2.2966-0.60978 1.9985-3.7081 3.6853-2.4568 2.9174 2.1642 3.0308 0.17923 4.0632 1.1339 1.2803 1.1839 4.1764 2.9795 1.7954 4.9137-4.0078 3.2558-4.2668-2.8456-6.4256-2.1734 0 0-0.33639 2.6428-1.7009 4.6302-0.59263 0.86319 1.1263 2.2709 2.1734 2.2678 0.82438-2e-3 0.88439-1.9091 1.7009-1.7954 1.5489 0.21568 0.61456 2.4229 2.1734 4.1577 1.042 1.1597-2.3183 0.65773-3.3073 3.3073-0.55743 1.4934-2.6434-2.1369-4.1807-1.9939-1.3884 0.12916-3.3119 1.0735-3.3789 2.4664-0.07288 1.5154 3.3572 1.5073 3.4018 3.0238 0.03271 1.1131-2.7914 1.4712-2.3624 2.3624 0.9263 1.9238 2.142 1.3202 3.5678 0.87615 2.0192-1.2729 0.54952-3.2136 1.1569-4.1834 1.7954-2.5513 4.0405 1.0699 6.0476 0.75595 0.96068-0.15027 1.6902-1.4082 2.6458-1.2284 1.029 0.19363 1.1459 2.4695 2.1734 2.2679 1.4292-0.28051 0.15334-3.9644 1.6064-4.0632 1.1538-0.0785 0.61868 2.6161 1.7009 3.0238 1.156 0.43546 2.7023-2.1747 3.4963-1.2284 1.8584 2.2147-3.399 4.7971-4.2522 7.5595-0.2146 0.6948 0.33092 1.6649-0.18899 2.1734-0.69956 0.68412-2.0264-0.18801-2.9293 0.18899-0.35 0.14614-0.478 0.82768-0.85045 0.75596-1.2449-0.23975-2.319-2.2949-1.7009-3.4018 0.69374-1.2424 3.6283 0.90092 4.2522-0.37798 0.55932-1.1464-0.82453-2.981-2.0789-3.2128-0.99743-0.18429-1.4456 1.716-2.4568 1.7954-1.3061 0.10253-2.5069-2.6541-3.4963-1.7954-1.309 1.1361 2.5706 3.4144 1.7009 4.9137-1.1098 1.913-4.4502 0.44941-6.5201 1.2284-0.75331 0.28352-1.3031 1.443-2.0789 1.2284-2.418-0.66886-2.8375-4.6287-3.5908-6.6146-0.42112-1.1102-2.8181 2.4048-3.3073 1.3229z" fill="url(#s)" fill-rule="evenodd"/>
<path d="m-41.235 107.41a31.75 31.75 0 0 0 0.3483 2.868 31.75 31.75 0 0 0 0.06821 0.30386c0.58833 0.0481 1.215 0.0363 1.5152 0.447 0.81672 1.1176 0.04981 1.623-0.96583 2.0009a31.75 31.75 0 0 0 0.07751 0.34469 31.75 31.75 0 0 0 0.64647 1.9451c0.16989 0.0293 0.23997 0.0166 0.43098 0.0558 0.80992 0.16614 1.5918-1.7795 2.6458-2.2676 0.72366-0.33507 1.9954 0.32985 2.3621-0.37827 0.88758-1.7137-0.01656-2.3707-2.5513-5.1971-0.57207-0.63788-1.2415 1.331-2.0789 1.5121-0.77606 0.16774-1.7571-1.6404-2.4986-1.6345z" fill="url(#l)" fill-rule="evenodd"/>
<path d="m-10.861 81.542c-0.31761-0.89884-1.9496 0.0242-2.8348 0.37797-1.3614 0.54411-3.6553 1.1208-3.5595 2.5838 0.12806 1.9548 3.5112 1.7537 5.1659 2.8024 0.49487 0.31365 1.1526 0.51681 1.4174 1.0394 0.29899 0.59003-0.4763 1.5254 0 1.9844 0.6128 0.59053 1.7551-0.39483 2.5513-0.0945 0.77134 0.29093 1.277 2.2529 1.7954 1.7009 2.2481-2.3937 4.5058-4.0253 3.3073-5.9531-0.96522-1.5526-4.2848 2.8933-5.4779 0.26727-1.7312-3.8103-2.3651-1.846-2.3651-4.7085z" fill="url(#r)" fill-rule="evenodd"/>
<path d="m-9.9634 101.72c1.9927-2.2664 2.8402-5.94 4.583-4.4885 1.5518 1.2925-0.10399 3.7637 1.0394 8.032 0.34281 1.2797-3.6712 0.0648-3.26-1.1339 0 0-3.2334-1.4189-2.3624-2.4096z" fill="url(#q)" fill-rule="evenodd"/>
<path d="m5.833 77.142a31.75 31.75 0 0 0-0.21032-0.12919 31.75 31.75 0 0 0-2.5218-1.218c0.19623 0.44219 0.30898 0.86668 0.11782 1.2108-0.40643 0.73161-2.5002 1.6761-2.3626 0.85059 0.19692-1.1818 0.11882-2.2556-0.22944-3.004a31.75 31.75 0 0 0-0.84284-0.30799 31.75 31.75 0 0 0-0.96738-0.24701c-0.28679 0.44873-0.42408 1.1659-0.5116 1.6691-0.17478 1.0051 2.5512 1.8897 0.47232 3.0236-0.96465 0.52618-1.7536-1.5597-2.7399-1.3229-0.96174 0.23085-1.7958 2.3626-1.7958 2.3626s1.4051 2.1869 2.5513 2.5513c1.0659 0.33888 1.9041-3.5543 3.3073-0.56689 0.86139 1.8339-1.7708 0.93138-2.3621 1.7007-0.43139 0.56118-1.1387 1.3889-0.75603 1.9844 0.52899 0.82314 2.1142-0.35181 2.9295 0.18914 0.41082 0.27257 0.18131 1.211 0.66146 1.3229 1.1166 0.26036 2.4121-0.9804 2.7404-2.0789 0.29668-0.9927-1.7254-2.1523-1.0397-2.929 1.2126-1.3738 2.2148-3.4521 3.5595-5.0612z" fill="url(#h)" fill-rule="evenodd"/>
<path transform="matrix(.26458 0 0 .26458 41.694 41.419)" d="m-88.363 296.98a120 120 0 0 0 5.0273-10.41 120 120 0 0 0 0.91797-2.5137c0.2138-2.0207 0.22996-4.0206-0.06055-5.7812-0.79486-4.8173-5.2195-10.662-10.102-10.605-2.5027 0.029-2.552 5.4118-5.0508 5.5547-3.5735 0.20417-4.5013-7.0049-8.0801-7.0703-3.4702-0.0633-4.6118 6.6299-8.082 6.5664-3.5788-0.0653-8.082-7.0723-8.082-7.0723-1.7933-5.1797 6.9386-9.0295 3.0312-16.162-5.8275-10.638-5.9031 6.8843-9.5957 6.0606-3.5099-0.78297-7.1654-5.7595-5.8086-9.0898 1.4022-3.4416 7.7776-0.44839 10.859-2.5254 4.6092-3.1065 5.2387-10.633 9.5957-13.637 2.7938-1.9261-3.0996-6.3972-4.041-9.3457-4.9584-15.53 6.5921-44.153-4.041-44.699-8.5933-0.4413-2.7864 6.1121-5.5547 7.5762-6.2794 3.321-22.561-17.916-22.225 1.0117 0.0874 4.9163-5.1184-8.0857-16.615-3.377-8.4864 3.4758 0.82404 11.014 4.9629 11.457 8.6086 1.3014-10.028 17.925-6.5293 26.77 11.748 10.208 10.101-13.529 14.395-18.436 6.839-7.8153-3.7029 22.304 3.7871 28.031 5.1259 3.9196 14.232-6.6512 19.193-2.5254 2.463 2.0481 3.3012 8.0335 0.50586 9.5977 0 0-13.317-2.6574-18.688 0.50391-3.7075 2.1825-7.3642 6.8837-6.5664 11.111 0.91183 4.8318 10.972 4.2172 11.617 9.0918 0.44193 3.3381-6.1662 4.7164-6.0625 8.082 0.16001 5.1928 10.102 11.869 10.102 11.869 4.236 4.4454 8.8391-10.607 10.859-10.102 16.92 10.354-6.9365 8.1386-6.3125 12.879 0.802 6.0926 5.9853 14.229 12.121 13.891 6.0389-0.33316 4.3124-14.61 10.354-14.9 5.0708-0.2434 12.037 6.1989 9.8496 11.617-1.7029 4.218 6.1765 9.6148 10.607 8.5859 1.3963-0.32422 2.6022-1.0786 3.7109-2.0039z" fill="url(#p)" fill-rule="evenodd"/>
<path d="m15.016 84.85a31.75 31.75 0 0 0-1.8392-2.0939 31.75 31.75 0 0 0-1.4046-1.3079c-0.49527 0.09743-0.98812 0.18622-1.4557 0.18965-1.2918 0.01-2.6687-3.4256-3.8757 0-1.2474 3.5402 2.6125 1.8166 3.5414 3.0737 0.88293 1.195-1.3896 3.7817 1.804 4.0757 2.6328 0.24242 1.9705-2.9978 3.2298-3.9372z" fill="url(#n)" fill-rule="evenodd"/>
<path d="m4.5036 85.446c0.275-0.70697 1.6827-0.34433 2.2718 0.13363 0.59159 0.48001 1.2399 1.7894 0.60136 2.205-1.035 0.67356-3.3208-1.1877-2.8731-2.3386z" fill="#8a394a" fill-rule="evenodd"/>
<path d="m22.083 106.24a31.75 31.75 0 0 0 0.06821-1.3653 31.75 31.75 0 0 0-0.07235-2.035c-0.60127-0.48312-1.2992-0.85314-1.9456-0.88884-1.3611-0.0752-1.9128 3.2826-3.1182 2.6458-1.5962-0.8433-0.93853-4.3898 0.56689-5.3862 0.98872-0.65442 2.2489 1.3157 3.4019 1.0392 0.25095-0.0602 0.50948-0.17053 0.76326-0.29249a31.75 31.75 0 0 0-0.05788-0.47904 31.75 31.75 0 0 0-0.69505-3.0965 31.75 31.75 0 0 0-0.46922-1.4128c-0.91278 0.03226-1.9294 0.34262-2.4706-0.29404-1.0826-1.2736-0.13483-3.1803 0.20257-4.9692a31.75 31.75 0 0 0-1.1389-1.9854 31.75 31.75 0 0 0-1.388-1.9415c-0.28617 1.3586 1.71 4.2869 0.4346 5.3051-0.95592 0.76312-2.8339-1.7171-3.5905-0.75603-0.90638 1.1513 1.5904 2.5344 1.8898 3.9688 0.39288 1.8818 0.02569 3.8541-0.18914 5.7645-0.11114 0.98833-0.81655 1.9663-0.56689 2.929 0.25815 0.99547 1.7972 1.3514 1.9844 2.3626 0.33358 1.8022-2.7161 3.6124-1.7952 5.1971 0.51525 0.88666 2.1162 1.0447 3.0236 0.56689 1.3102-0.68993 0.71522-3.0503 1.7952-4.0633 0.77206-0.72415 2.2669-0.59695 3.3672-0.81339z" fill="url(#o)" fill-rule="evenodd"/>
<path d="m-4.2346 136.17a31.75 31.75 0 0 0 0.032041-4e-3 31.75 31.75 0 0 0 2.9616-0.66456c-0.64661-2.604-0.59595-4.4025 1.1524-5.3883 1.4421-0.81307 1.4255 2.4214 1.1281 4.6452a31.75 31.75 0 0 0 0.86661-0.28784 31.75 31.75 0 0 0 0.89193-0.39894c-0.0086-2.1478 0.23151-4.1476 0.23151-4.1476 0.088762-0.77417-1.6356-0.11171-2.2681-0.56689-1.4255-1.0259-4.115-3.2391-2.8345-4.4411 2.0707-1.9437-0.099983-3.8295 1.3229-4.2524 1.1365-0.33782 1.589 2.551 2.7404 2.2681 1.6588-0.40755 2.8534-3.2542 1.9844-4.7248-1.0636-1.7998-3.9616 0.0264-6.2368-0.66146-1.3671-0.41331-0.096152 1.9073-3.2127 2.835-1.0397 0.30947 1.3901 1.8446 1.4175 2.929 0.02241 0.88894-0.87 1.5843-1.0397 2.4572-0.37281 1.9172 0.65883 3.9887 0.094567 5.8586-0.17669 0.58551-0.95577 0.9062-1.0392 1.5121-0.15658 1.1369 1.7155 1.8311 1.8071 3.0329z" fill="url(#m)" fill-rule="evenodd"/>
<path d="m5.5904 92.213c-1.4377 1.8712-1.9747 2.6852-1.2284 3.7798 1.4174 2.0789 1.7618 3.8281 3.0238 3.1183 2.0709-1.1647-0.20818-8.9638-1.7954-6.8981z" fill="url(#g)" fill-rule="evenodd"/>
<path d="m-14.452 121.42c-0.22942-0.80671 0.62835-1.7946 1.4174-2.0789 1.6038-0.57775 4.4048-0.20955 4.9137 1.4174 0.32746 1.047-1.4412 3.444-2.0789 2.5513-2.8348-3.9688-3.8279-0.39795-4.2522-1.8899z" fill="#97182c" fill-rule="evenodd"/>
<path d="m-14.168 125.01c0.46298-1.2256 3.1306-2.4716 3.8743 0.66146 0.40351 1.7 2.448 0.22443 3.0238 1.1339 1.0145 1.6023 1.3706 5.223-0.47247 5.6696-0.86638 0.20993-1.5119-1.8899-1.4174-2.2679 0.09449-0.37797-0.94706-2.3266-1.7954-3.2128-0.8704-0.9093-3.6576-0.80686-3.2128-1.9844z" fill="url(#k)" fill-rule="evenodd"/>
<path d="m8.6994 130.78a31.75 31.75 0 0 0 1.4376-1.0284 31.75 31.75 0 0 0 2.3844-2.095 31.75 31.75 0 0 0 2.1632-2.3218 31.75 31.75 0 0 0 1.9208-2.5265 31.75 31.75 0 0 0 0.35295-0.57619c-0.4363-0.68963-0.77836-1.5213-1.4557-1.4712-1.1791 0.0871-2.6458 2.3626-2.6458 2.3626-1.3058 0.36498 1.006 3.4229-0.18913 4.0633-0.9713 0.52052-2.5753-0.63013-2.8345-1.7012-0.25288-1.0449 1.889-1.6819 1.7007-2.7404-0.22402-1.2593-2.188 0.76177-3.0236-2.3621-0.39714-1.4848-2.0377 2.3465-3.3073 3.2127-0.94314 0.64353-3.5923 0.37859-3.1187 1.4175 0.84086 1.8442 1.8513 1.8478 3.4019 5.764 0.50229 1.2686 1.6897 0.35775 3.2132 3e-3z" fill="url(#i)" fill-rule="evenodd"/>
<path d="m6.9038 127.56s-0.58147-1.8314 0-2.3624c0.5138-0.46921 1.8347-0.46259 2.0789 0.18899 0.35173 0.93878-1.6055 3.0571-2.0789 2.1734z" fill="#812100" fill-rule="evenodd"/>
<path d="m-24.114 133.08a31.75 31.75 0 0 0 2.1508 1.0387 31.75 31.75 0 0 0 2.9812 1.0883 31.75 31.75 0 0 0 3.0329 0.77411c0.08987-1.45-2.98-3.7032-3.3223-6.627-0.26308-2.247-1.6097 1.294-2.5513 1.2284-0.79305-0.0553-1.269-1.6698-1.9844-1.3229-2.7043 1.3112-0.5008 2.6484-0.30696 3.8204z" fill="url(#a)" fill-rule="evenodd"/>
<path d="m-29.716 129.42a31.75 31.75 0 0 0 2.1895 1.6645 31.75 31.75 0 0 0 0.38344 0.23513c0.1207-0.16336 0.21192-0.33758 0.21756-0.54312 0.02352-0.85652-0.66053-1.9791-1.5115-2.0789-0.50206-0.0589-0.91444 0.28793-1.279 0.72244z" fill="url(#a)" fill-rule="evenodd"/>
<path d="m-13.835 136.31a31.75 31.75 0 0 0 1.0661 0.16124 31.75 31.75 0 0 0 3.1693 0.15864 31.75 31.75 0 0 0 2.2459-0.0796 31.75 31.75 0 0 0 0.36742-0.0444c1.1885-0.2725-1.7172-3.3786-3.9698-3.0417 0 0-2.1068 1.4986-2.8789 2.8458z" fill="url(#j)" fill-rule="evenodd"/>
<path d="m-34.986 85.897c-0.74364 0.97835 0.30138 3.6037 1.435 3.5218 0.84775-0.0612 1.1692-1.9111 0.77267-2.7672-0.35861-0.77423-1.7046-1.4164-2.2076-0.75468z" fill="#82261f" fill-rule="evenodd"/>
<path d="m12.225 104.92c-0.7644 0.66896-0.61926 2.8306 0.37798 3.0238 0.95512 0.18504 1.7991-1.6565 1.4174-2.5513-0.2428-0.56922-1.3297-0.88002-1.7954-0.47247z" fill="#82261f" fill-rule="evenodd"/>
<path d="m-0.038982 114.11c-0.33284 0.77793-0.11881 2.9692 0.43367 2.8012 1.0686-0.32503 2.7218-2.0713 2.2768-2.9879-0.58004-1.1948-2.174-1.067-2.7104 0.18674z" fill="#820b00" fill-rule="evenodd"/>
<path d="m-6.6649 80.916c-2.267 1.4002-0.85557 1.6842-0.66817 2.5391 0.21006 0.95825 0.93902 2.5784 1.8709 2.2718 3.4805-1.145-1.2027-4.8109-1.2027-4.8109z" fill="url(#f)" fill-rule="evenodd"/>
<path d="m11.752 117.96s1.696 0.0315 1.7954 0.66146c0.1748 1.1079-2.6458 2.0789-2.6458 2.0789-1.6154 0.30666 0.85045-2.7403 0.85045-2.7403z" fill="#812100" fill-rule="evenodd"/>
<path d="m-21.622 78.965c0.78536 1.515-1.3515 2.4483-0.40808 2.7486 1.7463 0.5557 5.2124-6.8018 2.7734-4.4454-0.82199 0.79416-2.7972 0.86377-2.3653 1.6968z" fill="#812100" fill-rule="evenodd"/>
<path d="m-0.21942 124.57c-0.84672 0.40014-0.57549 2.1946 0.13363 2.8063 0.67796 0.58482 3.5412-0.0495 2.6727-0.26726-3.0468-0.76398-1.6658-3.0781-2.8063-2.5391z" fill="#97182c" fill-rule="evenodd"/>
<path d="m-31.557 101.18c1.0227 1.625-0.37263 3.8003 0.53454 3.2072 3.3956-2.2198 4.8635 0.93832 5.479-0.80181 0.3533-0.99878-7.3777-4.573-6.0136-2.4054z" fill="url(#b)" fill-rule="evenodd"/>
<path d="m-20.014 105.29c-2.1584 0.39322 0.45457 3.0221 1.7291 2.8522 1.1649-1.4285 2.593-0.30411 2.5472-1.2486-0.0738-1.5206-2.3032-1.9631-4.2763-1.6036z" fill="#82261f" fill-rule="evenodd"/>
<path d="m-11.8 130.98c-0.11329 2.0078-3.2656 2.4308-2.9184 3.3557 0.38039 1.0134 5.1216-1.461 5.2456-2.8578 0.14477-1.6306-2.2435-1.9802-2.3271-0.49794z" fill="#a42119" fill-rule="evenodd"/>
<path d="m-28.583 94.099c-2.1286 0.15242-2.3584 2.0224-4.5102 4.5436-1.3128 1.5382 3.5032 0.82913 3.8086-1.47 0.19224-1.447 2.6689-0.49214 2.7395-1.5368 0.0573-0.84888-1.1893-1.5976-2.0379-1.5368z" fill="#a42119" fill-rule="evenodd"/>
</g>
</g>
</svg>
