<?xml version="1.0" encoding="UTF-8"?>
<svg width="512" height="512" version="1.1" viewBox="0 0 135.47 135.47" xmlns="http://www.w3.org/2000/svg" xmlns:xlink="http://www.w3.org/1999/xlink">
<defs>
<linearGradient id="b">
<stop stop-color="#00d800" offset="0"/>
<stop stop-color="#fff" offset="1"/>
</linearGradient>
<linearGradient id="a" x1="23.671" x2=".61894" y1=".66044" y2="23.39" gradientUnits="userSpaceOnUse" xlink:href="#b"/>
</defs>
<g transform="translate(6.35 6.35)">
<rect x="5.9379" y="5.9467" width="55.435" height="55.435" fill="#00aeef" stroke-width=".99997" style="paint-order:stroke markers fill"/>
<rect x="61.373" y="5.9467" width="55.435" height="55.435" fill="#ec008c" stroke-width=".99997" style="paint-order:stroke markers fill"/>
<rect x="5.9448" y="61.381" width="55.435" height="55.435" fill="#fff200" stroke-width=".99997" style="paint-order:stroke markers fill"/>
<rect x="61.373" y="61.381" width="55.435" height="55.435" stroke-width=".99997" style="paint-order:stroke markers fill"/>
<rect x="3.1749" y="3.1749" width="116.42" height="116.42" fill="none" stroke="#00f" stroke-width="6.3499" style="paint-order:stroke markers fill"/>
<g transform="matrix(-2.5163 0 0 2.5163 116.84 56.251)" fill="url(#a)" stroke-width=".10515">
<path d="m23.261 4.9417-0.1306-0.2585-3.3822 3.3822c-1.0615 1.0615-2.8018 1.0307-3.8239-0.0924-0.9574-1.052-0.8649-2.6903 0.1409-3.6961l3.3295-3.3295-0.2585-0.1306c-2.5177-1.2717-5.2755-0.5618-7.2331 1.3959-1.8476 1.8476-2.6576 4.3269-1.7344 6.7154l-9.3172 9.3172c-0.9112 0.9113-0.9112 2.3887 0 3.2999l1.6811 1.6811c0.9112 0.9113 2.3887 0.9113 3.2999 0l9.3172-9.3172c2.3885 0.9232 4.8677 0.1133 6.7154-1.7344 1.9577-1.9575 2.6676-4.7153 1.3959-7.233zm-19.387 16.477c-0.7178 0-1.2996-0.5819-1.2996-1.2996 0-0.7178 0.5819-1.2997 1.2996-1.2997s1.2996 0.5819 1.2996 1.2997c0 0.7177-0.5819 1.2996-1.2996 1.2996z" fill="url(#a)" stroke-width=".015168"/>
</g>
</g>
</svg>
