<?xml version="1.0" encoding="UTF-8"?>
<svg version="1.1" viewBox="0 0 512 512" xml:space="preserve" xmlns="http://www.w3.org/2000/svg" xmlns:xlink="http://www.w3.org/1999/xlink"><defs><linearGradient id="linearGradient24" x1="265.79" x2="260.64" y1="468.34" y2="238.86" gradientTransform="matrix(.97992 0 0 .97992 4.9117 4.9118)" gradientUnits="userSpaceOnUse"><stop stop-color="#a0a0a0" offset="0"/><stop offset=".55788"/></linearGradient><linearGradient id="linearGradient25" x1="-10.64" x2="2.4846" y1="375.27" y2="387.39" gradientTransform="matrix(6.7317,0,0,6.7317,141.91,-2449.2)" gradientUnits="userSpaceOnUse"><stop stop-color="#f00" offset="0"/><stop stop-color="#ff8700" stop-opacity=".60763" offset="1"/></linearGradient><linearGradient id="linearGradient7841-2" x1="-10.243" x2="2.5754" y1="375.23" y2="387.6" gradientTransform="matrix(3.3212,0,0,3.3212,605.53,-870.69)" gradientUnits="userSpaceOnUse"><stop stop-color="#0f0" offset="0"/><stop stop-color="#23ff75" stop-opacity=".50196" offset="1"/></linearGradient><linearGradient id="linearGradient7843-7" x1="-9.873" x2="2.2932" y1="374.73" y2="386.19" gradientTransform="matrix(3.3212,0,0,3.3212,657.72,-869.63)" gradientUnits="userSpaceOnUse"><stop stop-color="#00f" offset="0"/><stop stop-color="#00c4ff" stop-opacity=".49412" offset="1"/></linearGradient><linearGradient id="a-37" x1="40.127" x2="471.39" y1="91.734" y2="91.734" gradientTransform="matrix(1.0039 0 0 1.721 -.7472 -25.699)" gradientUnits="userSpaceOnUse"><stop stop-color="#5309a9" offset=".06852"/><stop stop-color="#1524ae" offset=".19366"/><stop stop-color="#0bc6b8" offset=".3224"/><stop stop-color="#09f318" offset=".46004"/><stop stop-color="#c0db0a" offset=".60644"/><stop stop-color="#f6b605" offset=".72832"/><stop stop-color="#f7480a" offset=".86726"/><stop stop-color="#881414" offset="1"/></linearGradient><linearGradient id="linearGradient47" x1="-252.56" x2="-46.726" y1="-202.23" y2="-202.23" gradientTransform="matrix(1.1074,0,0,1.1074,345.64,566.32)" gradientUnits="userSpaceOnUse" xlink:href="#a-37"/><linearGradient id="linearGradient48" x1="-252.56" x2="-46.726" y1="-324.82" y2="-324.82" gradientTransform="matrix(1.1074,0,0,1.1074,345.64,586.32)" gradientUnits="userSpaceOnUse" xlink:href="#a-37"/></defs><path d="m36 36h440v440h-440z" fill="url(#linearGradient24)" stop-color="#000000" stroke="#000" stroke-linecap="square" stroke-width="24" style="paint-order:markers fill stroke"/><path d="m35.989 35.989h440.02v440.02h-440.02z" fill="none" stop-color="#000000" stroke="#000" stroke-linecap="square" stroke-opacity=".4018" stroke-width="23.979" style="paint-order:markers fill stroke"/><path d="m65.941 230.38v165.41c0 17.523 13.453 33.108 37.881 43.887 21.418 9.4479 45.134 14.652 75.494 14.652s55.278-5.2032 76.695-14.652c5.2399-2.3119 9.9409-4.8578 14.146-7.584 0.7808-4.8761 3.203-9.612 5.1758-14.072-2.8275 0.3281-5.6571 0.65917-8.502 0.79101-9.441 0.96635-19.222-4.4608-22.549-13.512-2.4412-7.1522-5.8321-14.616-4.6328-22.34 1.3866-9.3898 9.8085-15.107 17.502-19.314-2.1394-1.2804-4.2641-2.5839-6.3594-3.9356-8.2349-4.3811-13.062-14.229-10.91-23.389 2.2888-8.2399 4.3101-17.574 11.369-23.166 6.9192-5.8362 16.411-4.4801 24.689-3.5488-1.1191-2.2666-2.237-4.5356-3.1934-6.877-4.1115-8.6476-2.5441-19.861 4.8906-26.221 5.06-3.9179 10.245-8.4946 16.254-10.904v-35.229c-6.3058 5.5979-15.671 11.103-29.393 15.941-22.776 8.031-52.814 12.455-84.582 12.455s-61.808-4.4241-84.584-12.455c-13.721-4.8385-21.632-10.267-29.393-15.941z" fill="url(#linearGradient47)" stroke="#fff" stroke-linecap="round" stroke-linejoin="round" stroke-width="16.612"/><ellipse cx="179.92" cy="226.59" rx="113.97" ry="40.191" fill="url(#linearGradient48)" stroke="#fff" stroke-width="16.612"/><path d="m420.48 370.38 23.575 13.372c1.79 1.0159 2.6087 3.1871 1.9417 5.1567l-3.1719 9.3699c-0.64463 1.9039-2.5016 3.0988-4.4712 2.879l-26.697-2.981-8.5966 11.717 11.399 23.606c0.92792 1.9209 0.32455 4.2415-1.4142 5.4489l-8.9892 6.2371c-1.6272 1.1292-3.8054 0.97063-5.2564-0.38168l-19.718-18.371-13.573 4.5949-4.9664 25.541c-0.4004 2.0602-2.206 3.5257-4.2727 3.4691l-11.329-0.31145c-1.9596-0.0532-3.6269-1.4656-4.0329-3.4125l-5.2608-25.286-12.669-4.5949-19.218 17.769c-1.5112 1.3965-3.7875 1.5007-5.4147 0.24691l-8.7762-6.7604c-1.5871-1.2232-2.1213-3.4034-1.2837-5.2393l10.714-23.475-7.4658-11.027-26.377 3.1712c-2.0098 0.24124-3.908-0.99327-4.5314-2.9492l-3.2845-10.309c-0.62122-1.9514 0.19853-4.0773 1.9607-5.0796l23.41-13.32-0.4528-11.945-22.972-13.333c-1.7544-1.0182-2.5562-3.152-1.9183-5.0978l3.2522-9.909c0.62791-1.9118 2.4782-3.1259 4.4522-2.9209l26.684 2.7748 8.1438-11.487-11.405-22.892c-0.94688-1.9016-0.38254-4.22 1.3294-5.4534l9.49-6.8386c1.6428-1.1836 3.8801-1.0295 5.35 0.36809l19.215 18.275 13.12-4.1351 5.3701-26.14c0.41044-1.9956 2.1425-3.4249 4.1489-3.4249h11.348c2.012 0 3.7463 1.4361 4.1511 3.4374l5.2932 26.129 12.669 4.5949 19.337-17.872c1.4387-1.3297 3.5845-1.4939 5.2039-0.39868l8.987 6.0842c1.7532 1.187 2.3811 3.5008 1.4755 5.433l-11.251 23.984 7.4658 10.797 26.6-3.1758c1.9953-0.23784 3.8812 0.97856 4.5158 2.9141l3.2511 9.9056c0.63237 1.9254-0.14611 4.0377-1.8681 5.0683l-22.998 13.774zm-68.681-40.241c-18.033 0-32.651 14.845-32.651 33.158s14.618 33.158 32.651 33.158 32.651-14.845 32.651-33.158-14.619-33.158-32.651-33.158z" fill="#dbdbdb" fill-rule="evenodd" stroke-width="1.6252"/><g transform="matrix(1.1127 0 0 1.1127 -40.237 -15.38)" stroke-linecap="round"><g transform="matrix(.85714 0 0 .85714 215.55 8.251)"><ellipse cx="116.23" cy="116.1" rx="63.236" ry="63.192" fill="url(#linearGradient25)" opacity=".89207" stroke="#000" stroke-width="12.161"/><ellipse cx="116.23" cy="116.1" rx="64.844" ry="64.933" fill="none" stroke="#fff" stroke-opacity=".99743" stroke-width="10.134"/></g><g transform="matrix(1.7373 0 0 1.7373 -626.28 -488.11)"><ellipse cx="592.86" cy="394.96" rx="31.198" ry="31.177" fill="url(#linearGradient7841-2)" stroke="#000" stroke-width="6"/><ellipse cx="592.86" cy="394.96" rx="31.992" ry="32.036" fill="none" stroke="#fff" stroke-opacity=".99743" stroke-width="5"/></g><g transform="matrix(1.7373 0 0 1.7373 -716.97 -580.24)"><ellipse cx="645.06" cy="396.01" rx="31.198" ry="31.177" fill="url(#linearGradient7843-7)" stroke="#000" stroke-width="6"/><ellipse cx="645.06" cy="396.01" rx="31.992" ry="32.036" fill="none" stroke="#fff" stroke-opacity=".99743" stroke-width="5"/></g></g></svg>
