<?xml version="1.0" encoding="UTF-8"?>
<svg width="512" height="512" version="1.1" viewBox="0 0 135.47 135.47" xmlns="http://www.w3.org/2000/svg" xmlns:xlink="http://www.w3.org/1999/xlink">
<defs>
<linearGradient id="b">
<stop stop-color="#00d800" offset="0"/>
<stop stop-color="#fff" offset="1"/>
</linearGradient>
<linearGradient id="a" x1="23.671" x2=".61894" y1=".66044" y2="23.39" gradientUnits="userSpaceOnUse" xlink:href="#b"/>
<linearGradient id="c" x1="13.985" x2="75.028" y1="72.104" y2="13.329" gradientTransform="matrix(1.907 0 0 1.9806 -180.02 -98.348)" gradientUnits="userSpaceOnUse">
<stop stop-color="#191c7e" offset="0"/>
<stop stop-color="#7cbdf9" offset="1"/>
</linearGradient>
<radialGradient id="d" cx="-76.54" cy="23.912" r="21.167" gradientTransform="matrix(-.024365 2.612 -2.5524 -.023808 -58.548 161.81)" gradientUnits="userSpaceOnUse">
<stop stop-color="#69f3cf" offset="0"/>
<stop stop-color="#3276e7" offset="1"/>
</radialGradient>
</defs>
<g transform="translate(0,12.7)">
<g transform="translate(2.5928e-6)">
<g transform="translate(162.87 68.774)">
<rect x="-153.35" y="-71.949" width="116.42" height="116.42" fill="url(#c)" stroke="#1520fe" stroke-width="6.3497" style="paint-order:normal"/>
<ellipse cx="-100.69" cy="-18.889" rx="44.348" ry="44.348" fill="url(#d)" stroke-width=".99997" style="paint-order:normal"/>
</g>
<g transform="matrix(1.2 0 0 1.2 -200.91 71.445)" fill="none" stroke="#a00" stroke-width="4.8506">
<rect x="197.39" y="-40.17" width="23.283" height="23.283" stroke-linecap="round"/>
<path d="m209.03-54.987v52.917"/>
<path d="m182.57-28.529h52.917"/>
</g>
<g transform="matrix(-2.5163 0 0 2.5163 123.19 49.901)" fill="url(#a)" stroke-width=".10515">
<path d="m23.261 4.9417-0.1306-0.2585-3.3822 3.3822c-1.0615 1.0615-2.8018 1.0307-3.8239-0.0924-0.9574-1.052-0.8649-2.6903 0.1409-3.6961l3.3295-3.3295-0.2585-0.1306c-2.5177-1.2717-5.2755-0.5618-7.2331 1.3959-1.8476 1.8476-2.6576 4.3269-1.7344 6.7154l-9.3172 9.3172c-0.9112 0.9113-0.9112 2.3887 0 3.2999l1.6811 1.6811c0.9112 0.9113 2.3887 0.9113 3.2999 0l9.3172-9.3172c2.3885 0.9232 4.8677 0.1133 6.7154-1.7344 1.9577-1.9575 2.6676-4.7153 1.3959-7.233zm-19.387 16.477c-0.7178 0-1.2996-0.5819-1.2996-1.2996 0-0.7178 0.5819-1.2997 1.2996-1.2997s1.2996 0.5819 1.2996 1.2997c0 0.7177-0.5819 1.2996-1.2996 1.2996z" fill="url(#a)" stroke-width=".015168"/>
</g>
</g>
</g>
</svg>
