<svg xmlns="http://www.w3.org/2000/svg" xmlns:xlink="http://www.w3.org/1999/xlink" height="512" width="512"><defs><linearGradient y2="36.375" x2="34.5" y1="34.75" x1="23.375" gradientTransform="translate(-2 -10.871)" gradientUnits="userSpaceOnUse" id="b" xlink:href="#a"/><linearGradient id="a"><stop offset="0" stop-color="#219dff"/><stop offset="1" stop-color="#197edf"/></linearGradient></defs><path d="M0 0h512v512H0z" fill="none"/><path d="M-.012 136.534l204.8 136.533v238.934L-.012 375.467z" fill="#73c0ff"/><path d="M29.9 17.504l12 8-14 8-12-8z" fill="url(#b)" transform="translate(-271.372 -298.734) scale(17.06666)"/><path d="M443.721 136.534v238.933L204.788 512.001V273.067z" fill="#0c71c2"/><path d="M307.2 0H512v512H307.2z" opacity=".6"/><path d="M392.863 446.919v-30.005q0-9.506-3.65-14.16-3.753-4.654-11.261-4.654-6.987 0-10.532 4.357-3.65 4.357-3.65 12.873v31.589zm62.984 0v-28.222q0-13.368-3.858-18.716-3.963-5.347-13.244-5.347-8.342 0-12.513 5.15-4.275 5.05-4.275 15.15v31.985zm30.553 35.747H332.8v-70.802q0-25.45 9.698-37.53 9.593-12.18 29.614-12.18 12.41 0 20.543 5.446 8.03 5.348 12.409 16.438 3.441-12.675 12.409-19.408 8.863-6.734 22.107-6.734 12.93 0 23.358 5.644 10.427 5.546 16.162 15.646 3.963 6.833 5.631 16.537 1.669 9.705 1.669 29.906zm0-147.744H332.8V283.53l74.766-19.211q9.907-2.575 19.292-4.654 9.28-2.08 18.144-3.664-9.385-1.882-19.604-4.258-10.324-2.377-22.107-5.446L332.8 228.174V176.88h153.6v34.064h-68.093q-7.195 0-20.125-.297-13.035-.396-30.032-1.09l118.25 28.024v37.035l-118.25 27.43q20.438-.693 36.81-1.089 16.267-.396 25.443-.396H486.4zm-85.82-224.488V85.678q0-10.1-4.484-14.853-4.588-4.853-14.077-4.853-9.177 0-13.66 5.05-4.589 4.952-4.589 15.052v24.36zm85.82 37.53H332.8V81.222q0-25.35 12.409-38.62 12.305-13.269 35.663-13.269 24.505 0 37.644 13.072 13.034 13.07 13.034 37.629v30.4h54.85z" fill="#fff"/></svg>