<svg xmlns="http://www.w3.org/2000/svg" xmlns:xlink="http://www.w3.org/1999/xlink" height="512" width="512"><defs><linearGradient y2="36.375" x2="34.5" y1="34.75" x1="23.375" gradientTransform="translate(-2 -10.871)" gradientUnits="userSpaceOnUse" id="b" xlink:href="#a"/><linearGradient id="a"><stop offset="0" stop-color="#219dff"/><stop offset="1" stop-color="#197edf"/></linearGradient></defs><path d="M0 0h512v512H0z" fill="none"/><path d="M-.012 136.534l204.8 136.533v238.934L-.012 375.467z" fill="#73c0ff"/><path d="M29.9 17.504l12 8-14 8-12-8z" fill="url(#b)" transform="translate(-271.372 -298.734) scale(17.06666)"/><path d="M443.721 136.534v238.933L204.788 512.001V273.067z" fill="#0c71c2"/><path d="M307.2 0H512v512H307.2z" opacity=".6"/><path d="M486.608 327.718l-19.812 3.97q12.096 10.982 18.04 26.2 5.84 15.084 5.84 35.33 0 18.921-5.423 35.064-5.423 16.011-15.955 28.317-10.844 12.835-25.547 19.451-14.703 6.616-32.118 6.616-37.644 0-60.376-27.258-22.732-27.39-22.732-72.777 0-34.27 13.556-56.5 13.556-22.363 37.956-28.318v47.768q-9.906 4.764-14.911 14.556-5.11 9.791-5.11 23.95 0 21.436 13.765 34.668 13.764 13.232 36.392 13.232 22.316 0 35.559-12.967 13.139-13.1 13.139-34.933 0-17.467-6.987-28.846-6.986-11.512-19.5-14.29v43.4h-29.51v-87.86h83.734zm0-68.94h-153.6v-49.752h153.6zm0-89.581h-153.6V29.333h31.91v90.243h31.804V41.242h31.804v78.334h58.082z" fill="#fff"/></svg>