<svg xmlns="http://www.w3.org/2000/svg" xmlns:xlink="http://www.w3.org/1999/xlink" height="512" width="512"><defs><linearGradient y2="36.375" x2="34.5" y1="34.75" x1="23.375" gradientTransform="translate(-2 -10.871)" gradientUnits="userSpaceOnUse" id="b" xlink:href="#a"/><linearGradient id="a"><stop offset="0" stop-color="#219dff"/><stop offset="1" stop-color="#197edf"/></linearGradient></defs><path d="M0 0h512v512H0z" fill="none"/><path d="M-.012 136.534l204.8 136.533v238.934L-.012 375.467z" fill="#73c0ff"/><path d="M29.9 17.504l12 8-14 8-12-8z" fill="url(#b)" transform="translate(-271.372 -298.734) scale(17.06666)"/><path d="M443.721 136.534v238.933L204.788 512.001V273.067z" fill="#0c71c2"/><path d="M307.2 0H512v512H307.2z" opacity=".6"/><path d="M486.244 482.667h-153.6v-47.074h153.6zm-53.807-248.138q27.633 4.757 42.857 26.166 15.225 21.283 15.225 55.086 0 40.438-22.003 65.227-22.002 24.788-57.873 24.788-37.331 0-59.542-25.164-22.211-25.29-22.211-67.605 0-33.553 14.703-54.71 14.703-21.284 40.146-24.289v44.32q-11.053 3.254-16.58 12.394-5.63 9.014-5.63 23.787 0 19.78 13.034 31.299 13.035 11.518 35.663 11.518 22.523 0 35.037-10.892 12.409-10.892 12.409-30.673 0-15.9-6.466-25.415-6.465-9.64-18.77-12.019zM409.6 166.548q23.462 0 35.975-11.393 12.514-11.518 12.514-32.926 0-21.534-12.514-33.052-12.513-11.643-35.975-11.643-23.358 0-35.871 11.643-12.618 11.518-12.618 33.052 0 21.408 12.513 32.926 12.514 11.393 35.976 11.393zm0 47.95q-37.435 0-59.125-24.79-21.794-24.913-21.794-67.48 0-42.691 21.794-67.73 21.794-25.165 59.125-25.165t59.125 25.165q21.794 25.039 21.794 67.73 0 42.567-21.69 67.48-21.794 24.79-59.23 24.79z" fill="#fff"/></svg>