<svg xmlns="http://www.w3.org/2000/svg" xmlns:xlink="http://www.w3.org/1999/xlink" height="512" width="512"><defs><linearGradient y2="36.375" x2="34.5" y1="34.75" x1="23.375" gradientTransform="translate(-2 -10.871)" gradientUnits="userSpaceOnUse" id="b" xlink:href="#a"/><linearGradient id="a"><stop offset="0" stop-color="#219dff"/><stop offset="1" stop-color="#197edf"/></linearGradient></defs><path d="M0 0h512v512H0z" fill="none"/><path d="M-.012 136.534l204.8 136.533v238.934L-.012 375.467z" fill="#73c0ff"/><path d="M29.9 17.504l12 8-14 8-12-8z" fill="url(#b)" transform="translate(-271.372 -298.734) scale(17.06666)"/><path d="M443.721 136.534v238.933L204.788 512.001V273.067z" fill="#0c71c2"/><path d="M307.2 0H512v512H307.2z" opacity=".6"/><path d="M486.609 482.666h-153.6V433.65l74.766-18.323q9.906-2.455 19.291-4.439 9.281-1.983 18.145-3.494-9.385-1.794-19.604-4.061-10.324-2.267-22.107-5.194l-70.491-17.284v-48.922h153.6v32.489h-68.093q-7.195 0-20.126-.283-13.034-.378-30.032-1.04l118.25 26.728v35.323l-118.25 26.16q20.439-.66 36.81-1.038 16.267-.378 25.444-.378h55.997zm0-178.122h-153.6v-38.533l50.47-26.256q12.304-6.422 24.4-12.183 12.097-5.761 23.88-10.861-17.414.755-32.639 1.133-15.224.378-26.799.378h-39.312v-34.378h153.6v38.44l-51.93 27.294q-9.177 4.816-20.543 10.483-11.47 5.666-24.714 11.994 15.016-1.039 27.947-1.51 12.93-.473 22.94-.473h46.3zm0-252.922l-19.813 2.833q12.096 7.84 18.04 18.7 5.84 10.767 5.84 25.217 0 13.506-5.423 25.028-5.422 11.428-15.954 20.21-10.845 9.162-25.548 13.884-14.703 4.722-32.118 4.722-37.644 0-60.376-19.455-22.732-19.55-22.732-51.945 0-24.46 13.556-40.327 13.556-15.961 37.956-20.211v34.094q-9.906 3.4-14.911 10.389-5.11 6.989-5.11 17.094 0 15.3 13.765 24.745 13.764 9.444 36.393 9.444 22.315 0 35.558-9.255 13.139-9.35 13.139-24.934 0-12.466-6.987-20.589-6.986-8.216-19.5-10.2v30.978h-29.51v-62.71h83.735z" fill="#fff"/></svg>