<svg xmlns="http://www.w3.org/2000/svg" xmlns:xlink="http://www.w3.org/1999/xlink" height="512" width="512"><defs><linearGradient y2="36.375" x2="34.5" y1="34.75" x1="23.375" gradientTransform="translate(-2 -10.871)" gradientUnits="userSpaceOnUse" id="b" xlink:href="#a"/><linearGradient id="a"><stop offset="0" stop-color="#219dff"/><stop offset="1" stop-color="#197edf"/></linearGradient></defs><path d="M0 0h512v512H0z" fill="none"/><path d="M-.012 136.534l204.8 136.533v238.934L-.012 375.467z" fill="#73c0ff"/><path d="M29.9 17.504l12 8-14 8-12-8z" fill="url(#b)" transform="translate(-271.372 -298.734) scale(17.06666)"/><path d="M443.721 136.534v238.933L204.788 512.001V273.067z" fill="#0c71c2"/><path d="M307.2 0H512v512H307.2z" opacity=".6"/><path d="M400.58 444.486V419.3q0-10.275-4.484-15.11-4.588-4.937-14.077-4.937-9.177 0-13.66 5.138-4.589 5.037-4.589 15.312v24.783zm85.82 38.18H332.8v-67.899q0-25.79 12.409-39.289 12.305-13.499 35.663-13.499 24.505 0 37.644 13.298 13.034 13.297 13.034 38.281v30.928h54.85zm-93.536-178.613V273.53q0-9.671-3.65-14.406-3.754-4.735-11.262-4.735-6.987 0-10.532 4.433-3.65 4.432-3.65 13.096v32.136zm62.983 0v-28.711q0-13.6-3.858-19.04-3.963-5.44-13.244-5.44-8.342 0-12.513 5.238-4.275 5.138-4.275 15.414v32.54zM486.4 340.42H332.8v-72.03q0-25.89 9.698-38.18 9.593-12.39 29.614-12.39 12.41 0 20.543 5.54 8.03 5.44 12.409 16.723 3.441-12.895 12.409-19.745 8.863-6.85 22.107-6.85 12.93 0 23.358 5.741 10.427 5.642 16.163 15.917 3.962 6.952 5.63 16.824 1.669 9.873 1.669 30.424zm0-150.305H332.8v-52.284l74.767-19.544q9.906-2.619 19.29-4.735 9.281-2.115 18.145-3.727-9.385-1.914-19.604-4.332-10.323-2.418-22.107-5.54L332.8 81.516V29.333h153.6v34.655h-68.093q-7.195 0-20.125-.302-13.035-.403-30.032-1.108l118.25 28.51v37.676L368.15 156.67q20.438-.705 36.81-1.108 16.267-.403 25.443-.403H486.4z" fill="#fff"/></svg>