<svg xmlns="http://www.w3.org/2000/svg" xmlns:xlink="http://www.w3.org/1999/xlink" height="512" width="512"><defs><linearGradient y2="36.375" x2="34.5" y1="34.75" x1="23.375" gradientTransform="translate(-2 -10.871)" gradientUnits="userSpaceOnUse" id="b" xlink:href="#a"/><linearGradient id="a"><stop offset="0" stop-color="#219dff"/><stop offset="1" stop-color="#197edf"/></linearGradient></defs><path d="M0 0h512v512H0z" fill="none"/><path d="M-.012 136.534l204.8 136.533v238.934L-.012 375.467z" fill="#73c0ff"/><path d="M29.9 17.504l12 8-14 8-12-8z" fill="url(#b)" transform="translate(-271.372 -298.734) scale(17.06666)"/><path d="M443.721 136.534v238.933L204.788 512.001V273.067z" fill="#0c71c2"/><path d="M307.2 0H512v512H307.2z" opacity=".6"/><path d="M400.789 445.542v-24.49q0-9.99-4.484-14.692-4.589-4.8-14.078-4.8-9.176 0-13.66 4.996-4.588 4.897-4.588 14.889v24.097zm85.82 37.124h-153.6v-66.021q0-25.076 12.409-38.202 12.304-13.126 35.662-13.126 24.505 0 37.644 12.93 13.035 12.93 13.035 37.223v30.072h54.85zm-.001-246.845l-19.812 2.939q12.096 8.13 18.04 19.395 5.84 11.166 5.84 26.154 0 14.007-5.423 25.957-5.422 11.853-15.954 20.963-10.845 9.501-25.548 14.399-14.703 4.898-32.118 4.898-37.644 0-60.376-20.179-22.732-20.276-22.732-53.875 0-25.37 13.556-41.826 13.556-16.555 37.956-20.963v35.362q-9.906 3.526-14.911 10.775-5.11 7.249-5.11 17.73 0 15.868 13.765 25.664 13.764 9.795 36.392 9.795 22.316 0 35.559-9.6 13.139-9.697 13.139-25.86 0-12.93-6.987-21.353-6.986-8.522-19.5-10.58v32.13h-29.51v-65.042h83.734zm0-50.153h-153.6V134.83l74.767-19.003q9.906-2.547 19.291-4.604 9.281-2.057 18.145-3.624-9.385-1.861-19.604-4.212-10.324-2.351-22.107-5.388l-70.491-17.925v-50.74h153.6V63.03h-68.093q-7.195 0-20.126-.294-13.034-.392-30.032-1.078l118.25 27.721v36.635l-118.25 27.134q20.439-.686 36.81-1.078 16.267-.392 25.444-.392h55.996z" fill="#fff"/></svg>