<svg xmlns="http://www.w3.org/2000/svg" xmlns:xlink="http://www.w3.org/1999/xlink" height="512" width="512"><defs><linearGradient y2="36.375" x2="34.5" y1="34.75" x1="23.375" gradientTransform="translate(-2 -10.871)" gradientUnits="userSpaceOnUse" id="b" xlink:href="#a"/><linearGradient id="a"><stop offset="0" stop-color="#219dff"/><stop offset="1" stop-color="#197edf"/></linearGradient></defs><path d="M0 0h512v512H0z" fill="none"/><path d="M-.012 136.534l204.8 136.533v238.934L-.012 375.467z" fill="#73c0ff"/><path d="M29.9 17.504l12 8-14 8-12-8z" fill="url(#b)" transform="translate(-271.372 -298.734) scale(17.06666)"/><path d="M443.721 136.534v238.933L204.788 512.001V273.067z" fill="#0c71c2"/><path d="M307.2 0H512v512H307.2z" opacity=".6"/><path d="M400.788 442.932v-26.21q0-10.695-4.483-15.727-4.589-5.137-14.078-5.137-9.176 0-13.66 5.347-4.588 5.242-4.588 15.936v25.79zm85.82 39.734h-153.6v-70.663q0-26.839 12.41-40.888 12.304-14.048 35.662-14.048 24.505 0 37.644 13.839 13.035 13.839 13.035 39.84v32.186h54.85zm0-147.826h-153.6v-42.775l50.47-29.146q12.305-7.129 24.401-13.524 12.096-6.396 23.88-12.057-17.414.839-32.639 1.258-15.224.42-26.8.42h-39.31v-38.163h153.6v42.67l-51.93 30.3q-9.177 5.347-20.543 11.637-11.47 6.29-24.714 13.315 15.016-1.153 27.947-1.678 12.93-.524 22.94-.524h46.3zm0-280.764l-19.812 3.145q12.096 8.702 18.04 20.759 5.84 11.951 5.84 27.992 0 14.992-5.423 27.783-5.422 12.686-15.954 22.436-10.845 10.17-25.548 15.412-14.703 5.242-32.118 5.242-37.644 0-60.376-21.598-22.732-21.702-22.732-57.662 0-27.154 13.556-44.767 13.556-17.718 37.956-22.436v37.847q-9.906 3.775-14.911 11.533-5.11 7.758-5.11 18.976 0 16.984 13.765 27.468 13.764 10.485 36.392 10.485 22.316 0 35.559-10.275 13.139-10.38 13.139-27.678 0-13.839-6.987-22.855-6.986-9.122-19.5-11.323v34.388h-29.51V29.333h83.734z" fill="#fff"/></svg>