<svg xmlns="http://www.w3.org/2000/svg" xmlns:xlink="http://www.w3.org/1999/xlink" height="512" width="512"><defs><linearGradient y2="36.375" x2="34.5" y1="34.75" x1="23.375" gradientTransform="translate(-2 -10.871)" gradientUnits="userSpaceOnUse" id="b" xlink:href="#a"/><linearGradient id="a"><stop offset="0" stop-color="#219dff"/><stop offset="1" stop-color="#197edf"/></linearGradient></defs><path d="M0 0h512v512H0z" fill="none"/><path d="M-.012 136.534l204.8 136.533v238.934L-.012 375.467z" fill="#73c0ff"/><path d="M29.9 17.504l12 8-14 8-12-8z" fill="url(#b)" transform="translate(-271.372 -298.734) scale(17.06666)"/><path d="M443.721 136.534v238.933L204.788 512.001V273.067z" fill="#0c71c2"/><path d="M307.2 0H512v512H307.2z" opacity=".6"/><path d="M400.58 443.795v-25.641q0-10.462-4.484-15.385-4.588-5.026-14.077-5.026-9.177 0-13.66 5.231-4.589 5.128-4.589 15.59v25.23zm85.82 38.871H332.8v-69.128q0-26.256 12.409-40 12.305-13.743 35.663-13.743 24.505 0 37.644 13.538 13.034 13.539 13.034 38.974v31.488h54.85zm-85.82-183.692v-25.64q0-10.462-4.484-15.385-4.588-5.026-14.077-5.026-9.177 0-13.66 5.23-4.589 5.129-4.589 15.59v25.231zm85.82 38.872H332.8v-69.128q0-26.257 12.409-40 12.305-13.744 35.663-13.744 24.505 0 37.644 13.539 13.034 13.538 13.034 38.974v31.487h54.85zm0-144.82H332.8v-53.231l74.767-19.898q9.906-2.666 19.29-4.82 9.281-2.154 18.145-3.795-9.385-1.949-19.604-4.41-10.324-2.462-22.107-5.641L332.8 82.46V29.333h153.6v35.282h-68.093q-7.195 0-20.125-.307-13.035-.41-30.032-1.129L486.4 92.205v38.359l-118.25 28.41q20.438-.718 36.81-1.128 16.267-.41 25.443-.41H486.4z" fill="#fff"/></svg>