<svg xmlns="http://www.w3.org/2000/svg" xmlns:xlink="http://www.w3.org/1999/xlink" height="512" width="512"><defs><linearGradient y2="36.375" x2="34.5" y1="34.75" x1="23.375" gradientTransform="translate(-2 -10.871)" gradientUnits="userSpaceOnUse" id="b" xlink:href="#a"/><linearGradient id="a"><stop offset="0" stop-color="#219dff"/><stop offset="1" stop-color="#197edf"/></linearGradient></defs><path d="M0 0h512v512H0z" fill="none"/><path d="M-.012 136.534l204.8 136.533v238.934L-.012 375.467z" fill="#73c0ff"/><path d="M29.9 17.504l12 8-14 8-12-8z" fill="url(#b)" transform="translate(-271.372 -298.734) scale(17.06666)"/><path d="M443.721 136.534v238.933L204.788 512.001V273.067z" fill="#0c71c2"/><path d="M307.2 0H512v512H307.2z" opacity=".6"/><path d="M435.513 482.666v-39.725q13.139-.44 19.812-8.121 6.57-7.682 6.57-22.497 0-12.62-3.963-19.533-3.962-6.914-11.157-6.914-3.65 0-6.465 1.646-2.92 1.646-4.38 4.61-2.294 4.499-7.195 22.057t-9.49 29.63q-6.569 17.448-17.31 26.557-10.844 8.998-25.234 8.998-22.003 0-34.933-17.339-13.035-17.448-13.035-47.188 0-29.19 13.66-46.31 13.66-17.119 36.915-17.119v38.958q-10.741 1.316-15.85 8.01-5.11 6.585-5.11 19.095 0 9.986 3.962 16.242 3.859 6.255 9.907 6.255 10.219 0 19.291-29.74 1.668-5.377 2.503-8.23.208-.549.521-1.646 9.49-30.727 15.329-38.409 6.048-7.791 14.286-11.852 8.133-4.06 18.144-4.06 22.94 0 35.767 18.546 12.722 18.436 12.722 51.797 0 31.495-13.66 47.956-13.765 16.46-41.607 18.326zm50.991-197.86l-153.6 55.528V296.44l78.938-22.716q1.981-.549 6.465-1.866 14.182-4.17 23.775-6.365-4.692-1.207-11.053-2.963-6.361-1.756-16.684-4.938l-81.44-23.813V190.21l153.6 55.857zm0-229.574l-19.812 3.292q12.096 9.108 18.04 21.728 5.84 12.51 5.84 29.3 0 15.693-5.423 29.082-5.423 13.278-15.955 23.484-10.844 10.645-25.548 16.131-14.703 5.487-32.117 5.487-37.644 0-60.376-22.606-22.733-22.716-22.733-60.356 0-28.423 13.556-46.86 13.556-18.545 37.957-23.483v39.616q-9.906 3.95-14.911 12.07-5.11 8.122-5.11 19.864 0 17.777 13.765 28.751 13.764 10.974 36.392 10.974 22.316 0 35.559-10.754 13.139-10.864 13.139-28.971 0-14.486-6.987-23.923-6.986-9.548-19.5-11.852V102.2h-29.51V29.333h83.734z" fill="#fff"/></svg>