<svg xmlns="http://www.w3.org/2000/svg" xmlns:xlink="http://www.w3.org/1999/xlink" height="512" width="512"><defs><linearGradient y2="36.375" x2="34.5" y1="34.75" x1="23.375" gradientTransform="translate(-2 -10.871)" gradientUnits="userSpaceOnUse" id="b" xlink:href="#a"/><linearGradient id="a"><stop offset="0" stop-color="#219dff"/><stop offset="1" stop-color="#197edf"/></linearGradient></defs><path d="M0 0h512v512H0z" fill="none"/><path d="M-.012 136.534l204.8 136.533v238.934L-.012 375.467z" fill="#73c0ff"/><path d="M29.9 17.504l12 8-14 8-12-8z" fill="url(#b)" transform="translate(-271.372 -298.734) scale(17.06666)"/><path d="M443.721 136.534v238.933L204.788 512.001V273.067z" fill="#0c71c2"/><path d="M307.2 0H512v512H307.2z" opacity=".6"/><path d="M486.608 438.423h-122.42v44.243h-31.18v-128.01h31.18v44.242h122.42zm0-217.335l-19.812 3.145q12.096 8.702 18.04 20.758 5.84 11.952 5.84 27.993 0 14.992-5.423 27.783-5.422 12.686-15.954 22.436-10.845 10.17-25.548 15.412-14.703 5.242-32.118 5.242-37.644 0-60.376-21.598-22.732-21.702-22.732-57.662 0-27.154 13.556-44.767 13.556-17.719 37.956-22.436v37.847q-9.906 3.775-14.911 11.533-5.11 7.758-5.11 18.976 0 16.984 13.765 27.468 13.764 10.485 36.392 10.485 22.316 0 35.559-10.275 13.139-10.38 13.139-27.678 0-13.839-6.987-22.855-6.986-9.121-19.5-11.323v34.388h-29.51v-69.615h83.734zm-59.958-97.712V89.617l-52.974 17.194zm-93.641 3.67V83.85l153.6-54.518v42.46l-28.155 9.437v51.582l28.154 8.806v40.993z" fill="#fff"/></svg>