<svg xmlns="http://www.w3.org/2000/svg" xmlns:xlink="http://www.w3.org/1999/xlink" height="512" width="512"><defs><linearGradient y2="36.375" x2="34.5" y1="34.75" x1="23.375" gradientTransform="translate(-2 -10.871)" gradientUnits="userSpaceOnUse" id="b" xlink:href="#a"/><linearGradient id="a"><stop offset="0" stop-color="#219dff"/><stop offset="1" stop-color="#197edf"/></linearGradient></defs><path d="M0 0h512v512H0z" fill="none"/><path d="M-.012 136.534l204.8 136.533v238.934L-.012 375.467z" fill="#73c0ff"/><path d="M29.9 17.504l12 8-14 8-12-8z" fill="url(#b)" transform="translate(-271.372 -298.734) scale(17.06666)"/><path d="M443.721 136.534v238.933L204.788 512.001V273.067z" fill="#0c71c2"/><path d="M307.2 0H512v512H307.2z" opacity=".6"/><path d="M486.348 458.709l-153.6 30.612v-28.79l108.97-15.647-108.97-14.964v-30.536l108.97-14.736-108.97-15.724v-28.789l153.6 30.84v27.953l-110.43 15.876 110.43 15.876zm0-128.829h-153.6v-84.998h31.491v56.362h27.112v-51.501h30.762v51.5h32.847V243.06h31.388zm-93.537-131.334V175.53q0-7.292-3.65-10.862-3.753-3.57-11.261-3.57-6.987 0-10.532 3.342-3.65 3.342-3.65 9.875v24.231zm62.984 0v-21.649q0-10.254-3.859-14.356-3.962-4.102-13.243-4.102-8.342 0-12.513 3.95-4.275 3.874-4.275 11.622v24.535zm30.553 27.422h-153.6v-54.312q0-19.522 9.698-28.789 9.593-9.343 29.614-9.343 12.41 0 20.543 4.178 8.03 4.102 12.409 12.61 3.44-9.723 12.409-14.889 8.863-5.165 22.106-5.165 12.93 0 23.358 4.33 10.428 4.253 16.163 12.001 3.963 5.242 5.631 12.686 1.669 7.444 1.669 22.94zm-85.82-142.122v-18.99q0-7.747-4.484-11.394-4.588-3.722-14.077-3.722-9.177 0-13.66 3.874-4.589 3.798-4.589 11.546v18.686zm85.82 28.79h-153.6V61.437q0-19.446 12.409-29.624 12.304-10.179 35.662-10.179 24.506 0 37.644 10.027 13.035 10.027 13.035 28.865v23.32h54.85z" fill="#fff"/></svg>