<svg xmlns="http://www.w3.org/2000/svg" xmlns:xlink="http://www.w3.org/1999/xlink" height="512" width="512"><defs><linearGradient y2="36.375" x2="34.5" y1="34.75" x1="23.375" gradientTransform="translate(-2 -10.871)" gradientUnits="userSpaceOnUse" id="b" xlink:href="#a"/><linearGradient id="a"><stop offset="0" stop-color="#219dff"/><stop offset="1" stop-color="#197edf"/></linearGradient></defs><path d="M0 0h512v512H0z" fill="none"/><path d="M-.012 136.534l204.8 136.533v238.934L-.012 375.467z" fill="#73c0ff"/><path d="M29.9 17.504l12 8-14 8-12-8z" fill="url(#b)" transform="translate(-271.372 -298.734) scale(17.06666)"/><path d="M443.721 136.534v238.933L204.788 512.001V273.067z" fill="#0c71c2"/><path d="M307.2 0H512v512H307.2z" opacity=".6"/><path d="M486.4 482.666l-78.833-46.985-74.767 44.414V437.56l41.085-22.356L332.8 392.95v-42.534l74.767 44.81 78.833-47.48v43.028l-44.63 24.432 44.63 24.73zm-93.536-183.588v-29.972q0-9.496-3.65-14.145-3.754-4.649-11.262-4.649-6.987 0-10.532 4.352-3.65 4.353-3.65 12.86v31.554zm62.983 0v-28.191q0-13.354-3.858-18.695-3.963-5.342-13.244-5.342-8.342 0-12.513 5.144-4.275 5.044-4.275 15.134v31.95zm30.553 35.709H332.8V264.06q0-25.421 9.698-37.489 9.593-12.167 29.614-12.167 12.41 0 20.543 5.44 8.03 5.342 12.409 16.421 3.441-12.661 12.409-19.388 8.863-6.726 22.107-6.726 12.93 0 23.358 5.638 10.427 5.54 16.163 15.63 3.962 6.824 5.63 16.518 1.669 9.694 1.669 29.873zm0-147.583H332.8v-51.338l74.767-19.19q9.906-2.572 19.29-4.649 9.281-2.077 18.145-3.66-9.385-1.88-19.604-4.253-10.323-2.374-22.107-5.44l-70.49-18.102V29.333H486.4V63.36h-68.093q-7.195 0-20.125-.296-13.035-.396-30.032-1.088L486.4 89.969v36.994l-118.25 27.4q20.438-.692 36.81-1.088 16.267-.395 25.443-.395H486.4z" fill="#fff"/></svg>