<svg xmlns="http://www.w3.org/2000/svg" xmlns:xlink="http://www.w3.org/1999/xlink" height="512" width="512"><defs><linearGradient y2="36.375" x2="34.5" y1="34.75" x1="23.375" gradientTransform="translate(-2 -10.871)" gradientUnits="userSpaceOnUse" id="b" xlink:href="#a"/><linearGradient id="a"><stop offset="0" stop-color="#219dff"/><stop offset="1" stop-color="#197edf"/></linearGradient></defs><path d="M0 0h512v512H0z" fill="none"/><path d="M-.012 136.534l204.8 136.533v238.934L-.012 375.467z" fill="#73c0ff"/><path d="M29.9 17.504l12 8-14 8-12-8z" fill="url(#b)" transform="translate(-271.372 -298.734) scale(17.06666)"/><path d="M443.721 136.534v238.933L204.788 512.001V273.067z" fill="#0c71c2"/><path d="M307.2 0H512v512H307.2z" opacity=".6"/><path d="M486.4 482.667l-78.833-47.82-74.767 45.202v-43.29l41.085-22.752-41.085-22.651v-43.29l74.767 45.605 78.833-48.323v43.793l-44.63 24.866 44.63 25.169zm-85.82-188.663v-25.168q0-10.269-4.484-15.101-4.588-4.933-14.077-4.933-9.177 0-13.66 5.134-4.589 5.034-4.589 15.303v24.765zm85.82 38.156H332.8v-67.854q0-25.773 12.409-39.263 12.305-13.49 35.663-13.49 24.505 0 37.644 13.289 13.034 13.288 13.034 38.256v30.906h54.85zm0-142.151H332.8v-52.25l74.767-19.53q9.906-2.618 19.29-4.732 9.281-2.114 18.145-3.725-9.385-1.913-19.604-4.33-10.323-2.415-22.107-5.536L332.8 81.482V29.333h153.6v34.632h-68.093q-7.195 0-20.125-.302-13.035-.403-30.032-1.107l118.25 28.49v37.652l-118.25 27.887q20.438-.705 36.81-1.107 16.267-.403 25.443-.403H486.4z" fill="#fff"/></svg>