<?xml version="1.0" encoding="UTF-8"?>
<svg width="512" height="512" version="1.1" viewBox="0 0 135.47 135.47" xmlns="http://www.w3.org/2000/svg" xmlns:xlink="http://www.w3.org/1999/xlink">
<defs>
<linearGradient id="a">
<stop stop-color="#00f" offset="0"/>
<stop stop-color="#d5ecdb" offset="1"/>
</linearGradient>
<linearGradient id="b" x1="161.01" x2="145.93" y1="110.56" y2="77.694" gradientTransform="matrix(1.614 0 0 1.6362 -323.36 -40.905)" gradientUnits="userSpaceOnUse">
<stop stop-color="#f36e2e" offset="0"/>
<stop stop-color="#fff6f2" offset="1"/>
</linearGradient>
<linearGradient id="c" x1="675.71" x2="98.571" y1="725.22" y2="156.65" gradientTransform="matrix(.97512 0 0 .97512 10.846 14.934)" gradientUnits="userSpaceOnUse" xlink:href="#a"/>
<linearGradient id="d" x1="100" x2="660" y1="482.36" y2="482.36" gradientUnits="userSpaceOnUse" xlink:href="#a"/>
</defs>
<text transform="translate(507.2 7.0126)" fill="#000000" font-family="Pristina" font-size="5.9531px" letter-spacing="0px" word-spacing="0px" style="line-height:125%;shape-inside:url(#rect3412);white-space:pre" xml:space="preserve"/>
<g transform="matrix(1 0 0 1 170.71 -14.078)">
<g transform="matrix(.99998 0 0 .99998 -281.09 47.521)" stroke-width=".99999">
<g transform="matrix(.21923 0 0 .21923 94.81 -60.495)" stroke-width=".99999">
<rect x="100" y="152.36" width="560" height="560" fill="url(#c)"/>
<path d="m100 712.36c193.85-217.89 172.31-460 280-460s86.154 242.11 280 460z" fill="url(#d)"/>
</g>
</g>
<path d="m-93.292 73.442v66.041l15.008-14.841 9.8523 18.552 9.9603-5.4231-9.7344-18.352h20.113z" fill="url(#b)" fill-rule="evenodd" stroke-width=".99997"/>
</g>
</svg>
