<?xml version="1.0" encoding="UTF-8"?>
<svg width="512" height="512" version="1.1" viewBox="0 0 135.47 135.47" xmlns="http://www.w3.org/2000/svg">
<defs>
<linearGradient id="a" x1="52.915" x2="15.874" y1="283.05" y2="246.01" gradientTransform="matrix(3.3144 0 0 3.3144 -46.263 -809.01)" gradientUnits="userSpaceOnUse">
<stop stop-color="#00f" stop-opacity=".99115" offset="0"/>
<stop stop-color="#80ffff" offset="1"/>
</linearGradient>
</defs>
<rect x="6.3502" y="6.3502" width="122.77" height="122.77" fill="url(#a)" fill-rule="evenodd" style="paint-order:markers fill stroke"/>
<g transform="translate(.00076246 .0013986)" fill="none" stroke="#000a90" stroke-width="8.4669">
<ellipse cx="29.682" cy="25.39" rx="11.001" ry="10.997" stroke-linecap="round" stroke-linejoin="bevel"/>
<ellipse cx="78.165" cy="21.579" rx="11.001" ry="10.997" stroke-linecap="round" stroke-linejoin="bevel"/>
<ellipse cx="53.064" cy="109.72" rx="11.001" ry="10.997" stroke-linecap="round" stroke-linejoin="bevel"/>
<ellipse cx="21.584" cy="76.777" rx="11.001" ry="10.997" stroke-linecap="round" stroke-linejoin="bevel"/>
<ellipse cx="69.964" cy="58.961" rx="11.001" ry="10.997" stroke-linecap="round" stroke-linejoin="bevel"/>
<ellipse cx="113.57" cy="63.244" rx="11.001" ry="10.997" stroke-linecap="round" stroke-linejoin="bevel"/>
<path d="m38.365 32.141 22.683 20.377"/>
<path d="m80.765 61.042 21.799 2.2014"/>
<path d="m66.861 69.511-9.2821 30.179"/>
<path d="m28.062 85.665 16.197 17.461"/>
<path d="m62.788 104.58 42.418-34.184"/>
<path d="m27.84 36.231-3.9091 29.805"/>
<path d="m40.425 23.027 26.739-1.4478"/>
<path d="m86.103 29.19 20.515 25.527"/>
<path d="m50.37 99.056-15.747-63.841"/>
</g>
<path d="m89.074 50.427 8.4155 31.445 31.631-1.2779-26.423 17.931 10.985 30.595-24.747-20.364-24.842 20.187 11.129-30.516-26.337-18.119 31.623 1.5035z" fill="#ff9e3f" fill-rule="evenodd" stroke-width="2.1789" style="paint-order:fill markers stroke"/>
</svg>
