<?xml version="1.0" encoding="UTF-8"?>
<svg width="512" height="512" version="1.1" viewBox="0 0 135.47 135.47" xmlns="http://www.w3.org/2000/svg" xmlns:xlink="http://www.w3.org/1999/xlink">
<defs>
<linearGradient id="b" x1="129.12" x2="6.3502" y1="129.12" y2="6.3502" gradientUnits="userSpaceOnUse">
<stop stop-color="#d3003a" offset="0"/>
<stop stop-color="#90072d" offset="1"/>
</linearGradient>
<linearGradient id="g" x1="129.12" x2="6.3502" y1="129.12" y2="6.3502" gradientTransform="matrix(1 0 0 1 -6.3502 -6.3502)" gradientUnits="userSpaceOnUse">
<stop stop-color="#00f" offset="0"/>
<stop stop-color="#000105" offset="1"/>
</linearGradient>
<linearGradient id="f" x1="304.44" x2="436.75" y1="216.79" y2="216.79" gradientUnits="userSpaceOnUse" xlink:href="#b"/>
<linearGradient id="e" x1="327.94" x2="388.63" y1="190.63" y2="190.63" gradientUnits="userSpaceOnUse" xlink:href="#b"/>
<linearGradient id="d" x1="330.74" x2="376.69" y1="166.73" y2="166.73" gradientUnits="userSpaceOnUse" xlink:href="#b"/>
<linearGradient id="c" x1="327.8" x2="381.31" y1="169.29" y2="169.29" gradientUnits="userSpaceOnUse" xlink:href="#b"/>
</defs>
<g transform="translate(6.3502 6.3502)">
<rect width="122.77" height="122.77" fill="url(#g)"/>
<g transform="matrix(.9262 0 0 .92558 -281.85 -144.4)" stroke="#b5b1b1" stroke-linecap="round" stroke-linejoin="round" stroke-width="3.4292">
<path d="m336.29 198.92-11.771 7.1032-6.9002 5.0737-8.5238 10.147-3.0442 6.4944 0.60885 10.35 3.6531 6.4944 14.409 7.1032 14.003 1.4206 28.413-3.2472 17.251-5.4796 27.195-12.786 11.162-9.1327 10.959-14.612 1.4206-8.9297-3.0442-8.9297-6.6973-4.4649-12.583-4.4649-8.3209-0.60884-14.206 1.0147-5.8855 0.8118z" fill="url(#f)"/>
<path d="m338.72 253.11 23.342-32.686 5.0704 29.439" fill="none"/>
<path d="m384.39 244.39-7.9704-28.121 35.166 15.335" fill="none"/>
<path d="m422.74 222.47-34.847-13.234 45.806-1.3779" fill="none"/>
<path d="m344.7 210.95-0.86104 6.0272 6.4578 3.4442h11.768l14.351-4.1617 11.481-7.0318 3.7312-6.7448-3.7312-4.8792-4.5922-1.1481-37.168 11.768z" fill="none"/>
<path d="m329.39 177.01 14.003 30.645 7.712 9.3356 6.9003 1.6236 10.756-2.2324 9.9445-4.2619 6.9002-6.0885 1.4206-13.192-7.3062-31.457" fill="url(#e)"/>
<path d="m435.12 198.92-43.496 3.5629 40.452-12.493" fill="none"/>
<path d="m425.38 185.53-37.486 12.078 24.903-16.543" fill="none"/>
<path d="m387.03 192.84 17.454-12.38" fill="none"/>
<path d="m324.72 251.69 25.578-31.266-39.988 24.162" fill="none"/>
<path d="m306.66 238.09 37.183-21.112-37.792 10.762" fill="none"/>
<path d="m309.09 221.25 35.609-10.295-27.085 0.14718" fill="none"/>
<path d="m342.58 206.28-18.062-0.25369" fill="none"/>
<path d="m385.89 188.42 7.175-7.1558" fill="none"/>
<path d="m349.68 186.34 4.2619 11.162 7.915-1.8265 12.38-4.8708 2.8413-2.4354-3.0442-10.959-3.0442 2.0295-12.786 5.0737z" fill="none"/>
<path d="m379.72 161.38-8.118-3.6531-19.077 2.8413-17.859 8.9297-5.2767 7.5091 2.6383 3.2472 8.9297 0.60884 15.018-3.2472 13.395-5.4796 9.1327-6.4944z" fill="url(#c)"/>
<path d="m332.65 172.64 2.0091 2.8701 7.8928 0.28701 11.768-2.7266 12.629-4.7357 6.8883-5.0227 1.0046-3.8747-3.2368-1.7095-19.077 2.8413-17.859 8.9297z" fill="url(#d)"/>
<path d="m353.6 166.61-2.4396-7.4623" fill="none"/>
<path d="m343.39 207.65 4.059 2.2324 7.5091 1.2177 11.365-2.0295 12.177-5.4796 7.1032-6.2914 1.4206-4.4649" fill="none"/>
</g>
</g>
<g transform="matrix(1.1428 0 0 1.1428 -11.689 -25.702)" fill="#ff9200">
<path d="m40.144 128.86h4.358q6.1612 0 8.9664-2.8051 2.8302-2.8051 2.8302-8.8912 0-6.0611-2.8302-8.8662-2.8051-2.8302-8.9664-2.8302h-4.358zm-7.8393 6.6121v-36.667h9.9932q5.9108 0 9.317 0.82651 3.4062 0.8265 5.9859 2.755 3.3311 2.4795 5.0342 6.2614 1.7282 3.7568 1.7282 8.5656 0 4.8839-1.7532 8.6658-1.7532 3.7568-5.1344 6.2113-2.5046 1.8033-5.5852 2.6048-3.0556 0.77642-8.9664 0.77642h-2.7801z"/>
<path d="m95.382 135.47h-9.0415l-9.6426-17.131v17.131h-7.8393v-36.667h11.22q6.6872 0 10.018 2.6048 3.3311 2.5797 3.3311 7.7892 0 3.7819-2.2792 6.4618t-5.8857 3.1307zm-18.684-21.038h1.1771q4.7587 0 6.2865-1.0269 1.5278-1.0519 1.5278-3.6316 0-2.7049-1.653-3.832-1.628-1.1521-6.1612-1.1521h-1.1771z"/>
<path d="m123.21 129.41v6.0611h-25.396l13.024-17.081q2.7049-3.5314 3.7568-5.5601 1.077-2.0287 1.077-3.5815 0-2.1539-1.3024-3.3812-1.2773-1.2272-3.5314-1.2272-2.1038 0-3.3561 1.5528-1.2523 1.5278-1.2523 4.1325v0.17532h-7.3885v-0.62615q0-5.46 3.1307-8.4404 3.1307-3.0055 8.8662-3.0055 5.8607 0 9.1166 2.6799t3.2559 7.4887q0 5.4099-8.4654 15.979l-0.52596 0.62615-3.3812 4.2077z"/>
</g>
</svg>
