<svg xmlns="http://www.w3.org/2000/svg" xmlns:xlink="http://www.w3.org/1999/xlink" height="512" width="512"><defs><linearGradient y2="36.375" x2="34.5" y1="34.75" x1="23.375" gradientTransform="translate(-2 -10.871)" gradientUnits="userSpaceOnUse" id="b" xlink:href="#a"/><linearGradient id="a"><stop offset="0" stop-color="#219dff"/><stop offset="1" stop-color="#197edf"/></linearGradient></defs><path d="M0 0h512v512H0z" fill="none"/><path d="M-.012 136.534l204.8 136.533v238.934L-.012 375.467z" fill="#73c0ff"/><path d="M29.9 17.504l12 8-14 8-12-8z" fill="url(#b)" transform="translate(-271.372 -298.734) scale(17.06666)"/><path d="M443.721 136.534v238.933L204.788 512.001V273.067z" fill="#0c71c2"/><path d="M307.2 0H512v512H307.2z" opacity=".6"/><path d="M398.599 446.824v-26.858q0-10.896-4.38-15.961-4.38-5.162-13.973-5.162-8.447 0-12.513 4.97-4.171 4.97-4.171 15.198v27.813zm87.8 35.843H332.8v-67.384q0-26.762 10.429-39.379 10.427-12.712 32.325-12.712 12.93 0 22.211 5.448 9.177 5.353 15.433 16.727 3.859-9.272 10.532-13.095 6.57-3.823 23.254-4.396 4.693-.287 12.618-.574 18.561-.669 21.48-5.83h5.319v37.754q-8.134 2.772-22.315 3.154-14.182.382-17.832.764-8.968.86-13.139 5.544-4.17 4.683-4.17 14.05v24.086H486.4zM426.44 298.58v-30.776l-52.972 15.675zm-93.64 3.346v-39.379l153.6-49.701v38.71l-28.155 8.602v47.025l28.155 8.028v37.372zm153.6-123.584L332.8 216.86v-36.224l108.97-19.69-108.97-18.829v-38.423l108.97-18.542L332.8 65.367V29.142l153.6 38.805v35.174l-110.43 19.976 110.43 19.976z" fill="#fff"/></svg>