<?xml version="1.0" encoding="UTF-8"?>
<svg width="512" height="512" version="1.1" viewBox="0 0 135.47 135.47" xmlns="http://www.w3.org/2000/svg">
<defs>
<linearGradient id="d" x1="76.708" x2="85.259" y1="70.357" y2="79.71" gradientTransform="translate(134.97 10.29)" gradientUnits="userSpaceOnUse">
<stop stop-color="#cfc1c1" offset="0"/>
<stop stop-color="#dd8989" offset="1"/>
</linearGradient>
<linearGradient id="c" x1="114.66" x2="123.61" y1="79.042" y2="71.025" gradientTransform="translate(134.97 10.29)" gradientUnits="userSpaceOnUse">
<stop stop-color="#bdbcbd" offset="0"/>
<stop stop-color="#c8c9c9" offset="1"/>
</linearGradient>
<linearGradient id="b" x1="85.928" x2="76.04" y1="108.56" y2="118.6" gradientTransform="translate(134.97 10.29)" gradientUnits="userSpaceOnUse">
<stop stop-color="#8d8" offset="0"/>
<stop stop-color="#c6cdc7" offset="1"/>
</linearGradient>
<linearGradient id="a" x1="114.23" x2="124.55" y1="108.83" y2="118.46" gradientTransform="translate(134.97 10.29)" gradientUnits="userSpaceOnUse">
<stop stop-color="#9493da" offset="0"/>
<stop stop-color="#ccc" offset="1"/>
</linearGradient>
</defs>
<g transform="translate(-68.476 9.8415)">
<g transform="matrix(2.1091 0 0 2.1091 -359.84 -161.8)">
<g transform="translate(177.93 -32.195)" stroke-width="2.6458">
<rect x="30.805" y="109.9" width="26.458" height="26.458" fill="#00f" style="paint-order:stroke markers fill"/>
<rect x="57.263" y="109.9" width="26.458" height="26.458" fill="#0f0" style="paint-order:stroke markers fill"/>
<rect x="30.805" y="136.36" width="26.458" height="26.458" fill="#898989" style="paint-order:stroke markers fill"/>
<rect x="57.263" y="136.36" width="26.458" height="26.458" fill="#f00" style="paint-order:stroke markers fill"/>
</g>
<path d="m232.55 77.707h-23.812v23.812z" fill="url(#d)" fill-rule="evenodd"/>
<path d="m237.84 77.707h23.812v23.812z" fill="url(#c)" fill-rule="evenodd"/>
<path d="m261.66 106.81v23.813h-23.812z" fill="url(#a)" fill-rule="evenodd"/>
<path d="m232.55 130.62h-23.812v-23.812z" fill="url(#b)" fill-rule="evenodd"/>
<rect x="207.42" y="76.384" width="55.562" height="55.562" fill="none" stroke="#000" stroke-width="3.0108" style="paint-order:stroke markers fill"/>
</g>
</g>
</svg>
