<?xml version="1.0" encoding="UTF-8"?>
<svg width="512" height="512" version="1.1" viewBox="0 0 135.47 135.47" xmlns="http://www.w3.org/2000/svg" xmlns:xlink="http://www.w3.org/1999/xlink">
<defs>
<linearGradient id="a" x1="129.12" x2="6.3502" y1="129.12" y2="6.3502" gradientUnits="userSpaceOnUse">
<stop stop-color="#d3003a" offset="0"/>
<stop stop-color="#90072d" offset="1"/>
</linearGradient>
<linearGradient id="b" x1="129.12" x2="6.3502" y1="129.12" y2="6.3502" gradientUnits="userSpaceOnUse">
<stop stop-color="#00f" offset="0"/>
<stop stop-color="#000105" offset="1"/>
</linearGradient>
<linearGradient id="g" x1="304.44" x2="436.75" y1="216.79" y2="216.79" gradientUnits="userSpaceOnUse" xlink:href="#a"/>
<linearGradient id="h" x1="327.94" x2="388.63" y1="190.63" y2="190.63" gradientUnits="userSpaceOnUse" xlink:href="#a"/>
<linearGradient id="i" x1="330.74" x2="376.69" y1="166.73" y2="166.73" gradientUnits="userSpaceOnUse" xlink:href="#a"/>
<linearGradient id="j" x1="327.8" x2="381.31" y1="169.29" y2="169.29" gradientUnits="userSpaceOnUse" xlink:href="#a"/>
</defs>
<rect x="6.3502" y="6.3502" width="122.77" height="122.77" fill="url(#b)"/>
<g transform="matrix(.9262 0 0 .92558 -275.5 -122.41)" stroke="#b5b1b1" stroke-linecap="round" stroke-linejoin="round" stroke-width="3.4292">
<path d="m336.29 198.92-11.771 7.1032-6.9002 5.0737-8.5238 10.147-3.0442 6.4944 0.60885 10.35 3.6531 6.4944 14.409 7.1032 14.003 1.4206 28.413-3.2472 17.251-5.4796 27.195-12.786 11.162-9.1327 10.959-14.612 1.4206-8.9297-3.0442-8.9297-6.6973-4.4649-12.583-4.4649-8.3209-0.60884-14.206 1.0147-5.8855 0.8118z" fill="url(#g)"/>
<path d="m338.72 253.11 23.342-32.686 5.0704 29.439" fill="none"/>
<path d="m384.39 244.39-7.9704-28.121 35.166 15.335" fill="none"/>
<path d="m422.74 222.47-34.847-13.234 45.806-1.3779" fill="none"/>
<path d="m344.7 210.95-0.86104 6.0272 6.4578 3.4442h11.768l14.351-4.1617 11.481-7.0318 3.7312-6.7448-3.7312-4.8792-4.5922-1.1481-37.168 11.768z" fill="none"/>
<path d="m329.39 177.01 14.003 30.645 7.712 9.3356 6.9003 1.6236 10.756-2.2324 9.9445-4.2619 6.9002-6.0885 1.4206-13.192-7.3062-31.457" fill="url(#h)"/>
<path d="m435.12 198.92-43.496 3.5629 40.452-12.493" fill="none"/>
<path d="m425.38 185.53-37.486 12.078 24.903-16.543" fill="none"/>
<path d="m387.03 192.84 17.454-12.38" fill="none"/>
<path d="m324.72 251.69 25.578-31.266-39.988 24.162" fill="none"/>
<path d="m306.66 238.09 37.183-21.112-37.792 10.762" fill="none"/>
<path d="m309.09 221.25 35.609-10.295-27.085 0.14718" fill="none"/>
<path d="m342.58 206.28-18.062-0.25369" fill="none"/>
<path d="m385.89 188.42 7.175-7.1558" fill="none"/>
<path d="m349.68 186.34 4.2619 11.162 7.915-1.8265 12.38-4.8708 2.8413-2.4354-3.0442-10.959-3.0442 2.0295-12.786 5.0737z" fill="none"/>
<path d="m379.72 161.38-8.118-3.6531-19.077 2.8413-17.859 8.9297-5.2767 7.5091 2.6383 3.2472 8.9297 0.60884 15.018-3.2472 13.395-5.4796 9.1327-6.4944z" fill="url(#j)"/>
<path d="m332.65 172.64 2.0091 2.8701 7.8928 0.28701 11.768-2.7266 12.629-4.7357 6.8883-5.0227 1.0046-3.8747-3.2368-1.7095-19.077 2.8413-17.859 8.9297z" fill="url(#i)"/>
<path d="m353.6 166.61-2.4396-7.4623" fill="none"/>
<path d="m343.39 207.65 4.059 2.2324 7.5091 1.2177 11.365-2.0295 12.177-5.4796 7.1032-6.2914 1.4206-4.4649" fill="none"/>
</g>
</svg>
