/* XPM */
static const char *StarNetIcon_XPM[] = {
/* columns rows colors chars-per-pixel */
"24 24 51 1 ",
"  c black",
". c #000101",
"X c #010102",
"o c #010103",
"O c #010202",
"+ c #020204",
"@ c #020205",
"# c #020305",
"$ c #020405",
"% c #030405",
"& c #040505",
"* c gray2",
"= c #150505",
"- c #160505",
"; c #050516",
": c #260404",
"> c #330000",
", c #370404",
"< c #050426",
"1 c #440000",
"2 c #480404",
"3 c #550000",
"4 c #580303",
"5 c #660000",
"6 c #690303",
"7 c #770000",
"8 c #7A0303",
"9 c #050448",
"0 c #020055",
"q c #050358",
"w c #020066",
"e c #040269",
"r c #050369",
"t c #05037A",
"y c #990000",
"u c #9B0202",
"i c #AC0202",
"p c #BC0101",
"a c #CC0000",
"s c #CD0101",
"d c #DD0000",
"f c #EE0000",
"g c red",
"h c #06028A",
"j c #0602AC",
"k c #0601BC",
"l c #0601CD",
"z c #0601DE",
"x c #0600EE",
"c c #0600FF",
"v c None",
/* pixels */
"vvvvvvvvvvvvvvvvvvvvvvvv",
"v          **          v",
"v          **          v",
"v   1aggd ****         v",
"v  >gy115 ****+        v",
"v  7g    ******        v",
"v  3g7   ******+       v",
"v   ygd7=*******       v",
"v  $*,uga=**********$  v",
"v******2g6*************v",
"v*******g8*************v",
"v$*6822if:***cl****cq*$v",
"v  4aggp2****ccr***cr$ v",
"v   *********clx;**cr  v",
"v    ********ctxj**cw  v",
"v    +*******crqc9*cw  v",
"v     *******cr*kz$cw  v",
"v    ********cr*<ctcw  v",
"v    ********cr**hxxw  v",
"v    ********cr**;zcw  v",
"v    ******+ cq***qc0  v",
"v   $****+    +*****   v",
"v   ***$        +***   v",
"vvvvvvvvvvvvvvvvvvvvvvvv"
};
