<svg xmlns="http://www.w3.org/2000/svg" xmlns:xlink="http://www.w3.org/1999/xlink" height="512" width="512"><defs><linearGradient y2="36.375" x2="34.5" y1="34.75" x1="23.375" gradientTransform="translate(-2 -10.871)" gradientUnits="userSpaceOnUse" id="b" xlink:href="#a"/><linearGradient id="a"><stop offset="0" stop-color="#219dff"/><stop offset="1" stop-color="#197edf"/></linearGradient></defs><path d="M0 0h512v512H0z" fill="none"/><path d="M-.012 136.534l204.8 136.533v238.934L-.012 375.467z" fill="#73c0ff"/><path d="M29.9 17.504l12 8-14 8-12-8z" fill="url(#b)" transform="translate(-271.372 -298.734) scale(17.06666)"/><path d="M443.721 136.534v238.933L204.788 512.001V273.067z" fill="#0c71c2"/><path d="M307.2 0H512v512H307.2z" opacity=".6"/><path d="M486.348 489.734l-78.834-46.737-74.766 44.179v-42.31l41.085-22.237-41.085-22.139v-42.31l74.766 44.573 78.834-47.23v42.802l-44.63 24.304 44.63 24.599zm0-147.986h-153.6v-36.996h153.6zm-50.992-54.524v-35.62q13.14-.393 19.813-7.28 6.57-6.888 6.57-20.172 0-11.315-3.963-17.514-3.962-6.199-11.158-6.199-3.65 0-6.465 1.476-2.92 1.476-4.38 4.133-2.294 4.034-7.194 19.777-4.902 15.743-9.49 26.567-6.57 15.644-17.31 23.811-10.845 8.069-25.235 8.069-22.002 0-34.933-15.547-13.034-15.645-13.034-42.31 0-26.173 13.66-41.522 13.66-15.35 36.914-15.35v34.93q-10.74 1.181-15.85 7.183-5.11 5.904-5.11 17.12 0 8.955 3.963 14.563 3.858 5.609 9.906 5.609 10.22 0 19.292-26.665 1.668-4.821 2.502-7.38.209-.492.522-1.476 9.489-27.55 15.328-34.438 6.048-6.986 14.286-10.626 8.134-3.641 18.144-3.641 22.941 0 35.767 16.629 12.722 16.53 12.722 46.442 0 28.24-13.66 42.998-13.765 14.76-41.607 16.433zm-42.545-179.866V77.544q0-9.446-3.65-14.07-3.753-4.625-11.261-4.625-6.987 0-10.532 4.33-3.65 4.329-3.65 12.79v31.389zm62.984 0V79.315q0-13.283-3.859-18.596-3.962-5.314-13.243-5.314-8.342 0-12.513 5.117-4.275 5.018-4.275 15.054v31.782zm30.553 35.52h-153.6V72.526q0-25.288 9.698-37.292 9.593-12.102 29.614-12.102 12.41 0 20.543 5.411 8.03 5.314 12.409 16.334 3.441-12.595 12.409-19.285 8.863-6.691 22.107-6.691 12.93 0 23.358 5.608 10.427 5.51 16.163 15.547 3.962 6.789 5.63 16.432 1.669 9.642 1.669 29.715z" fill="#fff"/></svg>