<svg xmlns="http://www.w3.org/2000/svg" xmlns:xlink="http://www.w3.org/1999/xlink" height="512" width="512"><defs><linearGradient y2="36.375" x2="34.5" y1="34.75" x1="23.375" gradientTransform="translate(-2 -10.871)" gradientUnits="userSpaceOnUse" id="b" xlink:href="#a"/><linearGradient id="a"><stop offset="0" stop-color="#219dff"/><stop offset="1" stop-color="#197edf"/></linearGradient></defs><path d="M0 0h512v512H0z" fill="none"/><path d="M-.012 136.534l204.8 136.533v238.934L-.012 375.467z" fill="#73c0ff"/><path d="M29.9 17.504l12 8-14 8-12-8z" fill="url(#b)" transform="translate(-271.372 -298.734) scale(17.06666)"/><path d="M443.721 136.534v238.933L204.788 512.001V273.067z" fill="#0c71c2"/><path d="M307.2 0H512v512H307.2z" opacity=".6"/><path d="M486.348 489.734l-78.834-49.079-74.766 46.393v-44.43l41.085-23.35-41.085-23.248v-44.43l74.766 46.806 78.834-49.595v44.945l-44.63 25.521 44.63 25.831zm0-155.399h-153.6v-38.85h153.6zm-50.992-57.255v-37.404q13.14-.413 19.813-7.646 6.57-7.232 6.57-21.181 0-11.882-3.963-18.392-3.963-6.509-11.158-6.509-3.65 0-6.465 1.55-2.92 1.55-4.38 4.34-2.294 4.236-7.195 20.768-4.9 16.531-9.489 27.897-6.57 16.428-17.31 25.004-10.845 8.473-25.235 8.473-22.002 0-34.933-16.325-13.034-16.429-13.034-44.43 0-27.484 13.66-43.602 13.66-16.119 36.914-16.119v36.68q-10.74 1.24-15.85 7.543-5.11 6.2-5.11 17.978 0 9.403 3.963 15.292 3.858 5.89 9.906 5.89 10.22 0 19.292-28.001 1.668-5.063 2.502-7.75.209-.516.522-1.55 9.489-28.93 15.328-36.163 6.048-7.335 14.286-11.158 8.134-3.823 18.144-3.823 22.941 0 35.767 17.461 12.722 17.359 12.722 48.769 0 29.654-13.66 45.152-13.765 15.499-41.607 17.255zm50.992-145.601h-153.6V22.266h31.909v70.466h31.804V31.565h31.805v61.167h58.082z" fill="#fff"/></svg>