<svg xmlns="http://www.w3.org/2000/svg" xmlns:xlink="http://www.w3.org/1999/xlink" height="512" width="512"><defs><linearGradient y2="36.375" x2="34.5" y1="34.75" x1="23.375" gradientTransform="translate(-2 -10.871)" gradientUnits="userSpaceOnUse" id="b" xlink:href="#a"/><linearGradient id="a"><stop offset="0" stop-color="#219dff"/><stop offset="1" stop-color="#197edf"/></linearGradient></defs><path d="M0 0h512v512H0z" fill="none"/><path d="M-.012 136.534l204.8 136.533v238.934L-.012 375.467z" fill="#73c0ff"/><path d="M29.9 17.504l12 8-14 8-12-8z" fill="url(#b)" transform="translate(-271.372 -298.734) scale(17.06666)"/><path d="M443.721 136.534v238.933L204.788 512.001V273.067z" fill="#0c71c2"/><path d="M307.2 0H512v512H307.2z" opacity=".6"/><path d="M486.348 489.734l-78.834-46.146-74.766 43.62v-41.774l41.085-21.956-41.085-21.858v-41.774l74.766 44.008 78.834-46.631v42.26l-44.63 23.995 44.63 24.288zm0-146.112h-153.6v-36.528h153.6zm-50.992-53.835V254.62q13.14-.388 19.813-7.189 6.57-6.8 6.57-19.916 0-11.172-3.963-17.292-3.963-6.12-11.158-6.12-3.65 0-6.465 1.457-2.92 1.457-4.38 4.08-2.294 3.983-7.195 19.527-4.9 15.544-9.489 26.23-6.57 15.447-17.31 23.51-10.845 7.967-25.235 7.967-22.002 0-34.933-15.35-13.034-15.447-13.034-41.774 0-25.842 13.66-40.997 13.66-15.155 36.914-15.155v34.488q-10.74 1.165-15.85 7.092-5.11 5.829-5.11 16.903 0 8.841 3.963 14.379 3.858 5.537 9.906 5.537 10.22 0 19.292-26.327 1.668-4.76 2.502-7.286.209-.486.522-1.458 9.489-27.202 15.328-34.002 6.048-6.898 14.286-10.492 8.134-3.595 18.144-3.595 22.941 0 35.767 16.419 12.722 16.32 12.722 45.854 0 27.882-13.66 42.454-13.765 14.573-41.607 16.224zm50.992-142.517h-153.6v-36.82h54.537V60.32h-54.537V23.502h153.6v36.82h-64.756v50.129h64.756z" fill="#fff"/></svg>