<?xml version="1.0" encoding="UTF-8"?>
<svg width="512" height="512" version="1.1" viewBox="0 0 135.47 135.47" xmlns="http://www.w3.org/2000/svg">
<defs>
<linearGradient id="b" x1="35.152" x2="93.36" y1="33.551" y2="91.759" gradientTransform="matrix(2.1091 0 0 2.1091 -67.788 97.122)" gradientUnits="userSpaceOnUse">
<stop stop-color="#66afff" offset="0"/>
<stop stop-color="#0509ff" offset="1"/>
</linearGradient>
<linearGradient id="a" x1="47.708" x2="59.136" y1="67.303" y2="79.33" gradientTransform="matrix(1.4914 -1.4914 1.4914 1.4914 18.398 215.87)" gradientUnits="userSpaceOnUse">
<stop stop-color="#ffe93e" offset="0"/>
<stop stop-color="#936626" offset="1"/>
</linearGradient>
</defs>
<g transform="translate(0 -161.53)">
<g transform="translate(1.7734e-6 1.3464e-6)">
<rect x="6.35" y="167.88" width="122.77" height="122.77" fill="url(#b)" stroke-width="0" style="paint-order:markers fill stroke"/>
<circle cx="101.23" cy="262.73" r="10.986" fill="#fff" style="paint-order:markers fill stroke"/>
<path d="m100.97 245.2v33.482" fill="none" stroke="#fff" stroke-width="1.3229"/>
<path d="m117.97 262.46h-33.482" fill="none" stroke="#fff" stroke-width="1.3229"/>
<circle cx="101.23" cy="262.73" r="10.986" fill="#fff" style="paint-order:markers fill stroke"/>
<path d="m101.23 240.4v44.642" fill="none" stroke="#fff" stroke-width="6.35"/>
<path d="m123.55 262.73h-44.642" fill="none" stroke="#fff" stroke-width="6.35"/>
<path d="m87.854 249.17 26.746 27.084" fill="none" stroke="#fff" stroke-width="6.35"/>
<path d="m115.21 249.35-27.084 26.746" fill="none" stroke="#fff" stroke-width="6.35"/>
<rect x="34.826" y="186.56" width="5.5803" height="5.5803" fill="#8f8f8f" style="paint-order:markers fill stroke"/>
<rect x="29.246" y="186.56" width="5.5803" height="5.5803" fill="#aaa" style="paint-order:markers fill stroke"/>
<rect x="29.246" y="180.98" width="5.5803" height="5.5803" fill="#b9b9b9" style="paint-order:markers fill stroke"/>
<rect x="34.826" y="180.98" width="5.5803" height="5.5803" fill="#d4d4d4" style="paint-order:markers fill stroke"/>
<rect x="29.246" y="175.4" width="5.5803" height="5.5803" fill="#fff6d5" style="paint-order:markers fill stroke"/>
<rect x="29.246" y="197.72" width="5.5803" height="5.5803" fill="#8f8f8f" style="paint-order:markers fill stroke"/>
<rect x="23.665" y="197.72" width="5.5803" height="5.5803" fill="#fff6d5" style="paint-order:markers fill stroke"/>
<rect x="23.665" y="192.14" width="5.5803" height="5.5803" fill="#b9b9b9" style="paint-order:markers fill stroke"/>
<rect x="29.246" y="192.14" width="5.5803" height="5.5803" fill="#e3e3e3" style="paint-order:markers fill stroke"/>
<rect x="23.665" y="186.56" width="5.5803" height="5.5803" fill="#fdf5d5" style="paint-order:markers fill stroke"/>
<rect x="40.406" y="203.3" width="5.5803" height="5.5803" fill="#9e9e9e" style="paint-order:markers fill stroke"/>
<rect x="34.826" y="203.3" width="5.5803" height="5.5803" fill="#fff6d5" style="paint-order:markers fill stroke"/>
<rect x="34.826" y="197.72" width="5.5803" height="5.5803" fill="#b9b9b9" style="paint-order:markers fill stroke"/>
<rect x="29.246" y="203.3" width="5.5803" height="5.5803" fill="#c3c3c3" style="paint-order:markers fill stroke"/>
<rect x="34.826" y="192.14" width="5.5803" height="5.5803" fill="#cacaca" style="paint-order:markers fill stroke"/>
<rect x="40.406" y="186.56" width="5.5803" height="5.5803" fill="#fff6d5" style="paint-order:markers fill stroke"/>
<rect x="45.987" y="186.56" width="5.5803" height="5.5803" fill="#e3e3e3" style="paint-order:markers fill stroke"/>
<rect x="18.085" y="192.14" width="5.5803" height="5.5803" fill="#8f8f8f" style="paint-order:markers fill stroke"/>
<rect x="18.085" y="186.56" width="5.5803" height="5.5803" fill="#e3e3e3" style="paint-order:markers fill stroke"/>
<rect x="18.085" y="197.72" width="5.5803" height="5.5803" fill="#e3e3e3" style="paint-order:markers fill stroke"/>
<rect x="23.665" y="180.98" width="5.5803" height="5.5803" fill="#cecece" style="paint-order:markers fill stroke"/>
<rect x="40.406" y="192.14" width="5.5803" height="5.5803" fill="#d9d9d9" style="paint-order:markers fill stroke"/>
<rect x="40.406" y="180.98" width="5.5803" height="5.5803" fill="#e3e3e3" style="paint-order:markers fill stroke"/>
<rect x="40.406" y="197.72" width="5.5803" height="5.5803" fill="#e3e3e3" style="paint-order:markers fill stroke"/>
<rect x="23.665" y="203.3" width="5.5803" height="5.5803" fill="#eee" style="paint-order:markers fill stroke"/>
<rect x="29.246" y="208.88" width="5.5803" height="5.5803" fill="#d0d0d0" style="paint-order:markers fill stroke"/>
<rect x="34.826" y="208.88" width="5.5803" height="5.5803" fill="#e3e3e3" style="paint-order:markers fill stroke"/>
<rect x="34.826" y="175.4" width="5.5803" height="5.5803" fill="#e3e3e3" style="paint-order:markers fill stroke"/>
<rect x="45.987" y="197.72" width="5.5803" height="5.5803" fill="#cfcfcf" style="paint-order:markers fill stroke"/>
<rect x="45.987" y="192.14" width="5.5803" height="5.5803" fill="#a2a2a2" style="paint-order:markers fill stroke"/>
<g transform="rotate(45 118.74 52.826)">
<path d="m192.82 218.77s-0.60809-48.099 0.91916-58.929c1.2946-9.1802 25.777-9.8525 26.826-0.20845 1.3429 12.35 0.94204 59.138 0.94204 59.138z" fill="#dd9436" fill-rule="evenodd"/>
<path d="m190.59 227.87h33.676s5.4345 16.832 8.0505 27.886c2.616 11.054-52.364 9.0046-49.794 0.3363 2.5702-8.6683 8.0673-28.222 8.0673-28.222z" fill="url(#a)" fill-rule="evenodd"/>
<rect x="189.97" y="216.75" width="34.982" height="13.297" fill="#b8b8b8"/>
</g>
</g>
</g>
</svg>
