<?xml version="1.0" encoding="UTF-8"?>
<svg width="512" height="512" version="1.1" viewBox="0 0 135.47 135.47" xmlns="http://www.w3.org/2000/svg">
<defs>
<linearGradient id="a" x1="129.12" x2="6.3502" y1="129.12" y2="6.3502" gradientUnits="userSpaceOnUse">
<stop stop-color="#00f" offset="0"/>
<stop stop-color="#000105" offset="1"/>
</linearGradient>
</defs>
<rect x="6.3502" y="6.3502" width="122.77" height="122.77" fill="url(#a)"/>
<g transform="translate(1.589e-7 -4.0022e-6)">
<g transform="translate(.4533)" fill="#ff8020">
<path d="m9.5092 125.05h4.568c0.83055 0 1.2874-0.49833 1.495-0.99666l1.495-3.3222h11.295l1.495 3.2807c0.37375 0.78902 0.70597 1.0382 1.4535 1.0382h4.6096c0.62291 0 0.95513-0.53986 0.70597-1.0797l-12.998-27.948c-0.12458-0.24916-0.41528-0.4568-0.70597-0.4568h-0.41527c-0.29069 0-0.58139 0.20764-0.70597 0.4568l-12.998 27.948c-0.24916 0.53986 0.083058 1.0797 0.70597 1.0797zm10.05-9.9666 3.1146-6.852h0.04152l3.1561 6.852z"/>
<path d="m38.938 124.26c0 0.41528 0.33222 0.78902 0.78902 0.78902h4.9002c0.41528 0 0.78902-0.37374 0.78902-0.78902v-9.759h4.3604c5.0664 0 9.2606-4.1943 9.2606-9.3437 0-5.0248-4.1943-9.1776-9.3022-9.1776h-10.008c-0.4568 0-0.78902 0.37375-0.78902 0.78902zm6.4783-15.822v-6.3537h3.9451c1.7857 0 3.2807 1.3289 3.2807 3.073 0 1.8687-1.495 3.2807-3.2807 3.2807z"/>
<path d="m55.404 125.05h4.568c0.83055 0 1.2874-0.49833 1.495-0.99666l1.495-3.3222h11.295l1.495 3.2807c0.37375 0.78902 0.70597 1.0382 1.4535 1.0382h4.6096c0.62291 0 0.95513-0.53986 0.70597-1.0797l-12.998-27.948c-0.12458-0.24916-0.41528-0.4568-0.70597-0.4568h-0.41528c-0.29069 0-0.58138 0.20764-0.70597 0.4568l-12.998 27.948c-0.24916 0.53986 0.08306 1.0797 0.70597 1.0797zm10.05-9.9666 3.1146-6.852h0.04152l3.1561 6.852z"/>
<path d="m85.007 122.26c0.95513 0.95514 3.9451 3.1976 9.3437 3.1976 6.1045 0 9.8005-4.3189 9.8005-8.5962 0-5.6478-5.1494-8.1809-8.3886-9.4683-3.2807-1.3289-4.5265-2.4916-4.5265-4.0282 0-1.1212 1.1212-2.1179 2.6162-2.1179 2.5332 0 5.5647 2.284 5.9384 2.4917 0.37375 0.29069 1.1212-0.0831 1.4119-0.53986l2.1179-3.1976c0.1661-0.29068 0.24916-1.0382-0.24918-1.3289-1.2458-0.9136-4.568-3.1146-8.8869-3.1146-6.3952 0-9.5929 4.1528-9.5929 8.264 0 4.9833 4.485 7.7656 8.0563 9.1776 2.8239 1.1212 4.2773 2.4501 4.2773 4.1943 0 1.4535-1.2043 2.4916-2.8654 2.4916-2.7408 0-5.7308-2.201-5.8969-2.284-0.29069-0.20764-1.0797-0.2907-1.4119 0.24916l-1.9518 3.4468c-0.33222 0.58138-0.20764 0.74749 0.20764 1.1628z"/>
<path d="m106.7 122.26c0.95513 0.95514 3.9451 3.1976 9.3437 3.1976 6.1046 0 9.8005-4.3189 9.8005-8.5962 0-5.6478-5.1494-8.1809-8.3886-9.4683-3.2807-1.3289-4.5265-2.4916-4.5265-4.0282 0-1.1212 1.1212-2.1179 2.6162-2.1179 2.5332 0 5.5647 2.284 5.9384 2.4917 0.37375 0.29069 1.1212-0.0831 1.4119-0.53986l2.1179-3.1976c0.16611-0.29068 0.24917-1.0382-0.24917-1.3289-1.2458-0.9136-4.568-3.1146-8.8869-3.1146-6.3952 0-9.5929 4.1528-9.5929 8.264 0 4.9833 4.485 7.7656 8.0564 9.1776 2.8239 1.1212 4.2773 2.4501 4.2773 4.1943 0 1.4535-1.2043 2.4916-2.8654 2.4916-2.7408 0-5.7308-2.201-5.8969-2.284-0.2907-0.20764-1.0797-0.2907-1.4119 0.24916l-1.9518 3.4468c-0.33222 0.58138-0.20764 0.74749 0.20764 1.1628z"/>
</g>
<g transform="matrix(2.7946 0 0 2.7946 23.024 7.2137)" stroke-width=".094679">
<path d="m30.996 6.092c0 1.994-0.0061 16.518-0.0061 16.707 0 3.8793-4.9369 6.0625-11.016 6.0625-0.1556 0-2.4733-0.0017-4.9733-0.0049v-18.523c1e-4 -0.7179-0.5486-1.3333-1.2666-1.3333h-4.7567c0.0045-1.6 0.0129-2.7981 0.0272-2.8359 0.8739 1.6573 5.2748 2.6879 10.99 2.6879 5.5244-1e-4 10.298-0.9609 11.002-2.76zm-11.062 1.6332c6.0797 0 11.064-1.3958 11.064-3.492s-4.9285-3.2332-11.008-3.2332c-6.0796 0-10.942 1.137-10.942 3.2332s4.8073 3.492 10.887 3.492z" fill="#eab765"/>
<path d="m13.088 10h-11.175c-0.504 0-0.9125 0.4085-0.9125 0.9125v2.0875h13v-2.0875c0-0.504-0.4085-0.9125-0.9125-0.9125zm-1.0875 2h-2v-1h2zm-11 5h13v-3h-13zm9-2h2v1h-2zm-9 15.088c0 0.504 0.4085 0.9125 0.9125 0.9125h11.175c0.504 0 0.9125-0.4085 0.9125-0.9125v-12.088h-13zm6.5-5.0875c0.8284 0 1.5 0.6716 1.5 1.5s-0.6716 1.5-1.5 1.5-1.5-0.6716-1.5-1.5 0.6716-1.5 1.5-1.5z" fill="#797979"/>
<path d="m12 12h-2v-1h2zm0 3h-2v1h2zm-4.5 10c-0.8284 0-1.5 0.6716-1.5 1.5s0.6716 1.5 1.5 1.5 1.5-0.6716 1.5-1.5-0.6716-1.5-1.5-1.5z" fill="#fff"/>
</g>
</g>
</svg>
