<?xml version="1.0" encoding="UTF-8"?>
<svg width="160" height="160" version="1.1" viewBox="0 0 42.333 42.333" xmlns="http://www.w3.org/2000/svg">
<rect x="3.9687" y="3.9687" width="34.396" height="34.396" fill="none" stroke="#4e4e4e" stroke-linecap="round" stroke-width="2.6458"/>
<g fill="#4e4e4e" fill-rule="evenodd" stroke-width=".26458">
<path d="m28.975 18.518c0.08308 0.08799 0.12919 0.20456 0.12889 0.32566l-0.01293 4.6086c-5.3e-4 0.19148-0.232 0.28711-0.36754 0.15179l-5.6666-5.6583v10.83c0 0.26095-0.21151 0.47247-0.47247 0.47247h-2.8348c-0.26095 0-0.47247-0.21151-0.47247-0.47247v-10.83l-5.6806 5.6367c-0.13592 0.13486-0.36701 0.03863-0.36701-0.15285v-4.5843c0-0.12208 0.04725-0.23941 0.13184-0.3274 0 0 6.2491-6.5553 7.6155-7.9819 0.1425-0.14877 0.38009-0.14779 0.52122 0.0023 1.3464 1.4313 7.4769 7.9795 7.4769 7.9795z"/>
<path d="m29.293 31.908h-16.253c-0.31311 0-0.56696-0.29615-0.56696-0.66145v-1.3229c0-0.3653 0.25385-0.66145 0.56696-0.66145h16.253c0.31311 0 0.56696 0.29615 0.56696 0.66145v1.3229c0 0.3653-0.25385 0.66145-0.56696 0.66145z"/>
</g>
</svg>
