<?xml version="1.0" encoding="UTF-8"?>
<svg width="160" height="160" version="1.1" viewBox="0 0 42.333 42.333" xmlns="http://www.w3.org/2000/svg">
<rect x="3.9687" y="3.9687" width="34.396" height="34.396" fill="none" stroke="#4e4e4e" stroke-linecap="round" stroke-width="2.6458"/>
<g transform="scale(.9988 1.0012)" fill="#4e4e4e" aria-label="+">
<path d="m19.686 29.833c0 0.45628 0.41066 0.82131 0.86694 0.82131h1.2776c0.45628 0 0.86694-0.36503 0.86694-0.82131v-7.1637h7.2093c0.45628 0 0.82131-0.41066 0.82131-0.86694v-1.2776c0-0.45628-0.36503-0.86694-0.82131-0.86694h-7.2093v-7.2093c0-0.45628-0.41066-0.82131-0.86694-0.82131h-1.2776c-0.45628 0-0.86694 0.36503-0.86694 0.82131v7.2093h-7.1637c-0.45628 0-0.86694 0.41066-0.86694 0.86694v1.2776c0 0.45628 0.41066 0.86694 0.86694 0.86694h7.1637z" fill="#4e4e4e" stroke-width=".26458"/>
</g>
</svg>
